TW-Kai-Plus-98_1.sfdir
StartChar: exclam
Encoding: 33 33 4
Width: 511
Flags: W
LayerCount: 2
Back
Fore
SplineSet
254 47 m 1,0,-1
 234 47 l 1,1,2
 230 117 230 117 226 165 c 0,3,4
 224 213 224 213 219 273 c 0,5,6
 214 334 214 334 211 377 c 2,7,-1
 194 565 l 2,8,9
 190 595 190 595 190 622 c 256,10,11
 190 649 190 649 200 664 c 0,12,13
 208 675 208 675 221 681 c 0,14,15
 231 686 231 686 242 686 c 0,16,17
 246 686 246 686 250 685 c 0,18,19
 264 684 264 684 275 676 c 256,20,21
 286 668 286 668 292 652 c 0,22,23
 298 637 298 637 298 609 c 0,24,25
 298 591 298 591 293 532 c 256,26,27
 288 473 288 473 286 453 c 256,28,29
 284 433 284 433 275 313 c 0,30,31
 266 194 266 194 260 121 c 2,32,-1
 254 47 l 1,0,-1
248 -41 m 0,33,34
 260 -42 260 -42 272 -48 c 256,35,36
 284 -54 284 -54 292 -68 c 0,37,38
 300 -81 300 -81 300 -97 c 0,39,40
 300 -112 300 -112 293 -124 c 0,41,42
 286 -137 286 -137 273 -143 c 0,43,44
 260 -151 260 -151 246 -151 c 0,45,46
 230 -151 230 -151 218 -144 c 256,47,48
 206 -137 206 -137 200 -125 c 0,49,50
 192 -113 192 -113 192 -98 c 2,51,-1
 192 -93 l 2,52,53
 192 -82 192 -82 196 -73 c 0,54,55
 198 -66 198 -66 205 -58 c 0,56,57
 212 -51 212 -51 222 -46 c 0,58,59
 233 -41 233 -41 248 -41 c 0,33,34
EndSplineSet
EndChar
StartChar: quotedbl
Encoding: 34 34 5
Width: 512
Flags: W
LayerCount: 2
Back
Fore
SplineSet
162 386 m 2,0,-1
 160 404 l 1,1,-1
 158 447 l 1,2,-1
 150 538 l 1,3,-1
 147 605 l 1,4,-1
 142 667 l 2,5,6
 139 719 139 719 138 730 c 0,7,8
 138 741 138 741 140 748 c 0,9,10
 142 757 142 757 151 764 c 0,11,12
 158 769 158 769 168 769 c 2,13,-1
 174 769 l 2,14,15
 186 768 186 768 194 759 c 0,16,17
 201 750 201 750 201 730 c 2,18,-1
 201 725 l 2,19,20
 200 709 200 709 198 679 c 256,21,22
 196 649 196 649 194 633 c 0,23,24
 194 617 194 617 191 571 c 256,25,26
 188 525 188 525 186 479 c 0,27,28
 183 433 183 433 182 421 c 2,29,-1
 181 394 l 2,30,31
 180 384 180 384 176 379 c 0,32,33
 174 375 174 375 170 375 c 2,34,-1
 168 375 l 2,35,36
 165 375 165 375 164 378 c 0,37,38
 162 381 162 381 162 386 c 2,0,-1
314 395 m 2,39,-1
 312 423 l 2,40,41
 310 453 310 453 310 480 c 2,42,-1
 306 567 l 2,43,44
 303 611 303 611 301 648 c 0,45,46
 299 684 299 684 297 703 c 0,47,48
 296 715 296 715 296 722 c 2,49,-1
 296 729 l 2,50,51
 296 749 296 749 304 759 c 256,52,53
 312 769 312 769 328 770 c 2,54,-1
 330 770 l 2,55,56
 343 770 343 770 352 759 c 0,57,58
 360 749 360 749 360 726 c 2,59,-1
 360 721 l 2,60,61
 358 709 358 709 355 667 c 2,62,-1
 350 599 l 1,63,-1
 344 540 l 1,64,-1
 338 449 l 1,65,-1
 334 405 l 1,66,-1
 333 387 l 2,67,68
 332 383 332 383 331 380 c 256,69,70
 330 377 330 377 326 376 c 2,71,-1
 325 376 l 2,72,73
 321 376 321 376 318 381 c 0,74,75
 314 387 314 387 314 395 c 2,39,-1
EndSplineSet
EndChar
StartChar: numbersign
Encoding: 35 35 6
Width: 1024
Flags: W
LayerCount: 2
Back
Fore
SplineSet
312 173 m 1,0,-1
 347 439 l 1,1,-1
 162 439 l 2,2,3
 151 439 151 439 143 447 c 0,4,5
 136 454 136 454 136 463 c 2,6,-1
 136 468 l 2,7,8
 137 477 137 477 144 484 c 0,9,10
 152 491 152 491 164 491 c 2,11,-1
 354 492 l 1,12,-1
 384 686 l 2,13,14
 386 699 386 699 392 709 c 0,15,16
 396 716 396 716 406 716 c 2,17,-1
 408 716 l 2,18,19
 419 715 419 715 423 705 c 0,20,21
 427 698 427 698 427 690 c 0,22,23
 427 686 427 686 426 683 c 2,24,-1
 398 491 l 1,25,-1
 664 491 l 1,26,-1
 688 685 l 2,27,28
 689 701 689 701 694 709 c 0,29,30
 699 716 699 716 710 716 c 2,31,-1
 713 716 l 2,32,33
 726 715 726 715 730 707 c 0,34,35
 733 701 733 701 733 692 c 0,36,37
 733 687 733 687 732 681 c 2,38,-1
 709 492 l 1,39,-1
 853 491 l 2,40,41
 872 491 872 491 882 486 c 256,42,43
 892 481 892 481 892 465 c 0,44,45
 892 447 892 447 882 443 c 0,46,47
 871 439 871 439 852 439 c 2,48,-1
 699 439 l 1,49,-1
 662 173 l 1,50,-1
 854 173 l 2,51,52
 868 173 868 173 878 168 c 0,53,54
 889 163 889 163 892 148 c 0,55,56
 893 144 893 144 893 141 c 0,57,58
 893 130 893 130 883 125 c 0,59,60
 872 119 872 119 858 119 c 2,61,-1
 654 119 l 1,62,-1
 626 -77 l 2,63,64
 624 -89 624 -89 618 -99 c 256,65,66
 612 -109 612 -109 601 -109 c 256,67,68
 590 -109 590 -109 586 -101 c 0,69,70
 583 -96 583 -96 583 -87 c 0,71,72
 583 -82 583 -82 584 -77 c 2,73,-1
 610 119 l 1,74,-1
 344 119 l 1,75,-1
 316 -73 l 2,76,77
 314 -93 314 -93 306 -104 c 0,78,79
 302 -112 302 -112 293 -112 c 0,80,81
 290 -112 290 -112 287 -111 c 0,82,83
 274 -107 274 -107 274 -97 c 0,84,85
 274 -86 274 -86 276 -71 c 2,86,-1
 304 119 l 1,87,-1
 170 119 l 2,88,89
 155 119 155 119 147 127 c 0,90,91
 141 134 141 134 141 144 c 0,92,93
 141 148 141 148 142 153 c 0,94,95
 146 165 146 165 154 169 c 256,96,97
 162 173 162 173 174 173 c 2,98,-1
 312 173 l 1,0,-1
352 173 m 1,99,-1
 620 173 l 1,100,-1
 658 439 l 1,101,-1
 389 439 l 1,102,-1
 352 173 l 1,99,-1
EndSplineSet
EndChar
StartChar: dollar
Encoding: 36 36 7
Width: 499
Flags: W
LayerCount: 2
Back
Fore
SplineSet
224 -6 m 1,0,1
 216 -5 216 -5 210 -3 c 0,2,3
 204 -2 204 -2 182 6 c 0,4,5
 162 13 162 13 140 31 c 256,6,7
 118 49 118 49 102 68 c 0,8,9
 86 88 86 88 80 100 c 0,10,11
 74 111 74 111 68 125 c 0,12,13
 65 136 65 136 65 145 c 2,14,-1
 65 149 l 2,15,16
 66 159 66 159 74 161 c 2,17,-1
 77 161 l 2,18,19
 84 161 84 161 91 155 c 0,20,21
 96 151 96 151 107 132 c 256,22,23
 118 113 118 113 142 92 c 256,24,25
 166 71 166 71 182 63 c 256,26,27
 198 55 198 55 210 51 c 2,28,-1
 224 47 l 1,29,-1
 224 305 l 1,30,31
 220 306 220 306 194 317 c 0,32,33
 167 327 167 327 143 341 c 0,34,35
 119 354 119 354 99 375 c 256,36,37
 79 396 79 396 68 429 c 0,38,39
 63 444 63 444 63 460 c 0,40,41
 63 480 63 480 71 503 c 0,42,43
 84 543 84 543 110 569 c 0,44,45
 135 595 135 595 161 604 c 256,46,47
 187 613 187 613 210 615 c 2,48,-1
 224 615 l 1,49,-1
 224 667 l 2,50,51
 224 682 224 682 230 689 c 0,52,53
 236 695 236 695 245 695 c 256,54,55
 254 695 254 695 262 689 c 0,56,57
 269 683 269 683 269 667 c 2,58,-1
 269 613 l 1,59,60
 276 611 276 611 287 609 c 0,61,62
 298 606 298 606 318 597 c 0,63,64
 338 589 338 589 352 575 c 0,65,66
 364 565 364 565 369 565 c 2,67,-1
 370 565 l 2,68,69
 374 567 374 567 377 575 c 2,70,-1
 384 596 l 2,71,72
 391 608 391 608 401 608 c 2,73,-1
 402 608 l 2,74,75
 412 607 412 607 418 591 c 0,76,77
 421 584 421 584 421 573 c 0,78,79
 421 568 421 568 420 561 c 2,80,-1
 420 509 l 2,81,82
 421 499 421 499 421 490 c 0,83,84
 421 473 421 473 418 461 c 0,85,86
 414 443 414 443 407 441 c 0,87,88
 406 440 406 440 404 440 c 0,89,90
 398 440 398 440 388 451 c 0,91,92
 384 455 384 455 369 487 c 0,93,94
 354 521 354 521 326 539 c 256,95,96
 298 557 298 557 278 563 c 2,97,-1
 269 567 l 1,98,-1
 269 343 l 2,99,100
 272 341 272 341 278 339 c 0,101,102
 285 336 285 336 314 321 c 0,103,104
 344 307 344 307 373 285 c 256,105,106
 402 263 402 263 416 236 c 256,107,108
 430 209 430 209 433 170 c 2,109,-1
 433 156 l 2,110,111
 433 126 433 126 426 100 c 0,112,113
 416 67 416 67 398 43 c 0,114,115
 378 19 378 19 348 5 c 0,116,117
 316 -9 316 -9 280 -10 c 2,118,-1
 269 -11 l 1,119,-1
 269 -51 l 2,120,121
 269 -63 269 -63 263 -71 c 0,122,123
 258 -79 258 -79 246 -80 c 2,124,-1
 244 -80 l 2,125,126
 234 -80 234 -80 229 -73 c 256,127,128
 224 -66 224 -66 224 -51 c 2,129,-1
 224 -6 l 1,0,1
224 363 m 1,130,-1
 224 570 l 1,131,132
 218 569 218 569 206 567 c 0,133,134
 195 565 195 565 173 553 c 0,135,136
 151 543 151 543 134 512 c 0,137,138
 123 490 123 490 123 469 c 0,139,140
 123 460 123 460 125 451 c 0,141,142
 132 421 132 421 151 405 c 256,143,144
 170 389 170 389 214 367 c 1,145,-1
 224 363 l 1,130,-1
269 286 m 1,146,-1
 269 40 l 1,147,148
 276 41 276 41 299 43 c 256,149,150
 322 45 322 45 344 69 c 256,151,152
 366 93 366 93 372 132 c 0,153,154
 375 148 375 148 375 162 c 0,155,156
 375 181 375 181 370 196 c 0,157,158
 361 223 361 223 337 245 c 0,159,160
 312 267 312 267 276 283 c 2,161,-1
 269 286 l 1,146,-1
EndSplineSet
EndChar
StartChar: percent
Encoding: 37 37 8
Width: 754
Flags: W
LayerCount: 2
Back
Fore
SplineSet
149 700 m 0,0,1
 166 699 166 699 188 691 c 0,2,3
 211 681 211 681 225 663 c 0,4,5
 240 645 240 645 248 621 c 256,6,7
 256 597 256 597 261 573 c 256,8,9
 266 549 266 549 266 512 c 2,10,-1
 266 505 l 2,11,12
 266 471 266 471 258 432 c 0,13,14
 253 404 253 404 246 388 c 0,15,16
 238 371 238 371 226 356 c 256,17,18
 214 341 214 341 193 327 c 256,19,20
 172 313 172 313 146 313 c 0,21,22
 121 313 121 313 102 324 c 0,23,24
 84 335 84 335 72 351 c 256,25,26
 60 367 60 367 51 389 c 256,27,28
 42 411 42 411 35 438 c 0,29,30
 29 465 29 465 29 511 c 256,31,32
 29 557 29 557 37 590 c 0,33,34
 42 613 42 613 57 641 c 0,35,36
 72 670 72 670 94 685 c 0,37,38
 117 700 117 700 149 700 c 0,0,1
149 353 m 256,39,40
 160 353 160 353 171 359 c 256,41,42
 182 365 182 365 192 380 c 256,43,44
 202 395 202 395 206 418 c 256,45,46
 210 441 210 441 210 480 c 0,47,48
 210 532 210 532 206 574 c 0,49,50
 202 617 202 617 192 633 c 256,51,52
 182 649 182 649 172 654 c 0,53,54
 161 659 161 659 150 660 c 0,55,56
 136 660 136 660 124 653 c 0,57,58
 111 647 111 647 101 631 c 0,59,60
 92 615 92 615 88 590 c 256,61,62
 84 565 84 565 83 525 c 0,63,64
 83 485 83 485 86 459 c 0,65,66
 88 437 88 437 92 413 c 0,67,68
 97 391 97 391 106 377 c 0,69,70
 114 363 114 363 126 358 c 256,71,72
 138 353 138 353 149 353 c 256,39,40
590 700 m 2,73,-1
 189 -65 l 2,74,75
 180 -82 180 -82 169 -88 c 0,76,77
 164 -91 164 -91 160 -91 c 256,78,79
 156 -91 156 -91 153 -88 c 0,80,81
 148 -82 148 -82 148 -77 c 0,82,83
 148 -71 148 -71 152 -65 c 2,84,-1
 554 700 l 2,85,86
 561 713 561 713 568 720 c 0,87,88
 572 724 572 724 577 724 c 0,89,90
 580 724 580 724 583 723 c 0,91,92
 592 719 592 719 592 712 c 2,93,-1
 592 709 l 2,94,95
 592 704 592 704 590 700 c 2,73,-1
475 119 m 2,96,-1
 475 128 l 2,97,98
 475 155 475 155 480 184 c 0,99,100
 487 217 487 217 502 245 c 0,101,102
 517 272 517 272 540 288 c 0,103,104
 562 303 562 303 593 303 c 0,105,106
 622 303 622 303 647 286 c 256,107,108
 672 269 672 269 685 240 c 256,109,110
 698 211 698 211 705 181 c 0,111,112
 712 152 712 152 712 120 c 0,113,114
 712 87 712 87 705 55 c 0,115,116
 699 27 699 27 686 -1 c 0,117,118
 672 -29 672 -29 645 -47 c 256,119,120
 618 -65 618 -65 590 -65 c 2,121,-1
 586 -65 l 2,122,123
 565 -65 565 -65 548 -55 c 0,124,125
 530 -45 530 -45 514 -25 c 0,126,127
 500 -5 500 -5 488 31 c 256,128,129
 476 67 476 67 475 119 c 2,96,-1
589 -30 m 2,130,-1
 592 -30 l 2,131,132
 603 -30 603 -30 616 -23 c 0,133,134
 632 -16 632 -16 641 5 c 0,135,136
 651 27 651 27 653 55 c 0,137,138
 654 83 654 83 655 131 c 0,139,140
 655 179 655 179 649 213 c 0,141,142
 645 233 645 233 638 244 c 256,143,144
 631 255 631 255 619 263 c 0,145,146
 607 270 607 270 595 271 c 0,147,148
 584 271 584 271 571 264 c 256,149,150
 558 257 558 257 548 242 c 256,151,152
 538 227 538 227 533 198 c 0,153,154
 527 169 527 169 527 143 c 2,155,-1
 527 130 l 2,156,157
 527 110 527 110 529 85 c 0,158,159
 531 47 531 47 535 26 c 0,160,161
 540 5 540 5 548 -8 c 0,162,163
 557 -21 557 -21 568 -25 c 0,164,165
 580 -30 580 -30 589 -30 c 2,130,-1
EndSplineSet
EndChar
StartChar: ampersand
Encoding: 38 38 9
Width: 777
Flags: W
LayerCount: 2
Back
Fore
SplineSet
237 365 m 1,0,1
 217 415 217 415 208 449 c 256,2,3
 199 483 199 483 199 519 c 0,4,5
 199 571 199 571 221 610 c 0,6,7
 243 648 243 648 282 671 c 0,8,9
 321 693 321 693 366 693 c 0,10,11
 404 693 404 693 433 677 c 0,12,13
 462 660 462 660 477 632 c 0,14,15
 493 605 493 605 494 563 c 2,16,-1
 494 559 l 2,17,18
 494 519 494 519 477 481 c 0,19,20
 455 429 455 429 436 419 c 2,21,-1
 327 339 l 1,22,23
 347 304 347 304 365 272 c 0,24,25
 384 239 384 239 393 228 c 2,26,-1
 433 177 l 1,27,28
 456 203 456 203 467 217 c 0,29,30
 479 231 479 231 503 265 c 256,31,32
 527 299 527 299 539 321 c 0,33,34
 549 339 549 339 549 355 c 2,35,-1
 549 361 l 1,36,-1
 542 405 l 1,37,38
 546 415 546 415 561 422 c 0,39,40
 575 429 575 429 594 429 c 2,41,-1
 637 429 l 2,42,43
 655 429 655 429 665 423 c 0,44,45
 676 418 676 418 677 411 c 2,46,-1
 677 410 l 2,47,48
 677 402 677 402 657 391 c 0,49,50
 628 375 628 375 619 367 c 0,51,52
 611 360 611 360 603 347 c 0,53,54
 596 335 596 335 580 301 c 256,55,56
 564 267 564 267 541 225 c 0,57,58
 517 183 517 183 513 176 c 2,59,-1
 478 124 l 1,60,61
 514 88 514 88 537 71 c 0,62,63
 559 55 559 55 583 47 c 256,64,65
 607 39 607 39 633 39 c 2,66,-1
 638 39 l 2,67,68
 650 39 650 39 663 43 c 0,69,70
 681 49 681 49 697 69 c 0,71,72
 713 91 713 91 719 102 c 256,73,74
 725 113 725 113 732 117 c 0,75,76
 736 120 736 120 739 120 c 0,77,78
 740 120 740 120 741 119 c 0,79,80
 743 118 743 118 743 112 c 2,81,-1
 743 107 l 2,82,83
 740 89 740 89 727 62 c 0,84,85
 713 35 713 35 700 17 c 0,86,87
 686 -1 686 -1 660 -14 c 0,88,89
 633 -27 633 -27 598 -27 c 2,90,-1
 593 -27 l 2,91,92
 571 -27 571 -27 544 -19 c 0,93,94
 515 -9 515 -9 496 9 c 2,95,-1
 427 67 l 1,96,97
 391 41 391 41 359 21 c 0,98,99
 327 0 327 0 287 -15 c 0,100,101
 252 -27 252 -27 210 -27 c 2,102,-1
 198 -27 l 2,103,104
 151 -26 151 -26 115 -7 c 0,105,106
 79 13 79 13 59 48 c 256,107,108
 39 83 39 83 38 123 c 2,109,-1
 38 128 l 2,110,111
 38 165 38 165 51 199 c 0,112,113
 65 233 65 233 94 264 c 256,114,115
 123 295 123 295 149 309 c 2,116,-1
 237 365 l 1,0,1
381 123 m 1,117,118
 355 159 355 159 331 193 c 256,119,120
 307 227 307 227 292 256 c 2,121,-1
 261 313 l 1,122,123
 215 288 215 288 191 271 c 0,124,125
 167 255 167 255 150 237 c 0,126,127
 133 218 133 218 123 197 c 0,128,129
 113 175 113 175 113 140 c 2,130,-1
 113 136 l 2,131,132
 113 104 113 104 129 81 c 0,133,134
 145 57 145 57 182 47 c 0,135,136
 201 42 201 42 221 42 c 256,137,138
 241 42 241 42 263 47 c 0,139,140
 307 59 307 59 331 81 c 2,141,-1
 381 123 l 1,117,118
305 397 m 1,142,143
 320 405 320 405 341 416 c 256,144,145
 362 427 362 427 382 449 c 256,146,147
 402 471 402 471 414 500 c 0,148,149
 427 529 427 529 427 565 c 0,150,151
 426 594 426 594 417 608 c 0,152,153
 407 623 407 623 394 630 c 0,154,155
 380 637 380 637 363 638 c 2,156,-1
 359 638 l 2,157,158
 339 638 339 638 322 629 c 0,159,160
 303 621 303 621 289 600 c 0,161,162
 275 580 275 580 269 551 c 0,163,164
 266 537 266 537 266 522 c 0,165,166
 266 505 266 505 270 487 c 0,167,168
 276 453 276 453 291 425 c 2,169,-1
 305 397 l 1,142,143
EndSplineSet
EndChar
StartChar: quotesingle
Encoding: 39 39 10
Width: 512
Flags: W
LayerCount: 2
Back
Fore
SplineSet
234 397 m 2,0,-1
 233 423 l 1,1,-1
 230 481 l 1,2,-1
 226 569 l 2,3,4
 224 609 224 609 220 656 c 256,5,6
 216 703 216 703 216 711 c 2,7,-1
 216 731 l 2,8,9
 216 750 216 750 224 760 c 256,10,11
 232 770 232 770 248 771 c 2,12,-1
 251 771 l 2,13,14
 265 771 265 771 272 761 c 0,15,16
 280 750 280 750 280 728 c 2,17,-1
 280 723 l 2,18,19
 279 707 279 707 276 670 c 0,20,21
 272 633 272 633 270 601 c 2,22,-1
 264 513 l 2,23,24
 263 505 263 505 259 447 c 2,25,-1
 256 402 l 2,26,27
 254 390 254 390 252 384 c 0,28,29
 250 379 250 379 246 378 c 0,30,31
 240 378 240 378 238 383 c 0,32,33
 234 389 234 389 234 397 c 2,0,-1
EndSplineSet
EndChar
StartChar: parenleft
Encoding: 40 40 11
Width: 292
Flags: W
LayerCount: 2
Back
Fore
SplineSet
210 -127 m 2,0,-1
 192 -105 l 2,1,2
 170 -78 170 -78 142 -36 c 256,3,4
 114 6 114 6 97 39 c 0,5,6
 80 73 80 73 66 115 c 256,7,8
 52 157 52 157 42 207 c 0,9,10
 34 257 34 257 34 323 c 0,11,12
 34 375 34 375 42 421 c 0,13,14
 50 465 50 465 74 525 c 256,15,16
 98 585 98 585 126 629 c 0,17,18
 154 671 154 671 177 701 c 2,19,-1
 210 743 l 1,20,-1
 226 763 l 2,21,22
 230 769 230 769 237 773 c 0,23,24
 242 777 242 777 246 777 c 2,25,-1
 248 777 l 2,26,27
 254 777 254 777 256 772 c 0,28,29
 257 771 257 771 257 769 c 0,30,31
 257 765 257 765 252 759 c 2,32,-1
 236 731 l 2,33,34
 202 675 202 675 187 649 c 256,35,36
 172 623 172 623 156 587 c 256,37,38
 140 551 140 551 128 515 c 256,39,40
 116 479 116 479 108 435 c 256,41,42
 100 391 100 391 99 341 c 2,43,-1
 99 310 l 2,44,45
 99 280 99 280 100 255 c 0,46,47
 104 207 104 207 112 168 c 256,48,49
 120 129 120 129 136 86 c 0,50,51
 152 42 152 42 176 -6 c 0,52,53
 200 -55 200 -55 222 -91 c 2,54,-1
 241 -121 l 2,55,56
 254 -143 254 -143 254 -149 c 0,57,58
 254 -157 254 -157 250 -159 c 0,59,60
 248 -160 248 -160 246 -160 c 0,61,62
 242 -160 242 -160 238 -158 c 0,63,64
 232 -154 232 -154 210 -127 c 2,0,-1
EndSplineSet
EndChar
StartChar: parenright
Encoding: 41 41 12
Width: 292
Flags: W
LayerCount: 2
Back
Fore
SplineSet
51 -119 m 2,0,-1
 70 -89 l 2,1,2
 93 -50 93 -50 115 -5 c 0,3,4
 137 39 137 39 154 87 c 0,5,6
 172 133 172 133 180 170 c 256,7,8
 188 207 188 207 190 251 c 0,9,10
 192 284 192 284 192 314 c 2,11,-1
 192 333 l 2,12,13
 191 393 191 393 183 437 c 0,14,15
 175 479 175 479 164 517 c 0,16,17
 152 555 152 555 137 588 c 256,18,19
 122 621 122 621 98 663 c 0,20,21
 75 705 75 705 56 733 c 2,22,-1
 40 757 l 2,23,24
 35 765 35 765 35 770 c 2,25,-1
 35 773 l 2,26,27
 37 779 37 779 43 780 c 2,28,-1
 45 780 l 2,29,30
 51 780 51 780 56 775 c 2,31,-1
 64 767 l 1,32,-1
 82 745 l 2,33,34
 105 717 105 717 121 696 c 256,35,36
 137 675 137 675 169 622 c 0,37,38
 202 568 202 568 221 519 c 0,39,40
 240 471 240 471 249 423 c 256,41,42
 258 375 258 375 258 318 c 2,43,-1
 258 308 l 2,44,45
 258 256 258 256 248 203 c 0,46,47
 240 157 240 157 226 116 c 256,48,49
 212 75 212 75 195 41 c 0,50,51
 178 9 178 9 150 -34 c 256,52,53
 122 -77 122 -77 100 -103 c 2,54,-1
 81 -126 l 2,55,56
 58 -153 58 -153 53 -157 c 0,57,58
 50 -158 50 -158 47 -158 c 0,59,60
 45 -158 45 -158 42 -157 c 0,61,62
 37 -155 37 -155 37 -148 c 0,63,64
 38 -141 38 -141 51 -119 c 2,0,-1
EndSplineSet
EndChar
StartChar: asterisk
Encoding: 42 42 13
Width: 512
Flags: W
LayerCount: 2
Back
Fore
SplineSet
239 313 m 1,0,1
 184 331 184 331 148 338 c 256,2,3
 112 345 112 345 100 354 c 0,4,5
 87 363 87 363 81 374 c 0,6,7
 76 385 76 385 76 396 c 256,8,9
 76 407 76 407 80 415 c 256,10,11
 84 423 84 423 93 426 c 0,12,13
 102 430 102 430 112 430 c 0,14,15
 124 429 124 429 136 423 c 256,16,17
 148 417 148 417 166 401 c 2,18,-1
 204 365 l 1,19,-1
 249 325 l 1,20,21
 246 355 246 355 244 367 c 0,22,23
 241 380 241 380 229 417 c 0,24,25
 217 452 217 452 217 476 c 2,26,-1
 217 479 l 2,27,28
 217 497 217 497 223 508 c 256,29,30
 229 519 229 519 237 524 c 0,31,32
 246 529 246 529 258 529 c 0,33,34
 268 528 268 528 276 523 c 0,35,36
 284 519 284 519 291 507 c 256,37,38
 298 495 298 495 298 475 c 0,39,40
 298 461 298 461 287 423 c 256,41,42
 276 385 276 385 274 374 c 2,43,-1
 266 323 l 1,44,45
 305 358 305 358 324 377 c 2,46,-1
 354 407 l 2,47,48
 368 422 368 422 379 427 c 0,49,50
 389 431 389 431 400 431 c 0,51,52
 412 431 412 431 421 425 c 0,53,54
 431 419 431 419 436 411 c 0,55,56
 442 403 442 403 442 393 c 256,57,58
 442 383 442 383 434 372 c 256,59,60
 426 361 426 361 403 350 c 256,61,62
 380 339 380 339 349 331 c 2,63,-1
 271 310 l 1,64,65
 296 301 296 301 309 297 c 256,66,67
 322 293 322 293 352 284 c 0,68,69
 380 275 380 275 394 270 c 256,70,71
 408 265 408 265 418 257 c 0,72,73
 428 251 428 251 433 239 c 0,74,75
 436 233 436 233 436 226 c 0,76,77
 436 221 436 221 434 215 c 0,78,79
 430 201 430 201 418 194 c 0,80,81
 410 190 410 190 400 190 c 0,82,83
 395 190 395 190 388 191 c 0,84,85
 372 194 372 194 360 203 c 0,86,87
 350 212 350 212 334 229 c 0,88,89
 320 247 320 247 317 250 c 2,90,-1
 268 297 l 1,91,92
 272 252 272 252 278 230 c 2,93,-1
 288 187 l 2,94,95
 293 166 293 166 294 147 c 0,96,97
 294 128 294 128 291 117 c 0,98,99
 287 107 287 107 278 99 c 0,100,101
 270 92 270 92 259 91 c 0,102,103
 248 91 248 91 238 97 c 0,104,105
 227 103 227 103 222 112 c 0,106,107
 216 121 216 121 215 138 c 2,108,-1
 215 145 l 2,109,110
 215 158 215 158 218 170 c 0,111,112
 219 175 219 175 228 204 c 0,113,114
 238 232 238 232 242 255 c 2,115,-1
 252 302 l 1,116,117
 226 278 226 278 214 266 c 2,118,-1
 183 234 l 2,119,120
 167 218 167 218 155 209 c 0,121,122
 142 199 142 199 132 194 c 256,123,124
 122 189 122 189 111 189 c 256,125,126
 100 189 100 189 90 197 c 256,127,128
 80 205 80 205 77 222 c 0,129,130
 76 226 76 226 76 230 c 0,131,132
 76 242 76 242 84 251 c 0,133,134
 95 263 95 263 101 266 c 0,135,136
 107 270 107 270 155 287 c 2,137,-1
 239 313 l 1,0,1
EndSplineSet
EndChar
StartChar: comma
Encoding: 44 44 15
Width: 512
Flags: W
LayerCount: 2
Back
Fore
SplineSet
205 -153 m 1,0,-1
 205 -133 l 1,1,2
 213 -127 213 -127 224 -121 c 0,3,4
 235 -113 235 -113 251 -99 c 0,5,6
 268 -84 268 -84 276 -68 c 0,7,8
 285 -52 285 -52 287 -35 c 0,9,10
 288 -31 288 -31 288 -27 c 0,11,12
 288 -16 288 -16 283 -9 c 2,13,-1
 276 4 l 1,14,15
 261 -3 261 -3 253 -6 c 256,16,17
 245 -9 245 -9 229 -10 c 2,18,-1
 226 -10 l 2,19,20
 213 -10 213 -10 200 -1 c 0,21,22
 191 5 191 5 185 17 c 0,23,24
 180 28 180 28 180 43 c 2,25,-1
 180 48 l 2,26,27
 181 62 181 62 187 75 c 0,28,29
 194 87 194 87 207 95 c 0,30,31
 219 102 219 102 235 103 c 2,32,-1
 243 103 l 2,33,34
 258 103 258 103 272 97 c 0,35,36
 289 89 289 89 301 74 c 256,37,38
 313 59 313 59 320 39 c 0,39,40
 327 20 327 20 327 -5 c 0,41,42
 327 -33 327 -33 318 -55 c 256,43,44
 309 -77 309 -77 292 -95 c 256,45,46
 275 -113 275 -113 261 -123 c 256,47,48
 247 -133 247 -133 231 -140 c 2,49,-1
 205 -153 l 1,0,-1
EndSplineSet
EndChar
StartChar: hyphen
Encoding: 45 45 16
Width: 722
Flags: W
LayerCount: 2
Back
Fore
SplineSet
50 329 m 1,0,-1
 664 329 l 1,1,-1
 664 287 l 1,2,-1
 50 287 l 1,3,-1
 50 329 l 1,0,-1
EndSplineSet
EndChar
StartChar: period
Encoding: 46 46 17
Width: 512
Flags: W
LayerCount: 2
Back
Fore
SplineSet
244 93 m 256,0,1
 258 93 258 93 272 85 c 0,2,3
 286 78 286 78 294 65 c 0,4,5
 301 51 301 51 301 35 c 0,6,7
 300 20 300 20 294 7 c 0,8,9
 286 -6 286 -6 273 -13 c 0,10,11
 260 -21 260 -21 244 -21 c 256,12,13
 228 -21 228 -21 215 -14 c 0,14,15
 202 -6 202 -6 195 7 c 0,16,17
 188 19 188 19 188 36 c 0,18,19
 188 52 188 52 194 65 c 0,20,21
 202 78 202 78 216 86 c 0,22,23
 230 93 230 93 244 93 c 256,0,1
EndSplineSet
EndChar
StartChar: slash
Encoding: 47 47 18
Width: 645
Flags: W
LayerCount: 2
Back
Fore
SplineSet
55 -63 m 1,0,-1
 563 700 l 2,1,2
 573 714 573 714 581 719 c 0,3,4
 585 721 585 721 590 721 c 256,5,6
 595 721 595 721 601 719 c 0,7,8
 609 716 609 716 609 712 c 0,9,10
 609 710 609 710 607 707 c 2,11,-1
 599 687 l 1,12,-1
 84 -84 l 2,13,14
 76 -94 76 -94 67 -98 c 0,15,16
 64 -100 64 -100 61 -100 c 0,17,18
 54 -100 54 -100 49 -93 c 0,19,20
 44 -88 44 -88 44 -83 c 0,21,22
 44 -79 44 -79 47 -75 c 2,23,-1
 55 -63 l 1,0,-1
EndSplineSet
EndChar
StartChar: zero
Encoding: 48 48 19
Width: 512
Flags: W
LayerCount: 2
Back
Fore
SplineSet
258 678 m 0,0,1
 297 678 297 678 344 639 c 0,2,3
 390 600 390 600 415 517 c 256,4,5
 440 434 440 434 440 352 c 256,6,7
 440 270 440 270 416 191 c 0,8,9
 392 113 392 113 348 71 c 0,10,11
 305 29 305 29 260 29 c 2,12,-1
 258 29 l 2,13,14
 212 29 212 29 168 71 c 256,15,16
 124 113 124 113 100 191 c 256,17,18
 76 269 76 269 76 353 c 0,19,20
 76 435 76 435 100 517 c 0,21,22
 125 599 125 599 172 639 c 0,23,24
 219 677 219 677 258 678 c 0,0,1
257 635 m 0,25,26
 233 634 233 634 200 601 c 0,27,28
 166 569 166 569 150 494 c 256,29,30
 134 419 134 419 133 353 c 0,31,32
 133 286 133 286 150 215 c 0,33,34
 165 147 165 147 196 111 c 0,35,36
 226 75 226 75 257 74 c 0,37,38
 287 74 287 74 318 112 c 0,39,40
 348 147 348 147 364 217 c 256,41,42
 380 287 380 287 380 355 c 0,43,44
 380 418 380 418 363 493 c 0,45,46
 347 569 347 569 314 602 c 0,47,48
 280 635 280 635 257 635 c 0,25,26
EndSplineSet
EndChar
StartChar: one
Encoding: 49 49 20
Width: 512
Flags: W
LayerCount: 2
Back
Fore
SplineSet
265 19 m 2,0,-1
 264 19 l 2,1,2
 260 19 260 19 249 31 c 0,3,4
 237 45 237 45 230 59 c 0,5,6
 222 73 222 73 221 81 c 0,7,8
 220 85 220 85 220 89 c 0,9,10
 220 94 220 94 221 100 c 2,11,-1
 231 143 l 2,12,13
 234 159 234 159 235 197 c 0,14,15
 237 235 237 235 237 256 c 256,16,17
 237 277 237 277 239 343 c 0,18,19
 239 415 239 415 238 462 c 2,20,-1
 238 492 l 2,21,22
 238 520 238 520 239 541 c 2,23,-1
 239 553 l 2,24,25
 239 574 239 574 233 576 c 0,26,27
 230 577 230 577 225 577 c 0,28,29
 219 577 219 577 210 575 c 2,30,-1
 179 563 l 2,31,32
 164 558 164 558 157 558 c 0,33,34
 152 558 152 558 151 561 c 0,35,36
 150 562 150 562 150 564 c 0,37,38
 150 570 150 570 158 582 c 0,39,40
 169 597 169 597 204 631 c 2,41,-1
 245 669 l 2,42,43
 253 675 253 675 265 683 c 0,44,45
 273 687 273 687 278 687 c 0,46,47
 281 687 281 687 283 686 c 0,48,49
 287 683 287 683 289 675 c 256,50,51
 291 667 291 667 291 638 c 2,52,-1
 291 597 l 1,53,-1
 289 531 l 1,54,-1
 289 487 l 1,55,-1
 288 338 l 1,56,-1
 289 277 l 1,57,-1
 289 181 l 2,58,59
 290 159 290 159 290 144 c 256,60,61
 290 129 290 129 289 121 c 0,62,63
 289 114 289 114 285 81 c 256,64,65
 281 48 281 48 275 34 c 0,66,67
 269 19 269 19 265 19 c 2,0,-1
EndSplineSet
EndChar
StartChar: two
Encoding: 50 50 21
Width: 512
Flags: W
LayerCount: 2
Back
Fore
SplineSet
124 95 m 0,0,1
 128 93 128 93 149 88 c 0,2,3
 158 86 158 86 173 86 c 0,4,5
 194 86 194 86 228 90 c 0,6,7
 286 97 286 97 322 103 c 0,8,9
 358 110 358 110 366 110 c 0,10,11
 384 109 384 109 400 103 c 0,12,13
 415 97 415 97 430 82 c 0,14,15
 444 69 444 69 444 61 c 2,16,-1
 444 59 l 2,17,18
 441 52 441 52 417 49 c 0,19,20
 410 48 410 48 397 48 c 0,21,22
 385 48 385 48 368 49 c 0,23,24
 357 50 357 50 342 50 c 0,25,26
 314 50 314 50 274 47 c 0,27,28
 214 43 214 43 176 42 c 256,29,30
 138 41 138 41 113 33 c 0,31,32
 94 29 94 29 83 29 c 2,33,-1
 76 29 l 2,34,35
 64 31 64 31 51 49 c 0,36,37
 38 69 38 69 38 79 c 0,38,39
 38 84 38 84 42 91 c 2,40,-1
 60 113 l 2,41,42
 64 121 64 121 68 158 c 0,43,44
 71 195 71 195 82 224 c 0,45,46
 92 253 92 253 106 273 c 256,47,48
 120 293 120 293 138 308 c 256,49,50
 156 323 156 323 191 339 c 2,51,-1
 252 369 l 2,52,53
 294 391 294 391 312 413 c 0,54,55
 330 436 330 436 338 472 c 0,56,57
 345 500 345 500 345 526 c 0,58,59
 345 535 345 535 344 543 c 0,60,61
 338 585 338 585 318 609 c 256,62,63
 298 633 298 633 271 643 c 0,64,65
 255 648 255 648 238 648 c 0,66,67
 227 648 227 648 215 646 c 0,68,69
 173 637 173 637 154 613 c 0,70,71
 136 589 136 589 130 566 c 256,72,73
 124 543 124 543 124 525 c 2,74,-1
 130 467 l 2,75,76
 129 448 129 448 123 445 c 2,77,-1
 121 445 l 2,78,79
 115 445 115 445 103 455 c 256,80,81
 91 465 91 465 86 479 c 0,82,83
 81 491 81 491 78 518 c 0,84,85
 76 529 76 529 76 540 c 0,86,87
 76 556 76 556 80 573 c 0,88,89
 86 605 86 605 106 631 c 0,90,91
 124 657 124 657 153 675 c 0,92,93
 181 691 181 691 215 697 c 0,94,95
 226 698 226 698 237 698 c 0,96,97
 259 698 259 698 283 693 c 0,98,99
 318 685 318 685 343 665 c 0,100,101
 367 644 367 644 386 610 c 0,102,103
 404 575 404 575 406 534 c 2,104,-1
 406 527 l 2,105,106
 406 490 406 490 397 456 c 0,107,108
 384 412 384 412 364 387 c 256,109,110
 344 362 344 362 316 345 c 0,111,112
 288 329 288 329 254 314 c 256,113,114
 220 299 220 299 202 290 c 256,115,116
 184 281 184 281 164 257 c 0,117,118
 143 234 143 234 134 212 c 0,119,120
 126 191 126 191 118 158 c 0,121,122
 113 138 113 138 113 125 c 0,123,124
 113 117 113 117 115 112 c 0,125,126
 120 99 120 99 124 95 c 0,0,1
EndSplineSet
EndChar
StartChar: three
Encoding: 51 51 22
Width: 512
Flags: W
LayerCount: 2
Back
Fore
SplineSet
334 631 m 1,0,1
 307 627 307 627 294 625 c 2,2,-1
 243 618 l 2,3,4
 205 613 205 613 180 604 c 0,5,6
 160 597 160 597 151 597 c 2,7,-1
 148 597 l 2,8,9
 138 597 138 597 120 608 c 0,10,11
 102 618 102 618 92 629 c 0,12,13
 84 639 84 639 84 645 c 2,14,-1
 84 647 l 2,15,16
 85 653 85 653 115 654 c 0,17,18
 144 654 144 654 170 657 c 2,19,-1
 257 667 l 2,20,21
 306 669 306 669 330 683 c 0,22,23
 356 695 356 695 361 695 c 0,24,25
 370 695 370 695 381 687 c 256,26,27
 392 679 392 679 407 661 c 256,28,29
 422 643 422 643 422 636 c 2,30,-1
 422 635 l 2,31,32
 420 630 420 630 399 619 c 0,33,34
 378 607 378 607 365 589 c 2,35,-1
 325 527 l 1,36,-1
 274 447 l 1,37,38
 312 443 312 443 334 435 c 0,39,40
 355 428 355 428 376 409 c 0,41,42
 398 390 398 390 409 370 c 256,43,44
 420 350 420 350 426 322 c 256,45,46
 432 294 432 294 434 262 c 2,47,-1
 434 256 l 2,48,49
 434 226 434 226 426 193 c 0,50,51
 420 163 420 163 405 133 c 0,52,53
 390 102 390 102 368 80 c 256,54,55
 346 58 346 58 320 47 c 0,56,57
 296 36 296 36 263 36 c 2,58,-1
 257 36 l 2,59,60
 225 36 225 36 196 46 c 0,61,62
 168 56 168 56 148 75 c 0,63,64
 128 93 128 93 116 117 c 256,65,66
 104 141 104 141 101 161 c 256,67,68
 98 181 98 181 98 215 c 256,69,70
 98 249 98 249 105 265 c 0,71,72
 112 279 112 279 120 280 c 0,73,74
 128 280 128 280 134 265 c 0,75,76
 137 259 137 259 137 245 c 0,77,78
 137 238 137 238 136 229 c 2,79,-1
 136 220 l 2,80,81
 136 196 136 196 144 171 c 0,82,83
 154 135 154 135 176 117 c 0,84,85
 197 99 197 99 230 92 c 0,86,87
 247 89 247 89 261 89 c 0,88,89
 281 89 281 89 296 95 c 0,90,91
 324 107 324 107 342 133 c 256,92,93
 360 159 360 159 368 186 c 256,94,95
 376 213 376 213 376 261 c 0,96,97
 374 305 374 305 364 332 c 256,98,99
 354 359 354 359 330 378 c 0,100,101
 307 397 307 397 286 401 c 0,102,103
 279 402 279 402 273 402 c 0,104,105
 260 402 260 402 250 396 c 2,106,-1
 230 384 l 1,107,-1
 226 384 l 2,108,109
 215 384 215 384 202 397 c 0,110,111
 188 413 188 413 184 432 c 0,112,113
 181 445 181 445 181 452 c 0,114,115
 181 455 181 455 182 457 c 0,116,117
 184 458 184 458 206 464 c 0,118,119
 228 471 228 471 245 495 c 2,120,-1
 334 631 l 1,0,1
EndSplineSet
EndChar
StartChar: four
Encoding: 52 52 23
Width: 512
Flags: W
LayerCount: 2
Back
Fore
SplineSet
310 205 m 1,0,1
 298 204 298 204 288 204 c 0,2,3
 278 205 278 205 275 205 c 0,4,5
 267 204 267 204 213 196 c 2,6,-1
 163 189 l 2,7,8
 146 186 146 186 120 180 c 0,9,10
 105 176 105 176 95 176 c 0,11,12
 88 176 88 176 83 178 c 0,13,14
 72 183 72 183 68 207 c 0,15,16
 65 226 65 226 65 235 c 2,17,-1
 65 239 l 2,18,19
 65 244 65 244 67 247 c 0,20,21
 69 251 69 251 85 263 c 0,22,23
 101 276 101 276 110 296 c 0,24,25
 120 317 120 317 157 387 c 2,26,-1
 193 460 l 1,27,-1
 247 567 l 2,28,29
 275 622 275 622 285 641 c 0,30,31
 295 661 295 661 310 675 c 0,32,33
 323 689 323 689 333 689 c 2,34,-1
 334 689 l 2,35,36
 346 687 346 687 351 676 c 0,37,38
 357 664 357 664 357 653 c 0,39,40
 357 641 357 641 359 597 c 0,41,42
 360 585 360 585 360 554 c 256,43,44
 360 523 360 523 359 474 c 2,45,-1
 360 321 l 1,46,-1
 360 257 l 1,47,48
 384 262 384 262 400 267 c 0,49,50
 414 271 414 271 422 271 c 2,51,-1
 425 271 l 2,52,53
 433 269 433 269 448 259 c 256,54,55
 463 249 463 249 474 232 c 0,56,57
 483 217 483 217 483 212 c 2,58,-1
 483 211 l 2,59,60
 481 205 481 205 465 205 c 2,61,-1
 457 205 l 2,62,63
 442 206 442 206 423 206 c 2,64,-1
 403 206 l 1,65,-1
 361 205 l 1,66,67
 360 181 360 181 360 155 c 0,68,69
 361 129 361 129 361 119 c 0,70,71
 360 99 360 99 358 73 c 256,72,73
 356 47 356 47 351 31 c 0,74,75
 346 13 346 13 340 12 c 2,76,-1
 339 12 l 2,77,78
 332 12 332 12 321 31 c 0,79,80
 309 45 309 45 307 52 c 0,81,82
 303 59 303 59 299 73 c 0,83,84
 293 87 293 87 293 92 c 2,85,-1
 293 93 l 2,86,87
 293 101 293 101 303 131 c 0,88,89
 306 143 306 143 309 196 c 2,90,-1
 310 205 l 1,0,1
310 251 m 1,91,92
 309 291 309 291 309 319 c 2,93,-1
 309 343 l 1,94,-1
 311 481 l 1,95,-1
 311 496 l 2,96,97
 311 526 311 526 314 556 c 0,98,99
 317 577 317 577 317 585 c 0,100,101
 317 592 317 592 315 592 c 0,102,103
 311 591 311 591 297 566 c 256,104,105
 283 541 283 541 257 481 c 0,106,107
 231 420 231 420 196 359 c 0,108,109
 161 299 161 299 152 280 c 256,110,111
 143 261 143 261 137 252 c 0,112,113
 134 246 134 246 134 242 c 0,114,115
 134 240 134 240 135 238 c 0,116,117
 139 234 139 234 148 233 c 0,118,119
 152 232 152 232 157 232 c 0,120,121
 167 232 167 232 184 235 c 0,122,123
 209 239 209 239 259 245 c 2,124,-1
 310 251 l 1,91,92
EndSplineSet
EndChar
StartChar: five
Encoding: 53 53 24
Width: 512
Flags: W
LayerCount: 2
Back
Fore
SplineSet
156 421 m 1,0,1
 185 435 185 435 205 443 c 256,2,3
 225 451 225 451 252 455 c 0,4,5
 266 457 266 457 279 457 c 256,6,7
 292 457 292 457 305 455 c 0,8,9
 341 448 341 448 367 428 c 256,10,11
 393 408 393 408 407 385 c 256,12,13
 421 362 421 362 429 326 c 256,14,15
 437 290 437 290 439 249 c 2,16,-1
 439 238 l 2,17,18
 439 202 439 202 427 164 c 0,19,20
 415 125 415 125 392 95 c 256,21,22
 369 65 369 65 341 53 c 0,23,24
 312 39 312 39 281 36 c 0,25,26
 266 34 266 34 250 34 c 0,27,28
 226 34 226 34 202 39 c 0,29,30
 163 46 163 46 138 63 c 256,31,32
 113 80 113 80 96 104 c 256,33,34
 79 128 79 128 74 146 c 0,35,36
 69 165 69 165 66 193 c 0,37,38
 65 204 65 204 65 212 c 0,39,40
 65 226 65 226 68 233 c 0,41,42
 73 245 73 245 82 246 c 2,43,-1
 83 246 l 2,44,45
 91 246 91 246 99 232 c 0,46,47
 103 225 103 225 109 195 c 0,48,49
 116 165 116 165 129 144 c 0,50,51
 143 123 143 123 159 111 c 0,52,53
 177 99 177 99 205 92 c 0,54,55
 227 87 227 87 249 87 c 2,56,-1
 262 87 l 2,57,58
 297 89 297 89 322 105 c 256,59,60
 347 121 347 121 365 159 c 256,61,62
 383 197 383 197 385 243 c 2,63,-1
 385 254 l 2,64,65
 385 294 385 294 373 329 c 0,66,67
 359 369 359 369 335 386 c 256,68,69
 311 403 311 403 269 403 c 2,70,-1
 261 403 l 2,71,72
 221 403 221 403 201 393 c 2,73,-1
 153 372 l 2,74,75
 148 367 148 367 141 359 c 0,76,77
 135 351 135 351 128 350 c 2,78,-1
 126 350 l 2,79,80
 120 350 120 350 109 357 c 0,81,82
 101 363 101 363 91 374 c 256,83,84
 81 385 81 385 80 391 c 0,85,86
 80 397 80 397 88 408 c 0,87,88
 97 421 97 421 101 429 c 0,89,90
 105 438 105 438 107 461 c 0,91,92
 109 485 109 485 112 525 c 0,93,94
 115 566 115 566 116 589 c 0,95,96
 117 611 117 611 117 626 c 0,97,98
 115 643 115 643 113 649 c 256,99,100
 111 655 111 655 103 674 c 0,101,102
 98 685 98 685 98 691 c 0,103,104
 98 695 98 695 101 697 c 0,105,106
 105 701 105 701 113 701 c 0,107,108
 119 701 119 701 131 695 c 0,109,110
 142 689 142 689 157 679 c 0,111,112
 171 671 171 671 172 667 c 2,113,-1
 179 640 l 1,114,115
 199 641 199 641 210 643 c 2,116,-1
 258 651 l 2,117,118
 293 657 293 657 305 661 c 2,119,-1
 355 683 l 1,120,-1
 358 683 l 2,121,122
 367 683 367 683 380 678 c 0,123,124
 395 672 395 672 400 663 c 0,125,126
 405 653 405 653 405 648 c 0,127,128
 403 638 403 638 381 632 c 0,129,130
 360 625 360 625 327 617 c 0,131,132
 295 609 295 609 275 604 c 0,133,134
 255 598 255 598 240 595 c 0,135,136
 232 593 232 593 224 593 c 0,137,138
 218 593 218 593 213 594 c 0,139,140
 201 595 201 595 193 601 c 2,141,-1
 171 618 l 2,142,143
 167 617 167 617 167 598 c 256,144,145
 167 579 167 579 163 551 c 0,146,147
 160 522 160 522 157 434 c 2,148,-1
 156 421 l 1,0,1
EndSplineSet
EndChar
StartChar: six
Encoding: 54 54 25
Width: 512
Flags: W
LayerCount: 2
Back
Fore
SplineSet
132 353 m 1,0,1
 154 381 154 381 171 400 c 0,2,3
 188 418 188 418 214 430 c 0,4,5
 234 440 234 440 261 440 c 0,6,7
 270 440 270 440 279 439 c 0,8,9
 309 436 309 436 337 423 c 0,10,11
 366 409 366 409 388 385 c 256,12,13
 410 361 410 361 423 326 c 256,14,15
 436 291 436 291 438 256 c 2,16,-1
 438 247 l 2,17,18
 438 216 438 216 432 184 c 0,19,20
 424 146 424 146 412 119 c 0,21,22
 399 91 399 91 375 70 c 0,23,24
 350 48 350 48 312 37 c 0,25,26
 294 32 294 32 275 32 c 0,27,28
 255 32 255 32 234 38 c 0,29,30
 203 46 203 46 179 65 c 0,31,32
 155 85 155 85 139 108 c 256,33,34
 123 131 123 131 109 170 c 0,35,36
 96 209 96 209 89 264 c 0,37,38
 85 299 85 299 85 341 c 0,39,40
 85 365 85 365 86 391 c 0,41,42
 90 452 90 452 101 501 c 256,43,44
 112 550 112 550 130 587 c 0,45,46
 148 625 148 625 172 645 c 0,47,48
 198 665 198 665 226 674 c 0,49,50
 248 680 248 680 269 680 c 0,51,52
 277 680 277 680 285 679 c 0,53,54
 314 675 314 675 339 660 c 256,55,56
 364 645 364 645 381 621 c 256,57,58
 398 597 398 597 400 567 c 0,59,60
 401 560 401 560 401 553 c 0,61,62
 401 532 401 532 396 515 c 0,63,64
 392 501 392 501 381 491 c 0,65,66
 373 485 373 485 367 485 c 2,67,-1
 364 485 l 2,68,69
 360 487 360 487 360 505 c 2,70,-1
 360 513 l 2,71,72
 360 539 360 539 355 558 c 0,73,74
 348 580 348 580 334 598 c 0,75,76
 320 617 320 617 294 625 c 0,77,78
 283 629 283 629 271 629 c 0,79,80
 254 629 254 629 236 622 c 0,81,82
 207 611 207 611 187 583 c 256,83,84
 167 555 167 555 154 510 c 0,85,86
 141 464 141 464 138 410 c 256,87,88
 135 356 135 356 132 353 c 1,0,1
160 244 m 2,89,90
 160 209 160 209 169 176 c 0,91,92
 177 142 177 142 195 118 c 0,93,94
 212 95 212 95 243 83 c 0,95,96
 260 77 260 77 276 77 c 0,97,98
 290 77 290 77 302 81 c 0,99,100
 335 91 335 91 350 115 c 0,101,102
 365 140 365 140 373 173 c 256,103,104
 381 206 381 206 381 240 c 2,105,-1
 381 247 l 2,106,107
 381 277 381 277 374 299 c 0,108,109
 366 330 366 330 345 355 c 0,110,111
 324 379 324 379 298 389 c 0,112,113
 286 394 286 394 273 394 c 0,114,115
 258 394 258 394 242 388 c 0,116,117
 220 381 220 381 200 361 c 0,118,119
 178 341 178 341 168 313 c 0,120,121
 160 290 160 290 160 257 c 2,122,-1
 160 244 l 2,89,90
EndSplineSet
EndChar
StartChar: seven
Encoding: 55 55 26
Width: 512
Flags: W
LayerCount: 2
Back
Fore
SplineSet
481 623 m 1,0,-1
 460 601 l 2,1,2
 442 581 442 581 426 559 c 256,3,4
 410 537 410 537 394 510 c 256,5,6
 378 483 378 483 359 447 c 256,7,8
 340 411 340 411 324 377 c 0,9,10
 309 343 309 343 297 304 c 0,11,12
 285 266 285 266 279 231 c 0,13,14
 274 195 274 195 271 157 c 0,15,16
 268 120 268 120 268 91 c 0,17,18
 268 63 268 63 264 48 c 256,19,20
 260 33 260 33 254 31 c 2,21,-1
 253 31 l 2,22,23
 246 31 246 31 233 46 c 0,24,25
 214 69 214 69 205 94 c 256,26,27
 196 119 196 119 196 131 c 0,28,29
 196 140 196 140 206 163 c 0,30,31
 215 185 215 185 218 196 c 256,32,33
 221 207 221 207 230 254 c 0,34,35
 238 301 238 301 249 333 c 0,36,37
 260 367 260 367 278 407 c 256,38,39
 296 447 296 447 311 476 c 256,40,41
 326 505 326 505 344 532 c 0,42,43
 362 560 362 560 372 577 c 0,44,45
 379 588 379 588 379 595 c 0,46,47
 379 599 379 599 377 601 c 0,48,49
 373 607 373 607 354 607 c 2,50,-1
 344 607 l 2,51,52
 327 605 327 605 295 599 c 0,53,54
 262 593 262 593 231 590 c 0,55,56
 199 587 199 587 177 582 c 0,57,58
 159 577 159 577 151 577 c 2,59,-1
 148 577 l 2,60,61
 136 579 136 579 126 589 c 256,62,63
 116 599 116 599 106 613 c 256,64,65
 96 627 96 627 96 635 c 0,66,67
 96 641 96 641 97 643 c 0,68,69
 99 645 99 645 102 647 c 0,70,71
 106 647 106 647 116 645 c 0,72,73
 125 643 125 643 146 643 c 2,74,-1
 180 640 l 1,75,-1
 188 640 l 2,76,77
 205 640 205 640 228 643 c 2,78,-1
 310 652 l 2,79,80
 354 655 354 655 381 669 c 0,81,82
 409 683 409 683 414 683 c 0,83,84
 423 683 423 683 442 669 c 0,85,86
 460 655 460 655 471 642 c 0,87,88
 481 629 481 629 481 624 c 2,89,-1
 481 623 l 1,0,-1
EndSplineSet
EndChar
StartChar: eight
Encoding: 56 56 27
Width: 512
Flags: W
LayerCount: 2
Back
Fore
SplineSet
328 399 m 1,0,1
 334 396 334 396 339 393 c 0,2,3
 344 391 344 391 367 377 c 0,4,5
 391 363 391 363 416 317 c 0,6,7
 441 272 441 272 441 221 c 2,8,-1
 441 217 l 2,9,10
 441 168 441 168 416 125 c 0,11,12
 392 81 392 81 348 55 c 0,13,14
 306 29 306 29 256 29 c 0,15,16
 207 29 207 29 164 55 c 256,17,18
 121 81 121 81 96 125 c 0,19,20
 72 169 72 169 72 221 c 256,21,22
 72 273 72 273 98 320 c 256,23,24
 124 367 124 367 164 388 c 2,25,-1
 181 397 l 1,26,27
 174 401 174 401 158 411 c 256,28,29
 142 421 142 421 122 455 c 0,30,31
 104 487 104 487 104 526 c 2,32,-1
 104 530 l 2,33,34
 104 570 104 570 124 605 c 0,35,36
 144 641 144 641 178 661 c 256,37,38
 212 681 212 681 253 681 c 256,39,40
 294 681 294 681 328 661 c 256,41,42
 362 641 362 641 382 605 c 0,43,44
 402 570 402 570 402 530 c 0,45,46
 402 489 402 489 382 454 c 0,47,48
 363 419 363 419 336 404 c 2,49,-1
 328 399 l 1,0,1
253 629 m 0,50,51
 230 629 230 629 208 617 c 0,52,53
 184 604 184 604 172 581 c 0,54,55
 159 559 159 559 159 534 c 2,56,-1
 159 531 l 2,57,58
 159 505 159 505 172 482 c 0,59,60
 184 459 184 459 206 446 c 256,61,62
 228 433 228 433 253 433 c 256,63,64
 278 433 278 433 300 446 c 256,65,66
 322 459 322 459 334 482 c 256,67,68
 346 505 346 505 347 531 c 0,69,70
 347 557 347 557 334 581 c 0,71,72
 321 604 321 604 298 617 c 0,73,74
 275 629 275 629 253 629 c 0,50,51
258 371 m 256,75,76
 227 371 227 371 196 353 c 0,77,78
 164 335 164 335 147 301 c 256,79,80
 130 267 130 267 130 229 c 256,81,82
 130 191 130 191 147 156 c 256,83,84
 164 121 164 121 194 101 c 0,85,86
 224 82 224 82 258 82 c 2,87,-1
 261 82 l 2,88,89
 293 82 293 82 322 101 c 0,90,91
 350 121 350 121 368 156 c 256,92,93
 386 191 386 191 386 230 c 0,94,95
 386 267 386 267 368 301 c 256,96,97
 350 335 350 335 320 353 c 0,98,99
 289 371 289 371 258 371 c 256,75,76
EndSplineSet
EndChar
StartChar: nine
Encoding: 57 57 28
Width: 512
Flags: W
LayerCount: 2
Back
Fore
SplineSet
438 389 m 1,0,1
 437 335 437 335 436 301 c 0,2,3
 435 268 435 268 429 239 c 0,4,5
 424 209 424 209 413 175 c 0,6,7
 403 141 403 141 388 117 c 256,8,9
 373 93 373 93 349 71 c 0,10,11
 324 49 324 49 296 39 c 0,12,13
 269 29 269 29 247 29 c 0,14,15
 223 29 223 29 197 38 c 256,16,17
 171 47 171 47 151 64 c 256,18,19
 131 81 131 81 122 99 c 256,20,21
 113 117 113 117 105 146 c 0,22,23
 100 165 100 165 100 181 c 0,24,25
 100 188 100 188 101 195 c 0,26,27
 107 214 107 214 117 214 c 2,28,-1
 118 214 l 2,29,30
 124 213 124 213 131 203 c 0,31,32
 139 192 139 192 147 163 c 0,33,34
 156 133 156 133 170 118 c 0,35,36
 185 102 185 102 207 93 c 0,37,38
 227 86 227 86 245 86 c 2,39,-1
 253 86 l 2,40,41
 282 88 282 88 307 107 c 0,42,43
 332 125 332 125 346 152 c 0,44,45
 359 178 359 178 368 220 c 0,46,47
 377 263 377 263 378 284 c 2,48,-1
 381 327 l 1,49,50
 345 285 345 285 320 271 c 0,51,52
 296 259 296 259 259 256 c 0,53,54
 250 255 250 255 241 255 c 0,55,56
 226 255 226 255 212 257 c 0,57,58
 189 261 189 261 163 274 c 0,59,60
 139 287 139 287 119 313 c 0,61,62
 100 339 100 339 91 365 c 256,63,64
 82 391 82 391 80 425 c 0,65,66
 79 443 79 443 79 459 c 256,67,68
 79 475 79 475 80 490 c 0,69,70
 85 549 85 549 108 593 c 256,71,72
 131 637 131 637 163 658 c 256,73,74
 195 679 195 679 235 683 c 1,75,-1
 244 683 l 2,76,77
 285 683 285 683 316 667 c 0,78,79
 351 649 351 649 373 623 c 0,80,81
 395 595 395 595 409 559 c 0,82,83
 422 523 422 523 427 485 c 0,84,85
 433 447 433 447 438 389 c 1,0,1
139 401 m 0,86,87
 147 363 147 363 168 341 c 0,88,89
 189 318 189 318 230 309 c 0,90,91
 242 306 242 306 253 306 c 0,92,93
 281 306 281 306 307 322 c 0,94,95
 330 335 330 335 347 363 c 0,96,97
 363 391 363 391 369 427 c 0,98,99
 371 438 371 438 371 452 c 0,100,101
 371 480 371 480 362 517 c 0,102,103
 350 563 350 563 331 587 c 0,104,105
 311 612 311 612 282 625 c 0,106,107
 262 634 262 634 242 634 c 0,108,109
 233 634 233 634 224 632 c 0,110,111
 199 626 199 626 178 605 c 0,112,113
 158 585 158 585 146 547 c 0,114,115
 135 509 135 509 135 465 c 256,116,117
 135 421 135 421 139 401 c 0,86,87
EndSplineSet
EndChar
StartChar: semicolon
Encoding: 59 59 30
Width: 512
Flags: W
LayerCount: 2
Back
Fore
SplineSet
210 -151 m 1,0,-1
 202 -134 l 1,1,2
 212 -129 212 -129 223 -122 c 0,3,4
 234 -116 234 -116 247 -104 c 0,5,6
 260 -93 260 -93 271 -71 c 0,7,8
 280 -52 280 -52 280 -42 c 2,9,-1
 280 -38 l 1,10,-1
 276 -6 l 1,11,12
 264 -13 264 -13 256 -16 c 0,13,14
 247 -19 247 -19 230 -19 c 0,15,16
 212 -19 212 -19 199 -3 c 0,17,18
 186 14 186 14 186 33 c 0,19,20
 186 51 186 51 194 65 c 0,21,22
 200 75 200 75 215 84 c 0,23,24
 229 92 229 92 244 92 c 2,25,-1
 247 92 l 2,26,27
 272 91 272 91 289 74 c 256,28,29
 306 57 306 57 313 37 c 0,30,31
 320 15 320 15 320 -11 c 0,32,33
 318 -39 318 -39 311 -60 c 0,34,35
 303 -82 303 -82 290 -97 c 0,36,37
 278 -111 278 -111 260 -124 c 0,38,39
 243 -137 243 -137 234 -141 c 2,40,-1
 210 -151 l 1,0,-1
247 309 m 0,41,42
 260 309 260 309 274 302 c 256,43,44
 288 295 288 295 296 281 c 256,45,46
 304 267 304 267 304 252 c 256,47,48
 304 237 304 237 296 223 c 256,49,50
 288 209 288 209 275 202 c 256,51,52
 262 195 262 195 247 195 c 2,53,-1
 243 195 l 2,54,55
 229 195 229 195 218 202 c 0,56,57
 204 209 204 209 198 223 c 0,58,59
 190 237 190 237 190 252 c 256,60,61
 190 267 190 267 198 281 c 0,62,63
 205 294 205 294 219 302 c 0,64,65
 232 309 232 309 247 309 c 0,41,42
EndSplineSet
EndChar
StartChar: equal
Encoding: 61 61 32
Width: 724
Flags: W
LayerCount: 2
Back
Fore
SplineSet
50 243 m 1,0,-1
 664 243 l 1,1,-1
 664 201 l 1,2,-1
 50 201 l 1,3,-1
 50 243 l 1,0,-1
50 424 m 1,4,-1
 664 424 l 1,5,-1
 664 381 l 1,6,-1
 50 381 l 1,7,-1
 50 424 l 1,4,-1
EndSplineSet
EndChar
StartChar: question
Encoding: 63 63 34
Width: 512
Flags: W
LayerCount: 2
Back
Fore
SplineSet
246 41 m 2,0,1
 240 41 240 41 236 56 c 0,2,3
 232 65 232 65 232 79 c 0,4,5
 232 89 232 89 234 101 c 2,6,-1
 238 142 l 2,7,8
 240 157 240 157 248 180 c 256,9,10
 256 203 256 203 265 224 c 0,11,12
 274 244 274 244 286 265 c 2,13,-1
 314 308 l 2,14,15
 326 329 326 329 335 351 c 0,16,17
 345 375 345 375 352 401 c 0,18,19
 358 429 358 429 358 456 c 0,20,21
 356 483 356 483 347 506 c 256,22,23
 338 529 338 529 324 545 c 256,24,25
 310 561 310 561 286 568 c 0,26,27
 262 576 262 576 238 576 c 0,28,29
 227 575 227 575 208 573 c 0,30,31
 188 569 188 569 169 556 c 256,32,33
 150 543 150 543 142 515 c 0,34,35
 139 501 139 501 139 491 c 0,36,37
 139 479 139 479 143 471 c 0,38,39
 148 461 148 461 162 453 c 0,40,41
 176 447 176 447 178 441 c 2,42,-1
 178 440 l 2,43,44
 178 435 178 435 167 421 c 0,45,46
 154 405 154 405 135 399 c 0,47,48
 123 395 123 395 114 395 c 0,49,50
 108 395 108 395 103 397 c 0,51,52
 90 403 90 403 88 410 c 0,53,54
 86 412 86 412 86 433 c 2,55,-1
 78 476 l 2,56,57
 77 480 77 480 77 485 c 0,58,59
 77 495 77 495 80 508 c 0,60,61
 84 522 84 522 94 543 c 0,62,63
 104 565 104 565 132 586 c 256,64,65
 160 607 160 607 193 614 c 256,66,67
 226 621 226 621 254 622 c 0,68,69
 281 622 281 622 314 613 c 256,70,71
 347 604 347 604 372 578 c 0,72,73
 398 553 398 553 410 527 c 0,74,75
 422 503 422 503 422 467 c 2,76,-1
 422 461 l 2,77,78
 422 441 422 441 417 418 c 256,79,80
 412 395 412 395 403 372 c 256,81,82
 394 349 394 349 382 329 c 0,83,84
 371 311 371 311 347 279 c 0,85,86
 322 247 322 247 310 226 c 0,87,88
 297 205 297 205 286 180 c 0,89,90
 276 155 276 155 270 131 c 2,91,-1
 264 95 l 2,92,93
 260 73 260 73 260 65 c 0,94,95
 260 55 260 55 256 47 c 0,96,97
 253 41 253 41 248 41 c 2,98,-1
 246 41 l 2,0,1
250 -38 m 0,99,100
 265 -38 265 -38 278 -45 c 0,101,102
 290 -51 290 -51 298 -65 c 256,103,104
 306 -79 306 -79 306 -94 c 256,105,106
 306 -109 306 -109 298 -121 c 0,107,108
 291 -135 291 -135 278 -142 c 0,109,110
 266 -149 266 -149 250 -149 c 0,111,112
 236 -149 236 -149 222 -142 c 0,113,114
 209 -135 209 -135 202 -122 c 0,115,116
 194 -109 194 -109 194 -93 c 0,117,118
 194 -79 194 -79 202 -65 c 0,119,120
 210 -52 210 -52 222 -45 c 0,121,122
 236 -39 236 -39 250 -38 c 0,99,100
EndSplineSet
EndChar
StartChar: at
Encoding: 64 64 35
Width: 1000
Flags: W
LayerCount: 2
Back
Fore
SplineSet
682 533 m 1,0,-1
 701 567 l 1,1,-1
 765 567 l 1,2,3
 752 527 752 527 741 492 c 0,4,5
 731 457 731 457 724 429 c 2,6,-1
 669 211 l 2,7,8
 656 163 656 163 656 145 c 0,9,10
 657 127 657 127 666 119 c 256,11,12
 675 111 675 111 694 111 c 2,13,-1
 699 111 l 2,14,15
 729 113 729 113 757 131 c 0,16,17
 784 149 784 149 811 185 c 0,18,19
 837 221 837 221 848 239 c 0,20,21
 859 258 859 258 871 290 c 0,22,23
 885 323 885 323 890 349 c 0,24,25
 895 376 895 376 895 422 c 2,26,-1
 895 427 l 2,27,28
 895 470 895 470 877 521 c 0,29,30
 861 561 861 561 824 607 c 256,31,32
 787 653 787 653 745 673 c 0,33,34
 701 693 701 693 675 701 c 0,35,36
 647 709 647 709 622 713 c 0,37,38
 596 717 596 717 563 718 c 2,39,-1
 540 718 l 2,40,41
 517 718 517 718 496 717 c 0,42,43
 465 715 465 715 435 709 c 256,44,45
 405 703 405 703 371 691 c 0,46,47
 337 678 337 678 301 654 c 256,48,49
 265 630 265 630 233 600 c 0,50,51
 201 571 201 571 173 528 c 256,52,53
 145 485 145 485 131 453 c 256,54,55
 117 421 117 421 109 383 c 256,56,57
 101 345 101 345 100 305 c 2,58,-1
 100 285 l 2,59,60
 100 255 100 255 104 228 c 0,61,62
 109 193 109 193 129 143 c 0,63,64
 147 95 147 95 185 51 c 0,65,66
 222 7 222 7 268 -21 c 0,67,68
 313 -49 313 -49 352 -64 c 256,69,70
 391 -79 391 -79 431 -84 c 0,71,72
 473 -89 473 -89 511 -89 c 0,73,74
 561 -89 561 -89 600 -82 c 0,75,76
 639 -76 639 -76 673 -66 c 256,77,78
 707 -56 707 -56 737 -39 c 0,79,80
 767 -23 767 -23 810 7 c 0,81,82
 853 38 853 38 865 51 c 2,83,-1
 890 81 l 1,84,-1
 948 81 l 1,85,86
 920 45 920 45 899 22 c 0,87,88
 877 -1 877 -1 837 -31 c 256,89,90
 797 -61 797 -61 759 -80 c 0,91,92
 719 -100 719 -100 659 -117 c 0,93,94
 598 -133 598 -133 529 -135 c 0,95,96
 492 -135 492 -135 437 -130 c 0,97,98
 383 -124 383 -124 347 -112 c 0,99,100
 310 -99 310 -99 279 -84 c 256,101,102
 248 -69 248 -69 223 -51 c 0,103,104
 199 -32 199 -32 169 -3 c 0,105,106
 138 25 138 25 119 57 c 0,107,108
 99 88 99 88 89 115 c 0,109,110
 77 141 77 141 68 177 c 256,111,112
 59 213 59 213 55 249 c 0,113,114
 53 276 53 276 53 300 c 2,115,-1
 53 315 l 2,116,117
 54 354 54 354 64 395 c 0,118,119
 73 436 73 436 97 486 c 256,120,121
 121 536 121 536 160 583 c 0,122,123
 198 631 198 631 236 661 c 0,124,125
 275 691 275 691 300 705 c 0,126,127
 325 717 325 717 353 728 c 256,128,129
 381 739 381 739 412 747 c 0,130,131
 443 754 443 754 482 758 c 0,132,133
 521 761 521 761 545 761 c 0,134,135
 585 761 585 761 631 752 c 256,136,137
 677 743 677 743 710 731 c 256,138,139
 743 719 743 719 781 695 c 0,140,141
 819 672 819 672 840 651 c 0,142,143
 861 629 861 629 883 599 c 256,144,145
 905 569 905 569 916 540 c 256,146,147
 927 511 927 511 933 478 c 0,148,149
 941 445 941 445 941 409 c 0,150,151
 940 375 940 375 931 328 c 0,152,153
 921 281 921 281 901 239 c 256,154,155
 881 197 881 197 856 166 c 0,156,157
 831 136 831 136 801 111 c 0,158,159
 771 85 771 85 740 71 c 0,160,161
 709 55 709 55 682 54 c 2,162,-1
 674 54 l 2,163,164
 653 54 653 54 635 62 c 0,165,166
 613 71 613 71 607 86 c 2,167,-1
 593 119 l 1,168,169
 568 98 568 98 535 76 c 0,170,171
 501 54 501 54 445 54 c 2,172,-1
 441 54 l 2,173,174
 406 54 406 54 369 70 c 0,175,176
 329 87 329 87 308 107 c 256,177,178
 287 127 287 127 271 155 c 256,179,180
 255 183 255 183 250 208 c 0,181,182
 245 232 245 232 245 261 c 0,183,184
 246 303 246 303 256 339 c 0,185,186
 265 375 265 375 276 400 c 0,187,188
 287 424 287 424 297 443 c 0,189,190
 307 461 307 461 336 495 c 0,191,192
 365 530 365 530 400 553 c 0,193,194
 436 575 436 575 473 587 c 0,195,196
 506 597 506 597 544 597 c 2,197,-1
 551 597 l 2,198,199
 580 597 580 597 599 590 c 0,200,201
 619 584 619 584 637 574 c 0,202,203
 655 565 655 565 660 559 c 2,204,-1
 682 533 l 1,0,-1
657 455 m 0,205,206
 655 475 655 475 644 499 c 256,207,208
 633 523 633 523 608 543 c 256,209,210
 583 563 583 563 540 565 c 0,211,212
 503 565 503 565 467 547 c 256,213,214
 431 529 431 529 402 501 c 256,215,216
 373 473 373 473 352 437 c 256,217,218
 331 401 331 401 320 361 c 256,219,220
 309 321 309 321 307 273 c 2,221,-1
 307 257 l 2,222,223
 307 218 307 218 315 191 c 0,224,225
 324 161 324 161 343 137 c 0,226,227
 363 113 363 113 393 99 c 0,228,229
 413 90 413 90 436 90 c 0,230,231
 449 90 449 90 463 93 c 0,232,233
 497 99 497 99 523 121 c 0,234,235
 550 143 550 143 568 169 c 0,236,237
 587 195 587 195 598 221 c 256,238,239
 609 247 609 247 615 268 c 256,240,241
 621 289 621 289 636 343 c 0,242,243
 650 397 650 397 653 421 c 0,244,245
 657 445 657 445 657 455 c 0,205,206
EndSplineSet
EndChar
StartChar: A
Encoding: 65 65 36
Width: 546
Flags: W
LayerCount: 2
Back
Fore
SplineSet
349 319 m 1,0,1
 329 310 329 310 318 306 c 0,2,3
 306 303 306 303 269 298 c 256,4,5
 232 293 232 293 226 293 c 0,6,7
 212 292 212 292 199 292 c 0,8,9
 187 292 187 292 177 293 c 2,10,-1
 153 295 l 1,11,12
 140 250 140 250 123 189 c 0,13,14
 107 129 107 129 99 105 c 256,15,16
 91 81 91 81 80 55 c 256,17,18
 69 29 69 29 61 29 c 0,19,20
 55 29 55 29 46 41 c 0,21,22
 38 53 38 53 33 84 c 256,23,24
 28 115 28 115 28 128 c 2,25,-1
 28 132 l 2,26,27
 28 143 28 143 33 157 c 0,28,29
 35 161 35 161 51 183 c 0,30,31
 66 206 66 206 76 229 c 0,32,33
 87 253 87 253 113 338 c 256,34,35
 139 423 139 423 155 475 c 0,36,37
 171 528 171 528 177 548 c 0,38,39
 184 569 184 569 201 613 c 0,40,41
 217 659 217 659 228 672 c 0,42,43
 238 685 238 685 247 687 c 2,44,-1
 248 687 l 2,45,46
 256 687 256 687 271 669 c 0,47,48
 281 655 281 655 293 622 c 256,49,50
 305 589 305 589 321 546 c 2,51,-1
 367 421 l 2,52,53
 407 312 407 312 416 286 c 0,54,55
 426 260 426 260 441 226 c 0,56,57
 455 193 455 193 467 177 c 2,58,-1
 491 145 l 2,59,60
 499 133 499 133 501 122 c 0,61,62
 502 118 502 118 502 111 c 0,63,64
 502 101 502 101 499 85 c 0,65,66
 495 63 495 63 489 46 c 256,67,68
 483 29 483 29 478 26 c 2,69,-1
 476 26 l 2,70,71
 470 26 470 26 457 41 c 0,72,73
 445 55 445 55 436 82 c 2,74,-1
 414 143 l 1,75,-1
 383 232 l 1,76,-1
 349 319 l 1,0,1
344 333 m 1,77,78
 327 379 327 379 320 403 c 2,79,-1
 285 513 l 2,80,81
 275 543 275 543 269 558 c 0,82,83
 264 574 264 574 257 595 c 0,84,85
 249 615 249 615 246 616 c 0,86,87
 243 616 243 616 237 597 c 0,88,89
 230 577 230 577 222 546 c 2,90,-1
 202 471 l 2,91,92
 179 388 179 388 179 385 c 2,93,-1
 162 329 l 1,94,95
 198 333 198 333 222 337 c 0,96,97
 246 342 246 342 268 351 c 256,98,99
 290 360 290 360 301 360 c 0,100,101
 311 359 311 359 323 351 c 2,102,-1
 344 333 l 1,77,78
EndSplineSet
EndChar
StartChar: B
Encoding: 66 66 37
Width: 521
Flags: W
LayerCount: 2
Back
Fore
SplineSet
123 83 m 1,0,1
 127 151 127 151 128 178 c 256,2,3
 129 205 129 205 130 255 c 0,4,5
 131 303 131 303 133 389 c 0,6,7
 134 446 134 446 134 473 c 2,8,-1
 134 491 l 1,9,-1
 131 593 l 1,10,11
 108 588 108 588 95 588 c 2,12,-1
 89 588 l 2,13,14
 77 590 77 590 57 599 c 0,15,16
 38 609 38 609 32 621 c 0,17,18
 28 630 28 630 28 635 c 0,19,20
 28 637 28 637 29 639 c 0,21,22
 31 645 31 645 53 645 c 2,23,-1
 143 652 l 1,24,-1
 227 657 l 1,25,-1
 299 661 l 1,26,-1
 309 661 l 2,27,28
 345 661 345 661 370 655 c 0,29,30
 399 649 399 649 417 635 c 0,31,32
 435 620 435 620 447 594 c 0,33,34
 459 567 459 567 461 530 c 0,35,36
 462 521 462 521 462 512 c 0,37,38
 462 486 462 486 457 465 c 0,39,40
 451 442 451 442 440 422 c 0,41,42
 429 401 429 401 421 395 c 2,43,-1
 401 377 l 1,44,45
 423 365 423 365 440 350 c 256,46,47
 457 335 457 335 469 307 c 256,48,49
 481 279 481 279 483 244 c 2,50,-1
 483 229 l 2,51,52
 483 202 483 202 478 179 c 0,53,54
 470 150 470 150 453 127 c 0,55,56
 435 103 435 103 407 86 c 0,57,58
 380 69 380 69 347 60 c 0,59,60
 313 51 313 51 258 45 c 256,61,62
 203 39 203 39 171 38 c 2,63,-1
 89 35 l 2,64,65
 80 34 80 34 73 34 c 0,66,67
 55 34 55 34 44 38 c 0,68,69
 29 43 29 43 28 53 c 2,70,-1
 28 54 l 2,71,72
 28 62 28 62 41 71 c 0,73,74
 45 75 45 75 77 79 c 2,75,-1
 123 83 l 1,0,1
186 388 m 1,76,77
 247 391 247 391 277 395 c 256,78,79
 307 399 307 399 331 406 c 256,80,81
 355 413 355 413 373 428 c 0,82,83
 390 443 390 443 400 475 c 0,84,85
 409 500 409 500 409 524 c 0,86,87
 409 531 409 531 408 537 c 0,88,89
 405 567 405 567 390 584 c 256,90,91
 375 601 375 601 353 606 c 0,92,93
 340 608 340 608 320 608 c 0,94,95
 305 608 305 608 287 607 c 2,96,-1
 217 603 l 1,97,-1
 186 598 l 1,98,99
 185 479 185 479 185 439 c 2,100,-1
 186 388 l 1,76,77
177 86 m 1,101,102
 213 87 213 87 236 89 c 256,103,104
 259 91 259 91 300 99 c 256,105,106
 341 107 341 107 369 121 c 256,107,108
 397 135 397 135 412 158 c 256,109,110
 427 181 427 181 431 217 c 0,111,112
 432 225 432 225 432 232 c 0,113,114
 432 259 432 259 421 284 c 0,115,116
 409 311 409 311 387 327 c 256,117,118
 365 343 365 343 347 346 c 0,119,120
 336 348 336 348 322 348 c 0,121,122
 312 348 312 348 302 347 c 0,123,124
 273 345 273 345 244 342 c 2,125,-1
 185 337 l 1,126,127
 186 287 186 287 186 273 c 0,128,129
 185 259 185 259 181 171 c 2,130,-1
 177 86 l 1,101,102
EndSplineSet
EndChar
StartChar: C
Encoding: 67 67 38
Width: 488
Flags: W
LayerCount: 2
Back
Fore
SplineSet
425 639 m 2,0,1
 430 644 430 644 435 644 c 2,2,-1
 438 644 l 2,3,4
 446 641 446 641 447 630 c 0,5,6
 448 626 448 626 448 619 c 0,7,8
 448 609 448 609 446 593 c 2,9,-1
 444 547 l 1,10,-1
 439 509 l 2,11,12
 437 487 437 487 432 475 c 0,13,14
 427 464 427 464 420 463 c 2,15,-1
 419 463 l 2,16,17
 412 463 412 463 401 491 c 0,18,19
 391 514 391 514 378 533 c 0,20,21
 365 553 365 553 347 574 c 0,22,23
 327 596 327 596 303 609 c 0,24,25
 279 621 279 621 248 623 c 2,26,-1
 243 623 l 2,27,28
 211 623 211 623 186 610 c 0,29,30
 159 595 159 595 141 568 c 0,31,32
 124 541 124 541 111 499 c 0,33,34
 97 457 97 457 93 415 c 0,35,36
 91 394 91 394 91 368 c 256,37,38
 91 342 91 342 93 311 c 0,39,40
 96 250 96 250 105 215 c 0,41,42
 113 180 113 180 127 155 c 0,43,44
 141 131 141 131 161 116 c 256,45,46
 181 101 181 101 211 93 c 0,47,48
 232 86 232 86 253 86 c 0,49,50
 261 86 261 86 269 87 c 0,51,52
 299 89 299 89 321 103 c 256,53,54
 343 117 343 117 357 135 c 256,55,56
 371 153 371 153 382 176 c 256,57,58
 393 199 393 199 401 224 c 256,59,60
 409 249 409 249 414 267 c 0,61,62
 418 285 418 285 427 291 c 0,63,64
 431 294 431 294 434 294 c 0,65,66
 439 294 439 294 443 290 c 0,67,68
 449 286 449 286 449 274 c 0,69,70
 449 267 449 267 447 258 c 2,71,-1
 437 209 l 2,72,73
 429 179 429 179 413 146 c 0,74,75
 398 113 398 113 380 93 c 0,76,77
 361 73 361 73 331 57 c 256,78,79
 301 41 301 41 273 38 c 0,80,81
 262 36 262 36 250 36 c 0,82,83
 224 36 224 36 196 44 c 0,84,85
 155 55 155 55 127 75 c 256,86,87
 99 95 99 95 80 125 c 256,88,89
 61 155 61 155 49 195 c 0,90,91
 38 233 38 233 33 287 c 0,92,93
 28 332 28 332 28 368 c 2,94,-1
 28 379 l 2,95,96
 29 417 29 417 35 460 c 0,97,98
 42 503 42 503 59 544 c 0,99,100
 77 585 77 585 110 620 c 0,101,102
 143 656 143 656 178 664 c 0,103,104
 213 671 213 671 235 671 c 0,105,106
 267 671 267 671 299 661 c 256,107,108
 331 651 331 651 354 635 c 2,109,-1
 386 611 l 2,110,111
 395 605 395 605 400 605 c 0,112,113
 407 606 407 606 415 620 c 2,114,-1
 425 639 l 2,0,1
EndSplineSet
EndChar
StartChar: D
Encoding: 68 68 39
Width: 512
Flags: W
LayerCount: 2
Back
Fore
SplineSet
93 579 m 1,0,1
 83 579 83 579 76 581 c 256,2,3
 69 583 69 583 55 593 c 0,4,5
 40 601 40 601 32 614 c 0,6,7
 27 622 27 622 27 629 c 0,8,9
 27 632 27 632 28 635 c 0,10,11
 30 639 30 639 50 639 c 256,12,13
 70 639 70 639 98 643 c 0,14,15
 126 648 126 648 182 654 c 256,16,17
 238 660 238 660 250 661 c 0,18,19
 259 662 259 662 267 662 c 0,20,21
 294 662 294 662 322 657 c 0,22,23
 362 652 362 652 392 634 c 0,24,25
 423 616 423 616 442 588 c 0,26,27
 460 559 460 559 470 516 c 256,28,29
 480 473 480 473 482 414 c 0,30,31
 483 385 483 385 483 361 c 256,32,33
 483 337 483 337 482 318 c 0,34,35
 480 262 480 262 470 215 c 0,36,37
 461 167 461 167 439 135 c 0,38,39
 418 102 418 102 395 85 c 0,40,41
 372 69 372 69 344 58 c 256,42,43
 316 47 316 47 285 43 c 0,44,45
 253 39 253 39 212 38 c 0,46,47
 192 37 192 37 176 37 c 0,48,49
 159 37 159 37 146 38 c 0,50,51
 116 40 116 40 92 46 c 0,52,53
 69 52 69 52 55 59 c 0,54,55
 40 65 40 65 37 75 c 0,56,57
 35 79 35 79 35 82 c 0,58,59
 35 87 35 87 38 91 c 0,60,61
 38 92 38 92 47 92 c 256,62,63
 56 92 56 92 74 91 c 2,64,-1
 96 89 l 1,65,66
 98 165 98 165 98 212 c 2,67,-1
 98 296 l 1,68,-1
 96 429 l 1,69,-1
 96 513 l 1,70,-1
 93 579 l 1,0,1
148 89 m 1,71,-1
 191 89 l 2,72,73
 210 89 210 89 250 94 c 256,74,75
 290 99 290 99 320 111 c 0,76,77
 352 123 352 123 373 147 c 0,78,79
 395 170 395 170 408 209 c 0,80,81
 420 249 420 249 424 280 c 256,82,83
 428 311 428 311 428 339 c 0,84,85
 427 379 427 379 422 440 c 0,86,87
 416 500 416 500 402 532 c 0,88,89
 388 565 388 565 364 581 c 256,90,91
 340 597 340 597 307 602 c 0,92,93
 283 606 283 606 260 606 c 0,94,95
 251 606 251 606 242 605 c 0,96,97
 210 603 210 603 182 595 c 2,98,-1
 146 586 l 1,99,100
 148 536 148 536 148 511 c 2,101,-1
 151 428 l 2,102,103
 154 347 154 347 154 318 c 2,104,-1
 151 220 l 1,105,-1
 148 89 l 1,71,-1
EndSplineSet
EndChar
StartChar: E
Encoding: 69 69 40
Width: 509
Flags: W
LayerCount: 2
Back
Fore
SplineSet
135 593 m 1,0,1
 134 514 134 514 134 499 c 2,2,-1
 132 401 l 1,3,4
 172 399 172 399 182 399 c 0,5,6
 193 400 193 400 250 403 c 0,7,8
 308 406 308 406 324 408 c 256,9,10
 340 410 340 410 360 415 c 0,11,12
 381 420 381 420 390 420 c 0,13,14
 406 419 406 419 413 415 c 256,15,16
 420 411 420 411 435 392 c 0,17,18
 450 375 450 375 450 368 c 2,19,-1
 450 367 l 2,20,21
 448 361 448 361 441 358 c 0,22,23
 437 356 437 356 432 356 c 0,24,25
 429 356 429 356 426 357 c 0,26,27
 421 357 421 357 396 359 c 0,28,29
 372 362 372 362 348 362 c 0,30,31
 347 361 347 361 280 357 c 2,32,-1
 218 354 l 1,33,-1
 192 353 l 2,34,35
 172 351 172 351 162 350 c 2,36,-1
 150 350 l 1,37,-1
 132 359 l 1,38,39
 132 305 132 305 130 267 c 0,40,41
 130 228 130 228 128 182 c 0,42,43
 126 137 126 137 125 125 c 2,44,-1
 125 120 l 2,45,46
 125 112 125 112 128 106 c 0,47,48
 130 103 130 103 138 103 c 0,49,50
 149 103 149 103 174 109 c 0,51,52
 188 111 188 111 238 115 c 2,53,-1
 310 123 l 2,54,55
 358 127 358 127 376 130 c 256,56,57
 394 133 394 133 402 133 c 0,58,59
 414 131 414 131 424 125 c 0,60,61
 433 119 433 119 453 101 c 0,62,63
 471 86 471 86 471 78 c 0,64,65
 471 76 471 76 470 75 c 0,66,67
 468 71 468 71 463 68 c 256,68,69
 458 65 458 65 450 65 c 2,70,-1
 431 65 l 2,71,72
 428 65 428 65 412 66 c 256,73,74
 396 67 396 67 381 67 c 0,75,76
 359 67 359 67 318 65 c 256,77,78
 277 63 277 63 238 62 c 0,79,80
 200 61 200 61 181 59 c 256,81,82
 162 57 162 57 148 54 c 0,83,84
 135 50 135 50 118 43 c 0,85,86
 105 39 105 39 97 39 c 2,87,-1
 92 39 l 2,88,89
 82 41 82 41 69 54 c 256,90,91
 56 67 56 67 53 80 c 0,92,93
 52 87 52 87 52 92 c 0,94,95
 52 98 52 98 53 103 c 2,96,-1
 61 121 l 2,97,98
 70 138 70 138 72 167 c 2,99,-1
 74 258 l 1,100,-1
 80 355 l 1,101,-1
 82 510 l 2,102,103
 83 533 83 533 83 546 c 0,104,105
 83 560 83 560 82 565 c 2,106,-1
 80 584 l 1,107,108
 68 587 68 587 57 591 c 256,109,110
 46 595 46 595 36 610 c 0,111,112
 27 623 27 623 27 629 c 2,113,-1
 27 631 l 2,114,115
 28 637 28 637 48 639 c 0,116,117
 55 640 55 640 68 640 c 2,118,-1
 97 640 l 2,119,120
 121 640 121 640 160 642 c 0,121,122
 211 645 211 645 238 647 c 0,123,124
 266 649 266 649 306 653 c 0,125,126
 347 658 347 658 370 663 c 0,127,128
 392 669 392 669 400 669 c 0,129,130
 411 667 411 667 426 661 c 0,131,132
 442 653 442 653 455 642 c 256,133,134
 468 631 468 631 468 625 c 256,135,136
 468 619 468 619 462 615 c 0,137,138
 457 612 457 612 446 612 c 2,139,-1
 440 612 l 2,140,141
 425 613 425 613 400 613 c 0,142,143
 377 612 377 612 329 610 c 0,144,145
 280 608 280 608 261 607 c 0,146,147
 242 605 242 605 181 599 c 2,148,-1
 135 593 l 1,0,1
EndSplineSet
EndChar
StartChar: F
Encoding: 70 70 41
Width: 497
Flags: W
LayerCount: 2
Back
Fore
SplineSet
154 409 m 1,0,1
 188 411 188 411 204 413 c 2,2,-1
 275 423 l 2,3,4
 304 426 304 426 324 434 c 256,5,6
 344 442 344 442 345 443 c 0,7,8
 356 443 356 443 373 435 c 256,9,10
 390 427 390 427 404 415 c 0,11,12
 418 401 418 401 418 397 c 0,13,14
 416 391 416 391 402 387 c 256,15,16
 388 383 388 383 336 379 c 2,17,-1
 275 372 l 1,18,-1
 205 367 l 1,19,-1
 155 361 l 1,20,-1
 155 231 l 2,21,22
 156 177 156 177 156 173 c 2,23,-1
 156 149 l 2,24,25
 156 119 156 119 155 104 c 256,26,27
 154 89 154 89 148 59 c 0,28,29
 141 29 141 29 134 29 c 2,30,-1
 133 29 l 2,31,32
 125 29 125 29 116 39 c 0,33,34
 106 47 106 47 97 64 c 256,35,36
 88 81 88 81 84 93 c 0,37,38
 83 99 83 99 83 108 c 256,39,40
 83 117 83 117 84 129 c 2,41,-1
 92 169 l 2,42,43
 96 197 96 197 98 240 c 2,44,-1
 101 379 l 2,45,46
 104 496 104 496 104 507 c 2,47,-1
 96 589 l 1,48,49
 84 582 84 582 77 582 c 2,50,-1
 75 582 l 2,51,52
 68 583 68 583 53 593 c 0,53,54
 38 604 38 604 33 615 c 0,55,56
 30 622 30 622 30 626 c 256,57,58
 30 630 30 630 32 633 c 0,59,60
 33 637 33 637 45 637 c 0,61,62
 50 637 50 637 56 636 c 0,63,64
 68 634 68 634 83 634 c 0,65,66
 93 634 93 634 104 635 c 0,67,68
 178 641 178 641 194 643 c 2,69,-1
 260 650 l 1,70,-1
 328 657 l 2,71,72
 358 661 358 661 378 667 c 0,73,74
 397 674 397 674 404 674 c 0,75,76
 417 673 417 673 431 664 c 0,77,78
 444 654 444 654 456 639 c 0,79,80
 464 627 464 627 464 620 c 0,81,82
 464 618 464 618 463 616 c 0,83,84
 460 609 460 609 436 609 c 2,85,-1
 384 614 l 1,86,-1
 378 614 l 2,87,88
 363 614 363 614 334 611 c 0,89,90
 297 607 297 607 252 605 c 0,91,92
 207 602 207 602 192 601 c 2,93,-1
 157 597 l 1,94,95
 164 589 164 589 168 584 c 256,96,97
 172 579 172 579 174 571 c 0,98,99
 175 569 175 569 175 566 c 0,100,101
 175 558 175 558 170 543 c 0,102,103
 165 521 165 521 162 483 c 2,104,-1
 156 437 l 1,105,-1
 154 409 l 1,0,1
EndSplineSet
EndChar
StartChar: G
Encoding: 71 71 42
Width: 573
Flags: W
LayerCount: 2
Back
Fore
SplineSet
393 323 m 1,0,1
 375 319 375 319 355 311 c 0,2,3
 339 306 339 306 331 306 c 2,4,-1
 327 306 l 2,5,6
 319 307 319 307 307 317 c 0,7,8
 297 325 297 325 288 337 c 0,9,10
 282 344 282 344 282 349 c 0,11,12
 282 351 282 351 283 353 c 0,13,14
 285 357 285 357 300 358 c 2,15,-1
 327 358 l 2,16,17
 337 358 337 358 381 367 c 2,18,-1
 443 379 l 2,19,20
 470 385 470 385 484 385 c 2,21,-1
 490 385 l 2,22,23
 501 384 501 384 510 379 c 0,24,25
 519 375 519 375 530 361 c 0,26,27
 539 349 539 349 539 344 c 2,28,-1
 539 342 l 2,29,30
 537 337 537 337 517 337 c 2,31,-1
 485 337 l 1,32,-1
 448 331 l 1,33,34
 447 293 447 293 447 275 c 2,35,-1
 447 219 l 2,36,37
 447 180 447 180 451 164 c 2,38,-1
 463 111 l 2,39,40
 462 101 462 101 458 88 c 0,41,42
 455 75 455 75 447 53 c 0,43,44
 440 31 440 31 430 31 c 2,45,-1
 429 31 l 2,46,47
 420 31 420 31 411 48 c 0,48,49
 403 65 403 65 402 91 c 2,50,-1
 397 191 l 1,51,52
 387 146 387 146 375 118 c 0,53,54
 363 89 363 89 338 68 c 256,55,56
 313 47 313 47 277 41 c 0,57,58
 264 39 264 39 250 39 c 0,59,60
 227 39 227 39 204 45 c 0,61,62
 167 55 167 55 133 77 c 256,63,64
 99 99 99 99 77 131 c 256,65,66
 55 163 55 163 43 209 c 256,67,68
 31 255 31 255 29 293 c 0,69,70
 27 322 27 322 27 352 c 2,71,-1
 27 372 l 2,72,73
 27 422 27 422 33 463 c 0,74,75
 39 503 39 503 57 545 c 256,76,77
 75 587 75 587 108 622 c 256,78,79
 141 657 141 657 175 665 c 256,80,81
 209 673 209 673 233 673 c 0,82,83
 253 673 253 673 281 669 c 0,84,85
 308 665 308 665 331 645 c 0,86,87
 353 625 353 625 361 625 c 0,88,89
 367 625 367 625 373 627 c 2,90,-1
 387 642 l 2,91,92
 397 650 397 650 403 650 c 0,93,94
 406 650 406 650 408 649 c 0,95,96
 415 646 415 646 419 633 c 0,97,98
 420 629 420 629 420 622 c 0,99,100
 420 607 420 607 417 581 c 2,101,-1
 412 545 l 2,102,103
 410 537 410 537 405 521 c 256,104,105
 400 505 400 505 393 501 c 0,106,107
 389 497 389 497 385 497 c 0,108,109
 382 497 382 497 378 499 c 0,110,111
 371 502 371 502 365 523 c 256,112,113
 359 544 359 544 348 563 c 0,114,115
 336 582 336 582 321 595 c 0,116,117
 305 608 305 608 283 617 c 256,118,119
 261 626 261 626 244 627 c 2,120,-1
 237 627 l 2,121,122
 209 627 209 627 183 613 c 0,123,124
 155 597 155 597 137 570 c 256,125,126
 119 543 119 543 105 503 c 0,127,128
 92 463 92 463 87 420 c 0,129,130
 84 385 84 385 84 350 c 2,131,-1
 84 333 l 2,132,133
 85 281 85 281 95 242 c 256,134,135
 105 203 105 203 122 173 c 256,136,137
 139 143 139 143 164 124 c 0,138,139
 188 105 188 105 219 99 c 0,140,141
 234 96 234 96 248 96 c 256,142,143
 262 96 262 96 274 99 c 0,144,145
 303 105 303 105 320 123 c 256,146,147
 337 141 337 141 354 181 c 256,148,149
 371 221 371 221 378 255 c 2,150,-1
 393 323 l 1,0,1
EndSplineSet
EndChar
StartChar: H
Encoding: 72 72 43
Width: 494
Flags: W
LayerCount: 2
Back
Fore
SplineSet
367 366 m 1,0,1
 359 367 359 367 352 367 c 0,2,3
 346 367 346 367 338 368 c 2,4,-1
 323 368 l 2,5,6
 306 368 306 368 287 367 c 0,7,8
 258 365 258 365 232 363 c 256,9,10
 206 361 206 361 189 358 c 256,11,12
 172 355 172 355 154 349 c 0,13,14
 141 345 141 345 136 345 c 2,15,-1
 134 345 l 1,16,-1
 106 359 l 1,17,18
 104 317 104 317 104 266 c 2,19,-1
 104 101 l 2,20,21
 104 85 104 85 100 57 c 256,22,23
 96 29 96 29 89 26 c 0,24,25
 87 25 87 25 84 25 c 0,26,27
 79 25 79 25 72 29 c 0,28,29
 60 34 60 34 52 45 c 0,30,31
 44 57 44 57 36 71 c 0,32,33
 28 86 28 86 27 96 c 0,34,35
 27 105 27 105 37 135 c 0,36,37
 44 155 44 155 47 193 c 256,38,39
 50 231 50 231 51 321 c 0,40,41
 52 410 52 410 52 469 c 0,42,43
 53 498 53 498 53 520 c 0,44,45
 53 541 53 541 52 555 c 0,46,47
 50 587 50 587 46 609 c 256,48,49
 42 631 42 631 34 645 c 256,50,51
 26 659 26 659 26 666 c 256,52,53
 26 673 26 673 30 678 c 0,54,55
 33 681 33 681 41 681 c 0,56,57
 47 681 47 681 54 680 c 0,58,59
 72 677 72 677 86 672 c 256,60,61
 100 667 100 667 110 659 c 0,62,63
 120 649 120 649 122 642 c 2,64,-1
 122 641 l 2,65,66
 122 636 122 636 115 616 c 0,67,68
 108 598 108 598 108 570 c 2,69,-1
 108 557 l 1,70,-1
 106 477 l 1,71,-1
 106 399 l 1,72,73
 124 399 124 399 136 401 c 0,74,75
 148 401 148 401 201 408 c 256,76,77
 254 415 254 415 273 417 c 0,78,79
 292 420 292 420 316 426 c 0,80,81
 332 430 332 430 339 430 c 0,82,83
 343 430 343 430 344 429 c 2,84,-1
 369 417 l 1,85,-1
 369 596 l 2,86,87
 368 619 368 619 366 628 c 0,88,89
 362 637 362 637 354 651 c 0,90,91
 346 663 346 663 346 670 c 2,92,-1
 346 672 l 2,93,94
 348 679 348 679 358 682 c 0,95,96
 361 683 361 683 365 683 c 0,97,98
 373 683 373 683 386 678 c 0,99,100
 388 677 388 677 408 669 c 256,101,102
 428 661 428 661 439 651 c 0,103,104
 450 643 450 643 451 634 c 2,105,-1
 451 632 l 2,106,107
 451 623 451 623 442 605 c 0,108,109
 433 589 433 589 430 569 c 0,110,111
 426 549 426 549 423 507 c 0,112,113
 421 483 421 483 421 436 c 0,114,115
 421 405 421 405 422 364 c 0,116,117
 422 282 422 282 424 233 c 2,118,-1
 428 120 l 2,119,120
 430 65 430 65 430 45 c 0,121,122
 431 40 431 40 431 36 c 0,123,124
 431 23 431 23 426 21 c 2,125,-1
 423 21 l 2,126,127
 417 21 417 21 406 26 c 0,128,129
 384 37 384 37 370 59 c 0,130,131
 356 80 356 80 354 91 c 2,132,-1
 354 96 l 2,133,134
 354 109 354 109 360 139 c 0,135,136
 364 157 364 157 365 186 c 0,137,138
 366 216 366 216 367 301 c 2,139,-1
 367 366 l 1,0,1
EndSplineSet
EndChar
StartChar: I
Encoding: 73 73 44
Width: 188
Flags: W
LayerCount: 2
Back
Fore
SplineSet
49 670 m 1,0,-1
 62 681 l 1,1,-1
 92 675 l 1,2,-1
 117 665 l 1,3,-1
 146 645 l 1,4,-1
 154 630 l 1,5,-1
 144 604 l 1,6,-1
 136 563 l 1,7,-1
 133 519 l 2,8,9
 130 479 130 479 130 327 c 2,10,-1
 130 151 l 1,11,-1
 128 105 l 2,12,13
 128 71 128 71 122 46 c 0,14,15
 116 22 116 22 106 22 c 2,16,-1
 105 22 l 2,17,18
 98 22 98 22 79 55 c 0,19,20
 60 87 60 87 54 102 c 0,21,22
 50 114 50 114 50 125 c 2,23,-1
 50 129 l 2,24,25
 50 135 50 135 56 153 c 0,26,27
 62 172 62 172 67 213 c 0,28,29
 73 253 73 253 74 346 c 0,30,31
 75 368 75 368 75 393 c 0,32,33
 75 419 75 419 74 449 c 0,34,35
 74 508 74 508 75 531 c 2,36,-1
 76 587 l 1,37,-1
 68 627 l 1,38,-1
 56 649 l 1,39,-1
 49 670 l 1,0,-1
EndSplineSet
EndChar
StartChar: J
Encoding: 74 74 45
Width: 409
Flags: W
LayerCount: 2
Back
Fore
SplineSet
268 677 m 0,0,1
 269 682 269 682 280 686 c 0,2,3
 283 687 283 687 287 687 c 0,4,5
 296 687 296 687 310 682 c 0,6,7
 326 676 326 676 342 669 c 0,8,9
 359 662 359 662 366 655 c 0,10,11
 372 648 372 648 372 643 c 2,12,-1
 372 642 l 2,13,14
 372 636 372 636 364 612 c 0,15,16
 361 605 361 605 359 588 c 2,17,-1
 354 549 l 2,18,19
 352 531 352 531 352 481 c 2,20,-1
 349 307 l 2,21,22
 348 213 348 213 346 183 c 256,23,24
 344 153 344 153 333 124 c 256,25,26
 322 95 322 95 300 75 c 256,27,28
 278 55 278 55 236 43 c 0,29,30
 211 37 211 37 186 37 c 0,31,32
 169 37 169 37 151 40 c 0,33,34
 118 45 118 45 94 61 c 0,35,36
 70 76 70 76 56 98 c 0,37,38
 44 119 44 119 40 153 c 2,39,-1
 35 221 l 2,40,41
 31 246 31 246 31 263 c 0,42,43
 31 278 31 278 34 287 c 0,44,45
 39 305 39 305 48 305 c 2,46,-1
 50 305 l 2,47,48
 55 305 55 305 61 295 c 0,49,50
 68 287 68 287 69 265 c 2,51,-1
 74 211 l 2,52,53
 77 163 77 163 87 139 c 0,54,55
 96 115 96 115 122 101 c 0,56,57
 142 90 142 90 173 90 c 0,58,59
 182 90 182 90 192 91 c 0,60,61
 216 92 216 92 240 101 c 0,62,63
 264 111 264 111 278 139 c 0,64,65
 292 168 292 168 294 209 c 2,66,-1
 294 269 l 2,67,68
 293 313 293 313 293 357 c 0,69,70
 294 400 294 400 294 476 c 0,71,72
 295 514 295 514 295 540 c 0,73,74
 295 567 295 567 294 583 c 0,75,76
 292 614 292 614 288 625 c 0,77,78
 284 637 284 637 276 656 c 0,79,80
 268 676 268 676 268 677 c 0,0,1
EndSplineSet
EndChar
StartChar: K
Encoding: 75 75 46
Width: 553
Flags: W
LayerCount: 2
Back
Fore
SplineSet
106 395 m 1,0,1
 141 423 141 423 158 438 c 2,2,-1
 225 497 l 2,3,4
 263 529 263 529 275 543 c 0,5,6
 288 556 288 556 309 581 c 0,7,8
 329 605 329 605 338 618 c 256,9,10
 347 631 347 631 353 651 c 256,11,12
 359 671 359 671 362 674 c 256,13,14
 365 677 365 677 369 679 c 0,15,16
 370 680 370 680 371 680 c 0,17,18
 375 680 375 680 381 675 c 0,19,20
 387 671 387 671 394 660 c 0,21,22
 400 649 400 649 411 623 c 0,23,24
 419 604 419 604 419 592 c 0,25,26
 419 588 419 588 418 585 c 0,27,28
 415 573 415 573 409 568 c 256,29,30
 403 563 403 563 385 557 c 0,31,32
 367 549 367 549 345 530 c 256,33,34
 323 511 323 511 301 493 c 256,35,36
 279 475 279 475 275 471 c 2,37,-1
 249 447 l 1,38,39
 268 399 268 399 279 372 c 0,40,41
 290 346 290 346 322 275 c 0,42,43
 354 205 354 205 372 172 c 256,44,45
 390 139 390 139 408 123 c 0,46,47
 425 107 425 107 448 97 c 256,48,49
 471 87 471 87 495 79 c 0,50,51
 520 71 520 71 521 65 c 0,52,53
 521 58 521 58 511 51 c 0,54,55
 505 46 505 46 492 46 c 2,56,-1
 487 46 l 2,57,58
 471 46 471 46 442 43 c 0,59,60
 423 40 423 40 407 40 c 0,61,62
 400 40 400 40 393 41 c 0,63,64
 368 43 368 43 355 53 c 0,65,66
 342 62 342 62 331 86 c 0,67,68
 319 110 319 110 304 161 c 256,69,70
 289 212 289 212 278 242 c 0,71,72
 268 271 268 271 247 328 c 2,73,-1
 213 421 l 1,74,75
 173 392 173 392 167 387 c 2,76,-1
 105 345 l 1,77,-1
 105 285 l 1,78,-1
 103 161 l 1,79,-1
 104 133 l 2,80,81
 104 110 104 110 103 92 c 0,82,83
 101 84 101 84 98 57 c 0,84,85
 94 30 94 30 89 26 c 0,86,87
 83 23 83 23 78 21 c 0,88,89
 73 21 73 21 61 39 c 0,90,91
 43 65 43 65 37 77 c 256,92,93
 31 89 31 89 30 100 c 2,94,-1
 30 102 l 2,95,96
 30 113 30 113 39 138 c 0,97,98
 48 166 48 166 51 192 c 0,99,100
 53 217 53 217 53 273 c 2,101,-1
 53 391 l 2,102,103
 53 454 53 454 54 485 c 256,104,105
 55 516 55 516 55 529 c 2,106,-1
 52 570 l 1,107,-1
 51 599 l 2,108,109
 49 617 49 617 45 627 c 256,110,111
 41 637 41 637 33 650 c 0,112,113
 26 662 26 662 26 668 c 2,114,-1
 26 669 l 2,115,116
 28 675 28 675 39 679 c 1,117,-1
 43 679 l 2,118,119
 52 679 52 679 72 672 c 0,120,121
 96 663 96 663 103 659 c 0,122,123
 111 655 111 655 117 647 c 0,124,125
 125 639 125 639 126 633 c 2,126,-1
 126 632 l 2,127,128
 126 625 126 625 117 601 c 0,129,130
 109 584 109 584 109 557 c 2,131,-1
 109 514 l 1,132,-1
 107 466 l 1,133,-1
 107 419 l 1,134,-1
 106 395 l 1,0,1
EndSplineSet
EndChar
StartChar: L
Encoding: 76 76 47
Width: 471
Flags: W
LayerCount: 2
Back
Fore
SplineSet
30 670 m 0,0,1
 31 675 31 675 41 679 c 0,2,3
 44 680 44 680 49 680 c 0,4,5
 58 680 58 680 73 675 c 0,6,7
 99 665 99 665 109 660 c 0,8,9
 119 656 119 656 125 649 c 0,10,11
 131 641 131 641 132 634 c 2,12,-1
 132 632 l 2,13,14
 132 625 132 625 125 605 c 0,15,16
 115 584 115 584 111 552 c 0,17,18
 107 521 107 521 107 429 c 2,19,-1
 106 299 l 2,20,21
 105 205 105 205 103 172 c 0,22,23
 102 156 102 156 102 144 c 256,24,25
 102 132 102 132 103 125 c 0,26,27
 104 107 104 107 111 99 c 0,28,29
 117 93 117 93 139 93 c 2,30,-1
 145 93 l 2,31,32
 171 95 171 95 213 103 c 0,33,34
 257 113 257 113 277 116 c 256,35,36
 297 119 297 119 316 120 c 0,37,38
 326 121 326 121 335 121 c 0,39,40
 345 121 345 121 354 120 c 0,41,42
 375 119 375 119 385 115 c 0,43,44
 395 112 395 112 414 95 c 0,45,46
 433 79 433 79 433 71 c 2,47,-1
 433 70 l 2,48,49
 433 63 433 63 427 57 c 0,50,51
 423 54 423 54 414 54 c 0,52,53
 409 54 409 54 403 55 c 0,54,55
 381 57 381 57 343 59 c 0,56,57
 317 60 317 60 299 60 c 2,58,-1
 283 60 l 2,59,60
 269 59 269 59 198 51 c 256,61,62
 127 43 127 43 101 38 c 0,63,64
 85 35 85 35 72 35 c 0,65,66
 64 35 64 35 58 36 c 0,67,68
 41 39 41 39 34 50 c 0,69,70
 30 56 30 56 30 65 c 0,71,72
 30 73 30 73 33 84 c 2,73,-1
 43 118 l 2,74,75
 47 135 47 135 47 160 c 0,76,77
 48 185 48 185 50 250 c 0,78,79
 53 315 53 315 53 369 c 2,80,-1
 53 481 l 2,81,82
 54 520 54 520 54 545 c 256,83,84
 54 570 54 570 53 581 c 0,85,86
 51 610 51 610 48 621 c 0,87,88
 45 633 45 633 37 651 c 0,89,90
 30 669 30 669 30 670 c 0,0,1
EndSplineSet
EndChar
StartChar: M
Encoding: 77 77 48
Width: 614
Flags: W
LayerCount: 2
Back
Fore
SplineSet
127 571 m 1,0,1
 122 515 122 515 121 488 c 0,2,3
 119 461 119 461 117 398 c 256,4,5
 115 335 115 335 113 297 c 2,6,-1
 106 199 l 2,7,8
 103 159 103 159 101 119 c 256,9,10
 99 79 99 79 96 55 c 256,11,12
 93 31 93 31 85 27 c 0,13,14
 84 26 84 26 82 26 c 0,15,16
 73 26 73 26 55 47 c 0,17,18
 43 59 43 59 35 78 c 0,19,20
 27 95 27 95 27 109 c 2,21,-1
 27 112 l 2,22,23
 27 119 27 119 36 143 c 256,24,25
 45 167 45 167 50 195 c 256,26,27
 55 223 55 223 57 259 c 2,28,-1
 63 341 l 1,29,-1
 69 447 l 1,30,-1
 75 539 l 2,31,32
 80 609 80 609 80 631 c 2,33,-1
 80 635 l 2,34,35
 80 654 80 654 89 668 c 0,36,37
 98 680 98 680 111 680 c 2,38,-1
 115 680 l 2,39,40
 127 678 127 678 140 655 c 0,41,42
 152 631 152 631 167 587 c 0,43,44
 183 543 183 543 197 505 c 2,45,-1
 231 412 l 2,46,47
 239 390 239 390 260 329 c 0,48,49
 281 267 281 267 291 232 c 256,50,51
 301 197 301 197 309 197 c 0,52,53
 315 197 315 197 333 251 c 256,54,55
 351 305 351 305 362 337 c 2,56,-1
 395 441 l 2,57,58
 414 503 414 503 425 535 c 0,59,60
 437 567 437 567 455 614 c 0,61,62
 472 661 472 661 485 673 c 0,63,64
 496 682 496 682 506 682 c 2,65,-1
 509 682 l 2,66,67
 519 679 519 679 527 663 c 256,68,69
 535 647 535 647 536 627 c 256,70,71
 537 607 537 607 542 509 c 2,72,-1
 545 429 l 2,73,74
 545 421 545 421 552 324 c 256,75,76
 559 227 559 227 561 199 c 0,77,78
 564 170 564 170 573 145 c 0,79,80
 581 121 581 121 581 112 c 2,81,-1
 581 109 l 2,82,83
 581 100 581 100 577 88 c 0,84,85
 571 69 571 69 557 47 c 256,86,87
 543 25 543 25 537 25 c 0,88,89
 526 25 526 25 521 49 c 0,90,91
 515 73 515 73 514 116 c 2,92,-1
 505 205 l 1,93,-1
 499 315 l 2,94,95
 491 423 491 423 491 487 c 2,96,-1
 491 511 l 2,97,98
 492 539 492 539 492 555 c 0,99,100
 492 573 492 573 490 573 c 0,101,102
 486 570 486 570 475 537 c 0,103,104
 465 504 465 504 446 445 c 2,105,-1
 414 347 l 2,106,107
 413 343 413 343 382 256 c 0,108,109
 352 168 352 168 343 141 c 0,110,111
 335 113 335 113 326 92 c 256,112,113
 317 71 317 71 309 71 c 0,114,115
 300 71 300 71 291 89 c 0,116,117
 281 106 281 106 271 137 c 0,118,119
 261 169 261 169 250 203 c 0,120,121
 239 236 239 236 203 347 c 256,122,123
 167 458 167 458 147 513 c 0,124,125
 127 569 127 569 127 571 c 1,0,1
EndSplineSet
EndChar
StartChar: N
Encoding: 78 78 49
Width: 509
Flags: W
LayerCount: 2
Back
Fore
SplineSet
113 573 m 1,0,1
 116 491 116 491 116 459 c 0,2,3
 115 427 115 427 113 356 c 0,4,5
 111 284 111 284 109 214 c 0,6,7
 108 143 108 143 105 116 c 0,8,9
 103 88 103 88 99 67 c 0,10,11
 95 47 95 47 90 37 c 0,12,13
 85 26 85 26 81 23 c 2,14,-1
 80 23 l 2,15,16
 75 23 75 23 62 41 c 0,17,18
 43 67 43 67 36 97 c 0,19,20
 29 122 29 122 29 133 c 2,21,-1
 29 135 l 2,22,23
 29 141 29 141 39 163 c 256,24,25
 49 185 49 185 52 201 c 0,26,27
 54 212 54 212 54 236 c 2,28,-1
 54 253 l 2,29,30
 54 291 54 291 58 361 c 0,31,32
 60 403 60 403 60 471 c 0,33,34
 61 539 61 539 63 581 c 0,35,36
 66 625 66 625 66 641 c 0,37,38
 67 657 67 657 75 669 c 0,39,40
 83 679 83 679 96 679 c 2,41,-1
 98 679 l 2,42,43
 109 678 109 678 126 654 c 256,44,45
 143 630 143 630 177 565 c 2,46,-1
 235 454 l 2,47,48
 302 325 302 325 310 313 c 2,49,-1
 359 227 l 1,50,-1
 395 159 l 1,51,52
 393 258 393 258 392 334 c 0,53,54
 391 409 391 409 391 467 c 2,55,-1
 391 532 l 2,56,57
 390 570 390 570 387 599 c 0,58,59
 385 627 385 627 381 638 c 2,60,-1
 369 666 l 1,61,-1
 369 673 l 2,62,63
 370 675 370 675 375 679 c 0,64,65
 378 681 378 681 385 681 c 0,66,67
 390 681 390 681 397 680 c 0,68,69
 412 677 412 677 433 669 c 0,70,71
 453 661 453 661 462 651 c 256,72,73
 471 641 471 641 472 637 c 2,74,-1
 474 629 l 2,75,76
 474 625 474 625 473 619 c 0,77,78
 471 617 471 617 465 600 c 256,79,80
 459 583 459 583 455 563 c 256,81,82
 451 543 451 543 449 501 c 0,83,84
 447 460 447 460 446 439 c 0,85,86
 445 419 445 419 445 336 c 0,87,88
 445 254 445 254 444 187 c 2,89,-1
 444 84 l 2,90,91
 444 59 444 59 436 43 c 0,92,93
 427 25 427 25 418 24 c 2,94,-1
 417 24 l 2,95,96
 408 24 408 24 392 54 c 2,97,-1
 364 105 l 2,98,99
 355 121 355 121 316 197 c 0,100,101
 277 272 277 272 225 369 c 2,102,-1
 167 473 l 1,103,-1
 113 573 l 1,0,1
EndSplineSet
EndChar
StartChar: O
Encoding: 79 79 50
Width: 484
Flags: W
LayerCount: 2
Back
Fore
SplineSet
237 671 m 1,0,-1
 244 671 l 2,1,2
 285 671 285 671 318 650 c 0,3,4
 355 627 355 627 378 591 c 0,5,6
 402 555 402 555 423 496 c 256,7,8
 444 437 444 437 444 355 c 256,9,10
 444 273 444 273 417 198 c 0,11,12
 389 123 389 123 340 81 c 0,13,14
 292 41 292 41 240 41 c 2,15,-1
 237 41 l 2,16,17
 182 41 182 41 134 82 c 0,18,19
 84 123 84 123 57 197 c 0,20,21
 30 272 30 272 30 355 c 0,22,23
 30 437 30 437 58 515 c 0,24,25
 86 594 86 594 136 631 c 0,26,27
 186 667 186 667 237 671 c 1,0,-1
237 633 m 256,28,29
 206 633 206 633 168 600 c 256,30,31
 130 567 130 567 110 499 c 0,32,33
 90 430 90 430 89 360 c 0,34,35
 89 291 89 291 110 224 c 0,36,37
 122 180 122 180 144 147 c 0,38,39
 166 113 166 113 191 99 c 0,40,41
 217 85 217 85 246 85 c 0,42,43
 274 85 274 85 310 122 c 0,44,45
 345 157 345 157 365 223 c 0,46,47
 384 288 384 288 384 358 c 0,48,49
 384 425 384 425 364 496 c 256,50,51
 344 567 344 567 306 600 c 256,52,53
 268 633 268 633 237 633 c 256,28,29
EndSplineSet
EndChar
StartChar: P
Encoding: 80 80 51
Width: 464
Flags: W
LayerCount: 2
Back
Fore
SplineSet
139 301 m 1,0,1
 139 201 139 201 142 158 c 256,2,3
 145 115 145 115 145 103 c 2,4,-1
 140 50 l 2,5,6
 138 25 138 25 133 21 c 256,7,8
 128 17 128 17 121 15 c 2,9,-1
 120 15 l 2,10,11
 114 15 114 15 99 33 c 0,12,13
 81 54 81 54 75 67 c 0,14,15
 67 81 67 81 66 93 c 2,16,-1
 66 97 l 2,17,18
 66 109 66 109 71 135 c 0,19,20
 78 166 78 166 80 191 c 0,21,22
 81 217 81 217 81 361 c 2,23,-1
 81 434 l 1,24,-1
 78 525 l 1,25,-1
 77 588 l 1,26,27
 65 593 65 593 55 598 c 256,28,29
 45 603 45 603 33 619 c 0,30,31
 23 631 23 631 23 638 c 0,32,33
 23 640 23 640 24 641 c 0,34,35
 27 647 27 647 53 648 c 256,36,37
 79 649 79 649 129 653 c 256,38,39
 179 657 179 657 213 659 c 0,40,41
 248 659 248 659 283 657 c 0,42,43
 317 656 317 656 335 650 c 0,44,45
 353 645 353 645 372 629 c 0,46,47
 391 614 391 614 406 585 c 0,48,49
 421 557 421 557 425 525 c 0,50,51
 427 512 427 512 427 498 c 0,52,53
 427 477 427 477 423 453 c 0,54,55
 415 411 415 411 399 386 c 256,56,57
 383 361 383 361 357 341 c 0,58,59
 331 323 331 323 302 313 c 0,60,61
 273 305 273 305 233 301 c 0,62,63
 206 298 206 298 191 298 c 0,64,65
 184 298 184 298 179 299 c 2,66,-1
 139 301 l 1,0,1
138 347 m 1,67,-1
 193 347 l 2,68,69
 217 348 217 348 252 356 c 0,70,71
 287 363 287 363 311 383 c 256,72,73
 335 403 335 403 349 435 c 0,74,75
 361 460 361 460 361 492 c 0,76,77
 361 499 361 499 360 506 c 0,78,79
 358 530 358 530 348 553 c 0,80,81
 339 575 339 575 317 592 c 256,82,83
 295 609 295 609 254 613 c 1,84,-1
 239 613 l 2,85,86
 208 613 208 613 181 607 c 2,87,-1
 138 598 l 1,88,89
 137 545 137 545 137 519 c 2,90,-1
 139 441 l 1,91,-1
 138 347 l 1,67,-1
EndSplineSet
EndChar
StartChar: Q
Encoding: 81 81 52
Width: 512
Flags: W
LayerCount: 2
Back
Fore
SplineSet
292 55 m 1,0,1
 276 50 276 50 263 47 c 0,2,3
 250 43 250 43 216 43 c 2,4,-1
 214 43 l 2,5,6
 182 43 182 43 132 85 c 0,7,8
 84 125 84 125 56 194 c 256,9,10
 28 263 28 263 28 353 c 0,11,12
 28 439 28 439 56 515 c 0,13,14
 84 590 84 590 132 631 c 0,15,16
 181 671 181 671 238 674 c 2,17,-1
 242 674 l 2,18,19
 289 674 289 674 322 652 c 0,20,21
 356 629 356 629 378 596 c 256,22,23
 400 563 400 563 415 527 c 256,24,25
 430 491 430 491 437 445 c 256,26,27
 444 399 444 399 446 345 c 0,28,29
 446 292 446 292 436 243 c 0,30,31
 428 205 428 205 408 162 c 0,32,33
 389 119 389 119 372 102 c 2,34,-1
 342 71 l 1,35,36
 344 37 344 37 344 15 c 2,37,-1
 344 1 l 2,38,39
 344 -12 344 -12 345 -21 c 0,40,41
 347 -35 347 -35 362 -48 c 0,42,43
 373 -58 373 -58 385 -58 c 0,44,45
 388 -58 388 -58 392 -57 c 0,46,47
 403 -55 403 -55 413 -41 c 0,48,49
 424 -27 424 -27 431 7 c 256,50,51
 438 41 438 41 448 41 c 0,52,53
 457 41 457 41 464 35 c 0,54,55
 470 29 470 29 470 9 c 0,56,57
 470 -21 470 -21 462 -42 c 256,58,59
 454 -63 454 -63 440 -76 c 0,60,61
 428 -89 428 -89 409 -97 c 0,62,63
 396 -102 396 -102 382 -102 c 0,64,65
 375 -102 375 -102 368 -101 c 0,66,67
 340 -98 340 -98 324 -81 c 256,68,69
 308 -64 308 -64 302 -42 c 0,70,71
 296 -19 296 -19 296 -9 c 2,72,-1
 292 55 l 1,0,1
150 133 m 1,73,74
 154 163 154 163 159 180 c 0,75,76
 164 196 164 196 172 208 c 256,77,78
 180 220 180 220 194 230 c 0,79,80
 208 241 208 241 222 244 c 0,81,82
 227 245 227 245 233 245 c 0,83,84
 251 245 251 245 276 234 c 0,85,86
 310 219 310 219 319 190 c 2,87,-1
 340 135 l 1,88,89
 358 182 358 182 371 225 c 0,90,91
 383 266 383 266 383 343 c 2,92,-1
 383 355 l 2,93,94
 382 437 382 437 364 497 c 0,95,96
 346 558 346 558 312 593 c 0,97,98
 278 629 278 629 241 630 c 2,99,-1
 239 630 l 2,100,101
 203 630 203 630 166 593 c 0,102,103
 129 558 129 558 109 495 c 0,104,105
 89 433 89 433 88 360 c 2,106,-1
 88 344 l 2,107,108
 88 256 88 256 108 220 c 2,109,-1
 150 133 l 1,73,74
182 107 m 1,110,111
 193 96 193 96 213 83 c 0,112,113
 223 77 223 77 234 77 c 0,114,115
 246 77 246 77 260 83 c 2,116,-1
 291 95 l 1,117,118
 290 109 290 109 282 153 c 0,119,120
 275 196 275 196 239 196 c 2,121,-1
 237 196 l 2,122,123
 200 195 200 195 197 165 c 1,124,-1
 182 107 l 1,110,111
EndSplineSet
EndChar
StartChar: R
Encoding: 82 82 53
Width: 570
Flags: W
LayerCount: 2
Back
Fore
SplineSet
323 357 m 1,0,1
 338 345 338 345 350 334 c 0,2,3
 363 323 363 323 371 303 c 0,4,5
 381 282 381 282 381 260 c 0,6,7
 381 237 381 237 379 209 c 0,8,9
 377 183 377 183 371 157 c 0,10,11
 367 140 367 140 367 128 c 0,12,13
 367 121 367 121 369 115 c 0,14,15
 373 101 373 101 386 93 c 0,16,17
 398 86 398 86 421 86 c 2,18,-1
 427 86 l 2,19,20
 458 87 458 87 473 98 c 0,21,22
 487 108 487 108 497 132 c 256,23,24
 507 156 507 156 509 187 c 0,25,26
 510 218 510 218 515 235 c 0,27,28
 521 251 521 251 527 251 c 0,29,30
 533 249 533 249 539 239 c 0,31,32
 544 231 544 231 544 212 c 0,33,34
 544 206 544 206 543 199 c 2,35,-1
 541 147 l 2,36,37
 538 115 538 115 528 92 c 0,38,39
 517 68 517 68 501 55 c 0,40,41
 484 43 484 43 462 38 c 0,42,43
 452 36 452 36 438 36 c 0,44,45
 425 36 425 36 408 38 c 0,46,47
 375 41 375 41 357 51 c 256,48,49
 339 61 339 61 331 75 c 256,50,51
 323 89 323 89 321 109 c 0,52,53
 320 115 320 115 320 122 c 0,54,55
 320 141 320 141 324 170 c 0,56,57
 329 211 329 211 331 240 c 0,58,59
 331 268 331 268 320 291 c 0,60,61
 307 316 307 316 291 323 c 2,62,-1
 251 342 l 1,63,64
 213 339 213 339 205 339 c 2,65,-1
 171 337 l 1,66,67
 170 293 170 293 169 247 c 0,68,69
 168 216 168 216 168 190 c 2,70,-1
 168 165 l 2,71,72
 169 130 169 130 169 117 c 0,73,74
 169 105 169 105 167 87 c 0,75,76
 166 75 166 75 163 51 c 0,77,78
 159 27 159 27 153 23 c 0,79,80
 148 19 148 19 142 17 c 2,81,-1
 141 17 l 2,82,83
 135 17 135 17 121 37 c 0,84,85
 108 55 108 55 104 64 c 0,86,87
 100 74 100 74 100 82 c 2,88,-1
 100 84 l 2,89,90
 100 93 100 93 107 119 c 0,91,92
 110 137 110 137 111 177 c 0,93,94
 113 217 113 217 113 239 c 2,95,-1
 115 451 l 1,96,-1
 115 488 l 1,97,-1
 113 515 l 2,98,99
 112 563 112 563 111 567 c 2,100,-1
 107 595 l 1,101,102
 89 591 89 591 77 591 c 2,103,-1
 70 591 l 2,104,105
 57 593 57 593 46 603 c 256,106,107
 35 613 35 613 29 623 c 0,108,109
 24 632 24 632 24 636 c 2,110,-1
 24 637 l 2,111,112
 25 639 25 639 28 642 c 0,113,114
 30 644 30 644 41 644 c 2,115,-1
 59 644 l 2,116,117
 74 644 74 644 93 646 c 0,118,119
 119 649 119 649 153 651 c 2,120,-1
 239 657 l 2,121,122
 286 661 286 661 307 661 c 0,123,124
 347 661 347 661 376 653 c 256,125,126
 405 645 405 645 427 625 c 256,127,128
 449 605 449 605 458 571 c 0,129,130
 465 546 465 546 465 519 c 0,131,132
 465 510 465 510 464 501 c 0,133,134
 461 469 461 469 449 445 c 0,135,136
 437 422 437 422 412 400 c 0,137,138
 387 377 387 377 367 371 c 2,139,-1
 323 357 l 1,0,1
171 391 m 1,140,141
 203 391 203 391 227 393 c 0,142,143
 249 395 249 395 280 401 c 0,144,145
 310 407 310 407 335 418 c 0,146,147
 359 429 359 429 377 451 c 256,148,149
 395 473 395 473 400 505 c 0,150,151
 402 517 402 517 402 527 c 0,152,153
 402 546 402 546 396 561 c 0,154,155
 385 587 385 587 366 598 c 256,156,157
 347 609 347 609 305 609 c 0,158,159
 239 609 239 609 225 608 c 2,160,-1
 167 603 l 1,161,162
 173 577 173 577 174 563 c 2,163,-1
 174 552 l 2,164,165
 174 538 174 538 173 513 c 0,166,167
 171 475 171 475 171 433 c 2,168,-1
 171 391 l 1,140,141
EndSplineSet
EndChar
StartChar: S
Encoding: 83 83 54
Width: 436
Flags: W
LayerCount: 2
Back
Fore
SplineSet
251 92 m 0,0,1
 292 97 292 97 314 121 c 0,2,3
 336 143 336 143 342 182 c 0,4,5
 345 199 345 199 345 213 c 0,6,7
 345 232 345 232 340 247 c 0,8,9
 332 274 332 274 308 295 c 0,10,11
 285 317 285 317 258 329 c 0,12,13
 230 341 230 341 186 359 c 0,14,15
 142 376 142 376 116 391 c 0,16,17
 89 406 89 406 69 427 c 0,18,19
 50 447 50 447 39 481 c 0,20,21
 35 494 35 494 35 510 c 0,22,23
 35 533 35 533 44 561 c 0,24,25
 55 595 55 595 80 620 c 0,26,27
 106 645 106 645 132 655 c 0,28,29
 159 665 159 665 190 667 c 0,30,31
 198 668 198 668 206 668 c 0,32,33
 228 668 228 668 246 663 c 0,34,35
 270 657 270 657 289 649 c 0,36,37
 308 640 308 640 322 627 c 0,38,39
 334 615 334 615 338 615 c 0,40,41
 339 615 339 615 340 616 c 0,42,43
 344 617 344 617 348 626 c 2,44,-1
 355 647 l 2,45,46
 362 659 362 659 371 659 c 2,47,-1
 373 659 l 2,48,49
 383 658 383 658 389 643 c 0,50,51
 391 635 391 635 391 621 c 2,52,-1
 391 549 l 2,53,54
 391 527 391 527 388 513 c 0,55,56
 384 495 384 495 378 492 c 0,57,58
 377 491 377 491 375 491 c 0,59,60
 369 491 369 491 358 503 c 0,61,62
 355 505 355 505 340 539 c 0,63,64
 325 571 325 571 291 594 c 0,65,66
 256 617 256 617 222 621 c 0,67,68
 214 622 214 622 207 622 c 0,69,70
 177 622 177 622 152 609 c 0,71,72
 121 593 121 593 104 563 c 0,73,74
 93 543 93 543 93 522 c 0,75,76
 93 511 93 511 96 500 c 0,77,78
 103 473 103 473 126 452 c 0,79,80
 150 432 150 432 199 411 c 0,81,82
 248 391 248 391 280 375 c 0,83,84
 312 360 312 360 342 337 c 0,85,86
 373 315 373 315 387 287 c 0,87,88
 401 260 401 260 403 222 c 0,89,90
 404 213 404 213 404 204 c 0,91,92
 404 175 404 175 396 150 c 0,93,94
 387 119 387 119 368 95 c 256,95,96
 349 71 349 71 319 57 c 0,97,98
 290 43 290 43 250 41 c 2,99,-1
 237 41 l 2,100,101
 198 41 198 41 168 51 c 0,102,103
 132 65 132 65 110 82 c 0,104,105
 88 100 88 100 72 120 c 0,106,107
 56 139 56 139 50 151 c 256,108,109
 44 163 44 163 39 177 c 0,110,111
 35 187 35 187 35 195 c 0,112,113
 35 198 35 198 36 201 c 0,114,115
 37 211 37 211 44 213 c 2,116,-1
 47 213 l 2,117,118
 54 213 54 213 62 207 c 0,119,120
 66 203 66 203 78 183 c 0,121,122
 89 163 89 163 112 143 c 0,123,124
 135 125 135 125 158 111 c 0,125,126
 182 99 182 99 208 94 c 0,127,128
 225 91 225 91 237 91 c 0,129,130
 245 91 245 91 251 92 c 0,0,1
EndSplineSet
EndChar
StartChar: T
Encoding: 84 84 55
Width: 511
Flags: W
LayerCount: 2
Back
Fore
SplineSet
212 601 m 1,0,1
 189 598 189 598 173 596 c 0,2,3
 157 593 157 593 131 589 c 0,4,5
 114 586 114 586 102 586 c 0,6,7
 96 586 96 586 91 587 c 0,8,9
 75 589 75 589 59 600 c 0,10,11
 42 611 42 611 34 623 c 0,12,13
 27 634 27 634 27 640 c 2,14,-1
 27 641 l 2,15,16
 27 647 27 647 48 647 c 2,17,-1
 60 647 l 1,18,-1
 106 645 l 1,19,-1
 116 645 l 2,20,21
 146 645 146 645 209 649 c 0,22,23
 284 653 284 653 315 655 c 0,24,25
 347 657 347 657 373 662 c 0,26,27
 395 667 395 667 406 667 c 2,28,-1
 409 667 l 2,29,30
 418 665 418 665 433 659 c 256,31,32
 448 653 448 653 461 642 c 0,33,34
 471 633 471 633 471 625 c 2,35,-1
 471 623 l 2,36,37
 469 615 469 615 447 611 c 0,38,39
 435 609 435 609 411 609 c 256,40,41
 387 609 387 609 351 606 c 0,42,43
 324 604 324 604 313 604 c 2,44,-1
 264 604 l 1,45,46
 277 589 277 589 285 578 c 0,47,48
 291 567 291 567 293 557 c 0,49,50
 293 547 293 547 286 517 c 0,51,52
 281 501 281 501 278 471 c 0,53,54
 274 443 274 443 273 414 c 2,55,-1
 273 320 l 2,56,57
 273 255 273 255 271 203 c 0,58,59
 270 168 270 168 270 146 c 2,60,-1
 270 99 l 2,61,62
 269 83 269 83 265 63 c 0,63,64
 261 42 261 42 256 37 c 0,65,66
 250 33 250 33 245 33 c 2,67,-1
 244 33 l 2,68,69
 239 33 239 33 231 46 c 0,70,71
 221 58 221 58 214 69 c 256,72,73
 207 80 207 80 201 92 c 256,74,75
 195 104 195 104 195 114 c 256,76,77
 195 124 195 124 203 150 c 0,78,79
 207 165 207 165 210 186 c 0,80,81
 214 207 214 207 217 256 c 0,82,83
 221 305 221 305 221 347 c 2,84,-1
 221 397 l 1,85,-1
 222 442 l 1,86,-1
 222 481 l 2,87,88
 221 525 221 525 219 539 c 2,89,-1
 212 601 l 1,0,1
EndSplineSet
EndChar
StartChar: U
Encoding: 85 85 56
Width: 479
Flags: W
LayerCount: 2
Back
Fore
SplineSet
131 627 m 0,0,1
 130 625 130 625 129 620 c 256,2,3
 128 615 128 615 122 601 c 256,4,5
 116 587 116 587 112 563 c 0,6,7
 108 540 108 540 104 509 c 0,8,9
 101 477 101 477 101 417 c 0,10,11
 102 387 102 387 102 361 c 256,12,13
 102 335 102 335 101 313 c 0,14,15
 101 270 101 270 102 253 c 0,16,17
 102 207 102 207 108 179 c 0,18,19
 114 152 114 152 129 132 c 256,20,21
 144 112 144 112 169 101 c 256,22,23
 194 90 194 90 232 89 c 0,24,25
 278 89 278 89 304 103 c 256,26,27
 330 117 330 117 346 145 c 0,28,29
 362 174 362 174 364 206 c 0,30,31
 366 239 366 239 366 265 c 2,32,-1
 366 354 l 2,33,34
 367 385 367 385 367 411 c 0,35,36
 367 436 367 436 366 456 c 2,37,-1
 366 500 l 1,38,-1
 368 583 l 2,39,40
 367 611 367 611 363 620 c 256,41,42
 359 629 359 629 349 647 c 0,43,44
 341 660 341 660 341 667 c 0,45,46
 341 669 341 669 342 670 c 0,47,48
 346 675 346 675 358 677 c 0,49,50
 362 678 362 678 366 678 c 0,51,52
 375 678 375 678 384 674 c 0,53,54
 398 669 398 669 420 657 c 0,55,56
 442 647 442 647 444 639 c 0,57,58
 448 631 448 631 448 627 c 0,59,60
 447 623 447 623 445 617 c 256,61,62
 443 611 443 611 437 597 c 256,63,64
 431 583 431 583 428 571 c 0,65,66
 424 559 424 559 422 521 c 2,67,-1
 418 456 l 1,68,-1
 418 397 l 2,69,70
 418 349 418 349 416 293 c 0,71,72
 415 236 415 236 414 209 c 0,73,74
 412 182 412 182 407 159 c 0,75,76
 402 137 402 137 388 114 c 0,77,78
 376 91 376 91 357 75 c 256,79,80
 338 59 338 59 320 51 c 256,81,82
 302 43 302 43 277 39 c 0,83,84
 261 36 261 36 243 36 c 0,85,86
 232 36 232 36 220 37 c 0,87,88
 164 40 164 40 128 63 c 0,89,90
 90 87 90 87 74 121 c 256,91,92
 58 155 58 155 54 199 c 0,93,94
 50 232 50 232 50 282 c 2,95,-1
 50 387 l 2,96,97
 51 443 51 443 51 486 c 2,98,-1
 51 557 l 2,99,100
 52 571 52 571 52 581 c 0,101,102
 52 592 52 592 51 598 c 0,103,104
 49 617 49 617 44 629 c 2,105,-1
 32 649 l 2,106,107
 26 657 26 657 26 664 c 256,108,109
 26 671 26 671 30 675 c 0,110,111
 33 679 33 679 42 679 c 0,112,113
 55 679 55 679 72 674 c 0,114,115
 88 669 88 669 100 662 c 256,116,117
 112 655 112 655 120 647 c 0,118,119
 128 638 128 638 130 634 c 0,120,121
 131 630 131 630 131 627 c 0,0,1
EndSplineSet
EndChar
StartChar: V
Encoding: 86 86 57
Width: 501
Flags: W
LayerCount: 2
Back
Fore
SplineSet
471 624 m 256,0,1
 471 619 471 619 459 597 c 2,2,-1
 442 571 l 2,3,4
 434 557 434 557 426 521 c 0,5,6
 418 486 418 486 405 436 c 0,7,8
 391 385 391 385 372 314 c 0,9,10
 353 242 353 242 348 224 c 0,11,12
 343 205 343 205 329 167 c 0,13,14
 317 128 317 128 307 101 c 0,15,16
 297 75 297 75 290 58 c 0,17,18
 282 41 282 41 273 33 c 0,19,20
 263 25 263 25 253 25 c 256,21,22
 243 25 243 25 232 39 c 0,23,24
 225 49 225 49 217 71 c 2,25,-1
 195 133 l 2,26,27
 185 161 185 161 170 211 c 256,28,29
 155 261 155 261 148 284 c 256,30,31
 141 307 141 307 128 355 c 256,32,33
 115 403 115 403 111 425 c 2,34,-1
 100 469 l 1,35,-1
 81 548 l 2,36,37
 71 587 71 587 66 603 c 0,38,39
 61 618 61 618 53 628 c 2,40,-1
 33 651 l 2,41,42
 27 660 27 660 27 665 c 0,43,44
 27 667 27 667 28 669 c 0,45,46
 31 675 31 675 39 677 c 0,47,48
 42 678 42 678 45 678 c 0,49,50
 54 678 54 678 66 674 c 0,51,52
 83 669 83 669 106 660 c 256,53,54
 129 651 129 651 136 643 c 256,55,56
 143 635 143 635 144 624 c 0,57,58
 144 621 144 621 140 605 c 0,59,60
 137 592 137 592 137 581 c 2,61,-1
 137 576 l 2,62,63
 137 563 137 563 145 521 c 256,64,65
 153 479 153 479 159 456 c 0,66,67
 164 433 164 433 180 375 c 2,68,-1
 207 275 l 2,69,70
 225 205 225 205 237 146 c 0,71,72
 247 90 247 90 254 90 c 2,73,-1
 255 90 l 2,74,75
 259 92 259 92 274 147 c 2,76,-1
 301 240 l 2,77,78
 311 273 311 273 327 349 c 0,79,80
 344 425 344 425 358 481 c 0,81,82
 371 535 371 535 373 547 c 256,83,84
 375 559 375 559 379 579 c 0,85,86
 381 599 381 599 382 607 c 0,87,88
 382 627 382 627 374 643 c 0,89,90
 366 657 366 657 366 665 c 2,91,-1
 366 667 l 2,92,93
 367 675 367 675 379 679 c 0,94,95
 383 680 383 680 387 680 c 0,96,97
 396 680 396 680 409 675 c 0,98,99
 425 667 425 667 437 660 c 0,100,101
 451 653 451 653 461 641 c 256,102,103
 471 629 471 629 471 624 c 256,0,1
EndSplineSet
EndChar
StartChar: W
Encoding: 87 87 58
Width: 663
Flags: W
LayerCount: 2
Back
Fore
SplineSet
335 439 m 1,0,1
 327 396 327 396 317 347 c 0,2,3
 307 299 307 299 295 250 c 0,4,5
 283 202 283 202 276 175 c 0,6,7
 269 147 269 147 258 112 c 0,8,9
 248 77 248 77 242 61 c 0,10,11
 237 45 237 45 228 37 c 0,12,13
 220 29 220 29 212 29 c 256,14,15
 204 29 204 29 193 49 c 0,16,17
 187 59 187 59 180 81 c 256,18,19
 173 103 173 103 164 135 c 0,20,21
 155 168 155 168 145 208 c 0,22,23
 135 247 135 247 125 291 c 256,24,25
 115 335 115 335 109 360 c 2,26,-1
 97 423 l 1,27,-1
 85 479 l 1,28,-1
 73 550 l 2,29,30
 67 581 67 581 61 601 c 0,31,32
 55 620 55 620 49 630 c 2,33,-1
 33 653 l 2,34,35
 28 661 28 661 28 667 c 0,36,37
 28 669 28 669 29 671 c 0,38,39
 31 677 31 677 39 679 c 0,40,41
 42 680 42 680 47 680 c 0,42,43
 55 680 55 680 67 677 c 2,44,-1
 99 667 l 2,45,46
 115 661 115 661 124 654 c 0,47,48
 133 646 133 646 133 635 c 0,49,50
 133 632 133 632 127 617 c 0,51,52
 123 605 123 605 123 591 c 2,53,-1
 123 585 l 2,54,55
 123 571 123 571 131 536 c 2,56,-1
 145 453 l 2,57,58
 147 439 147 439 159 373 c 0,59,60
 172 307 172 307 182 259 c 0,61,62
 193 211 193 211 201 163 c 0,63,64
 208 119 208 119 213 119 c 2,65,-1
 214 119 l 2,66,67
 217 121 217 121 229 173 c 2,68,-1
 249 261 l 2,69,70
 255 287 255 287 267 348 c 0,71,72
 279 410 279 410 288 467 c 0,73,74
 297 523 297 523 301 546 c 0,75,76
 306 569 306 569 308 588 c 0,77,78
 310 608 310 608 316 622 c 0,79,80
 322 635 322 635 337 638 c 2,81,-1
 339 638 l 2,82,83
 352 638 352 638 365 609 c 0,84,85
 369 599 369 599 370 582 c 256,86,87
 371 565 371 565 376 539 c 256,88,89
 381 513 381 513 387 467 c 256,90,91
 393 421 393 421 401 381 c 0,92,93
 407 340 407 340 420 283 c 0,94,95
 432 227 432 227 440 166 c 0,96,97
 446 111 446 111 452 111 c 2,98,-1
 453 111 l 1,99,100
 455 115 455 115 465 155 c 2,101,-1
 477 204 l 1,102,-1
 485 254 l 1,103,-1
 504 345 l 2,104,105
 505 351 505 351 522 443 c 2,106,-1
 537 519 l 2,107,108
 542 551 542 551 545 573 c 0,109,110
 549 597 549 597 551 611 c 0,111,112
 551 629 551 629 546 645 c 0,113,114
 542 657 542 657 542 663 c 2,115,-1
 542 667 l 2,116,117
 543 673 543 673 556 677 c 0,118,119
 559 678 559 678 562 678 c 0,120,121
 575 678 575 678 594 667 c 0,122,123
 604 661 604 661 619 650 c 0,124,125
 633 639 633 639 633 621 c 0,126,127
 633 613 633 613 625 601 c 0,128,129
 618 589 618 589 612 577 c 0,130,131
 605 565 605 565 597 525 c 0,132,133
 589 486 589 486 578 438 c 0,134,135
 567 391 567 391 553 321 c 0,136,137
 537 252 537 252 531 227 c 0,138,139
 525 203 525 203 517 173 c 0,140,141
 509 142 509 142 498 109 c 0,142,143
 488 76 488 76 482 60 c 0,144,145
 477 43 477 43 468 35 c 256,146,147
 459 27 459 27 451 27 c 256,148,149
 443 27 443 27 434 41 c 0,150,151
 427 51 427 51 421 73 c 2,152,-1
 403 137 l 2,153,154
 395 165 395 165 382 215 c 0,155,156
 370 265 370 265 365 289 c 0,157,158
 359 313 359 313 347 376 c 2,159,-1
 335 439 l 1,0,1
EndSplineSet
EndChar
StartChar: X
Encoding: 88 88 59
Width: 505
Flags: W
LayerCount: 2
Back
Fore
SplineSet
254 323 m 1,0,1
 222 271 222 271 207 246 c 256,2,3
 192 221 192 221 168 184 c 0,4,5
 145 147 145 147 130 123 c 0,6,7
 116 99 116 99 109 91 c 256,8,9
 102 83 102 83 78 59 c 0,10,11
 55 35 55 35 43 35 c 2,12,-1
 42 35 l 2,13,14
 38 35 38 35 33 38 c 0,15,16
 29 40 29 40 29 55 c 0,17,18
 29 61 29 61 30 69 c 0,19,20
 34 106 34 106 36 114 c 256,21,22
 38 122 38 122 42 129 c 0,23,24
 47 137 47 137 65 151 c 0,25,26
 84 165 84 165 98 182 c 256,27,28
 112 199 112 199 135 233 c 256,29,30
 158 267 158 267 180 302 c 2,31,-1
 226 373 l 1,32,33
 203 415 203 415 188 441 c 0,34,35
 174 466 174 466 139 518 c 0,36,37
 105 571 105 571 90 596 c 0,38,39
 74 621 74 621 54 637 c 0,40,41
 34 652 34 652 32 661 c 0,42,43
 30 665 30 665 30 669 c 0,44,45
 30 672 30 672 32 675 c 0,46,47
 35 678 35 678 44 678 c 0,48,49
 49 678 49 678 57 677 c 0,50,51
 96 671 96 671 108 668 c 0,52,53
 119 665 119 665 139 657 c 256,54,55
 159 649 159 649 162 640 c 0,56,57
 162 639 162 639 160 623 c 2,58,-1
 160 615 l 2,59,60
 160 602 160 602 164 590 c 0,61,62
 170 572 170 572 184 543 c 0,63,64
 199 513 199 513 222 475 c 2,65,-1
 256 415 l 1,66,67
 274 441 274 441 283 453 c 2,68,-1
 331 521 l 1,69,-1
 383 598 l 2,70,71
 414 642 414 642 420 651 c 0,72,73
 426 659 426 659 436 670 c 0,74,75
 444 679 444 679 452 679 c 2,76,-1
 455 679 l 2,77,78
 463 677 463 677 465 649 c 0,79,80
 466 639 466 639 466 631 c 0,81,82
 466 613 466 613 463 600 c 0,83,84
 459 580 459 580 450 571 c 2,85,-1
 429 559 l 2,86,87
 416 552 416 552 396 525 c 2,88,-1
 358 475 l 1,89,-1
 318 423 l 1,90,-1
 282 373 l 1,91,92
 309 325 309 325 323 301 c 2,93,-1
 365 230 l 2,94,95
 383 199 383 199 400 168 c 0,96,97
 418 137 418 137 426 123 c 256,98,99
 434 109 434 109 436 105 c 256,100,101
 438 101 438 101 450 78 c 0,102,103
 458 60 458 60 458 50 c 0,104,105
 458 47 458 47 457 45 c 0,106,107
 455 41 455 41 452 39 c 0,108,109
 450 38 450 38 447 38 c 2,110,-1
 446 38 l 2,111,112
 439 38 439 38 425 47 c 2,113,-1
 386 65 l 2,114,115
 369 73 369 73 362 83 c 0,116,117
 356 92 356 92 352 112 c 256,118,119
 348 132 348 132 345 144 c 0,120,121
 342 157 342 157 324 191 c 2,122,-1
 287 263 l 1,123,-1
 270 293 l 1,124,-1
 254 323 l 1,0,1
EndSplineSet
EndChar
StartChar: Y
Encoding: 89 89 60
Width: 472
Flags: W
LayerCount: 2
Back
Fore
SplineSet
196 316 m 1,0,1
 183 345 183 345 177 359 c 2,2,-1
 148 422 l 2,3,4
 133 455 133 455 119 493 c 2,5,-1
 101 536 l 2,6,7
 97 547 97 547 85 575 c 256,8,9
 73 603 73 603 61 619 c 2,10,-1
 35 653 l 2,11,12
 28 665 28 665 28 671 c 0,13,14
 28 674 28 674 29 675 c 0,15,16
 32 678 32 678 44 678 c 2,17,-1
 51 678 l 2,18,19
 74 676 74 676 89 673 c 0,20,21
 103 669 103 669 119 660 c 256,22,23
 135 651 135 651 139 637 c 1,24,-1
 136 610 l 1,25,-1
 136 608 l 2,26,27
 136 596 136 596 148 564 c 2,28,-1
 163 515 l 1,29,-1
 189 445 l 2,30,31
 200 409 200 409 209 391 c 0,32,33
 217 371 217 371 226 371 c 2,34,-1
 227 371 l 2,35,36
 236 371 236 371 251 401 c 0,37,38
 261 421 261 421 278 455 c 0,39,40
 296 491 296 491 305 511 c 2,41,-1
 341 595 l 2,42,43
 351 617 351 617 353 627 c 2,44,-1
 351 653 l 1,45,-1
 351 662 l 2,46,47
 351 678 351 678 357 681 c 0,48,49
 360 682 360 682 364 682 c 0,50,51
 371 682 371 682 381 678 c 0,52,53
 391 673 391 673 408 654 c 256,54,55
 425 635 425 635 432 624 c 0,56,57
 436 617 436 617 436 610 c 0,58,59
 436 606 436 606 435 603 c 0,60,61
 434 598 434 598 418 584 c 0,62,63
 403 571 403 571 391 553 c 0,64,65
 381 537 381 537 357 496 c 0,66,67
 333 456 333 456 325 441 c 2,68,-1
 289 384 l 1,69,-1
 253 318 l 1,70,71
 251 293 251 293 250 279 c 2,72,-1
 250 228 l 2,73,74
 251 192 251 192 251 167 c 2,75,-1
 251 122 l 2,76,77
 249 104 249 104 248 80 c 0,78,79
 247 57 247 57 243 39 c 0,80,81
 240 21 240 21 232 17 c 1,82,-1
 230 17 l 2,83,84
 222 17 222 17 205 35 c 0,85,86
 192 49 192 49 181 73 c 0,87,88
 173 93 173 93 173 107 c 2,89,-1
 173 113 l 2,90,91
 173 117 173 117 182 137 c 256,92,93
 191 157 191 157 195 187 c 0,94,95
 199 212 199 212 199 233 c 2,96,-1
 199 241 l 1,97,-1
 196 316 l 1,0,1
EndSplineSet
EndChar
StartChar: Z
Encoding: 90 90 61
Width: 532
Flags: W
LayerCount: 2
Back
Fore
SplineSet
350 605 m 1,0,-1
 336 605 l 1,1,-1
 304 603 l 1,2,-1
 261 600 l 1,3,-1
 213 595 l 2,4,5
 182 593 182 593 167 589 c 0,6,7
 152 587 152 587 130 577 c 0,8,9
 112 569 112 569 102 569 c 2,10,-1
 99 569 l 2,11,12
 88 569 88 569 72 579 c 0,13,14
 56 588 56 588 41 605 c 0,15,16
 29 618 29 618 29 626 c 0,17,18
 29 628 29 628 30 629 c 0,19,20
 32 633 32 633 56 634 c 0,21,22
 80 634 80 634 111 636 c 256,23,24
 142 638 142 638 192 643 c 256,25,26
 242 648 242 648 244 649 c 2,27,-1
 286 651 l 1,28,-1
 331 655 l 2,29,30
 354 657 354 657 370 661 c 0,31,32
 384 665 384 665 389 665 c 0,33,34
 402 665 402 665 415 653 c 0,35,36
 429 641 429 641 432 626 c 0,37,38
 434 620 434 620 434 615 c 0,39,40
 434 607 434 607 430 600 c 0,41,42
 428 597 428 597 411 581 c 0,43,44
 394 564 394 564 382 544 c 256,45,46
 370 524 370 524 350 489 c 2,47,-1
 307 409 l 1,48,-1
 244 296 l 2,49,50
 210 233 210 233 196 209 c 0,51,52
 182 186 182 186 160 149 c 2,53,-1
 133 105 l 1,54,-1
 154 105 l 2,55,56
 160 105 160 105 191 107 c 256,57,58
 222 109 222 109 256 109 c 2,59,-1
 292 109 l 2,60,61
 314 109 314 109 337 112 c 256,62,63
 360 115 360 115 384 121 c 0,64,65
 408 129 408 129 414 129 c 0,66,67
 426 129 426 129 438 125 c 0,68,69
 450 119 450 119 464 109 c 256,70,71
 478 99 478 99 486 87 c 0,72,73
 491 79 491 79 491 73 c 0,74,75
 491 70 491 70 490 68 c 0,76,77
 488 61 488 61 463 61 c 2,78,-1
 426 61 l 1,79,-1
 372 64 l 2,80,81
 356 64 356 64 300 61 c 2,82,-1
 234 59 l 1,83,-1
 179 55 l 2,84,85
 147 52 147 52 128 44 c 0,86,87
 110 37 110 37 105 37 c 2,88,-1
 104 37 l 2,89,90
 93 37 93 37 78 52 c 0,91,92
 64 67 64 67 58 86 c 0,93,94
 56 96 56 96 56 103 c 256,95,96
 56 110 56 110 58 115 c 0,97,98
 60 117 60 117 76 129 c 0,99,100
 94 140 94 140 110 167 c 2,101,-1
 148 232 l 2,102,103
 168 266 168 266 198 320 c 2,104,-1
 258 431 l 2,105,106
 304 513 304 513 306 519 c 2,107,-1
 350 605 l 1,0,-1
EndSplineSet
EndChar
StartChar: bracketleft
Encoding: 91 91 62
Width: 279
Flags: W
LayerCount: 2
Back
Fore
SplineSet
44 -152 m 1,0,-1
 44 771 l 1,1,-1
 241 771 l 1,2,-1
 241 725 l 1,3,-1
 117 725 l 1,4,-1
 117 -107 l 1,5,-1
 241 -107 l 1,6,-1
 241 -152 l 1,7,-1
 44 -152 l 1,0,-1
EndSplineSet
EndChar
StartChar: backslash
Encoding: 92 92 63
Width: 645
Flags: W
LayerCount: 2
Back
Fore
SplineSet
543 -84 m 2,0,1
 550 -99 550 -99 550 -107 c 2,2,-1
 550 -110 l 2,3,4
 550 -116 550 -116 546 -119 c 0,5,6
 544 -121 544 -121 540 -121 c 0,7,8
 537 -121 537 -121 533 -119 c 0,9,10
 525 -115 525 -115 519 -103 c 2,11,-1
 87 691 l 2,12,13
 81 701 81 701 79 707 c 2,14,-1
 79 709 l 2,15,16
 79 714 79 714 82 717 c 0,17,18
 85 721 85 721 93 721 c 0,19,20
 101 719 101 719 105 713 c 2,21,-1
 543 -84 l 2,0,1
EndSplineSet
EndChar
StartChar: bracketright
Encoding: 93 93 64
Width: 280
Flags: W
LayerCount: 2
Back
Fore
SplineSet
36 -151 m 1,0,-1
 36 -101 l 1,1,-1
 158 -101 l 1,2,-1
 158 725 l 1,3,-1
 36 725 l 1,4,-1
 36 769 l 1,5,-1
 237 769 l 1,6,-1
 237 -151 l 1,7,-1
 36 -151 l 1,0,-1
EndSplineSet
EndChar
StartChar: asciicircum
Encoding: 94 94 65
Width: 330
Flags: W
LayerCount: 2
Back
Fore
SplineSet
24 537 m 1,0,1
 103 663 103 663 130 706 c 2,2,-1
 161 757 l 1,3,-1
 304 537 l 1,4,-1
 291 537 l 1,5,-1
 164 643 l 1,6,-1
 42 541 l 1,7,-1
 24 537 l 1,0,1
EndSplineSet
EndChar
StartChar: underscore
Encoding: 95 95 66
Width: 512
Flags: W
LayerCount: 2
Back
Fore
SplineSet
2 -85 m 1,0,-1
 2 -42 l 1,1,-1
 504 -42 l 1,2,-1
 504 -85 l 1,3,-1
 2 -85 l 1,0,-1
EndSplineSet
EndChar
StartChar: a
Encoding: 97 97 68
Width: 417
Flags: W
LayerCount: 2
Back
Fore
SplineSet
299 185 m 2,0,1
 302 155 302 155 302 136 c 2,2,-1
 302 131 l 2,3,4
 302 116 302 116 308 107 c 0,5,6
 314 99 314 99 325 99 c 2,7,-1
 327 99 l 2,8,9
 345 99 345 99 353 124 c 2,10,-1
 363 175 l 1,11,12
 371 189 371 189 382 189 c 2,13,-1
 383 189 l 2,14,15
 393 189 393 189 393 157 c 256,16,17
 393 125 393 125 389 105 c 0,18,19
 382 73 382 73 369 59 c 0,20,21
 355 47 355 47 332 44 c 0,22,23
 326 43 326 43 320 43 c 0,24,25
 304 43 304 43 289 49 c 0,26,27
 269 58 269 58 269 64 c 2,28,-1
 259 87 l 1,29,30
 228 62 228 62 208 53 c 0,31,32
 188 43 188 43 150 41 c 2,33,-1
 144 41 l 2,34,35
 110 41 110 41 79 61 c 0,36,37
 46 83 46 83 37 119 c 0,38,39
 32 139 32 139 32 160 c 0,40,41
 32 176 32 176 35 193 c 0,42,43
 43 231 43 231 61 253 c 0,44,45
 80 275 80 275 113 287 c 0,46,47
 147 299 147 299 192 303 c 2,48,-1
 239 308 l 1,49,50
 241 329 241 329 242 349 c 2,51,-1
 242 356 l 2,52,53
 242 372 242 372 238 388 c 0,54,55
 231 411 231 411 216 423 c 0,56,57
 201 436 201 436 178 439 c 2,58,-1
 168 439 l 2,59,60
 150 439 150 439 137 433 c 0,61,62
 122 423 122 423 113 406 c 2,63,-1
 97 377 l 1,64,65
 84 362 84 362 77 362 c 2,66,-1
 75 362 l 2,67,68
 66 365 66 365 63 384 c 0,69,70
 62 390 62 390 62 397 c 0,71,72
 62 409 62 409 65 421 c 0,73,74
 69 437 69 437 79 452 c 256,75,76
 89 467 89 467 119 477 c 0,77,78
 144 485 144 485 173 485 c 2,79,-1
 185 485 l 2,80,81
 212 483 212 483 234 475 c 0,82,83
 257 466 257 466 271 447 c 0,84,85
 287 427 287 427 293 397 c 256,86,87
 299 367 299 367 299 341 c 2,88,-1
 299 185 l 2,0,1
245 139 m 1,89,90
 243 181 243 181 243 188 c 2,91,-1
 241 268 l 1,92,93
 199 261 199 261 169 255 c 256,94,95
 139 249 139 249 117 235 c 0,96,97
 95 220 95 220 85 187 c 0,98,99
 81 173 81 173 81 161 c 0,100,101
 81 144 81 144 89 129 c 0,102,103
 103 104 103 104 127 94 c 0,104,105
 141 88 141 88 158 88 c 0,106,107
 170 88 170 88 183 91 c 0,108,109
 215 98 215 98 227 116 c 2,110,-1
 245 139 l 1,89,90
EndSplineSet
EndChar
StartChar: b
Encoding: 98 98 69
Width: 397
Flags: W
LayerCount: 2
Back
Fore
SplineSet
101 435 m 1,0,1
 126 457 126 457 142 466 c 0,2,3
 157 475 157 475 178 479 c 0,4,5
 191 482 191 482 205 482 c 0,6,7
 214 482 214 482 223 481 c 0,8,9
 239 479 239 479 262 469 c 0,10,11
 284 459 284 459 306 434 c 0,12,13
 328 408 328 408 339 367 c 0,14,15
 350 327 350 327 352 295 c 0,16,17
 355 263 355 263 355 235 c 0,18,19
 354 190 354 190 347 155 c 0,20,21
 339 121 339 121 321 96 c 0,22,23
 304 71 304 71 280 55 c 256,24,25
 256 39 256 39 217 37 c 2,26,-1
 206 37 l 2,27,28
 188 37 188 37 170 42 c 0,29,30
 147 49 147 49 138 58 c 2,31,-1
 99 93 l 1,32,33
 96 69 96 69 92 44 c 0,34,35
 89 21 89 21 80 21 c 2,36,-1
 79 21 l 2,37,38
 77 21 77 21 67 26 c 0,39,40
 58 30 58 30 50 49 c 0,41,42
 41 69 41 69 35 87 c 0,43,44
 29 104 29 104 29 116 c 2,45,-1
 29 119 l 2,46,47
 29 122 29 122 40 154 c 256,48,49
 51 186 51 186 51 245 c 2,50,-1
 53 375 l 2,51,52
 53 395 53 395 54 430 c 2,53,-1
 54 481 l 2,54,55
 53 519 53 519 52 550 c 0,56,57
 50 581 50 581 47 601 c 0,58,59
 45 619 45 619 41 632 c 2,60,-1
 33 652 l 2,61,62
 29 663 29 663 29 671 c 0,63,64
 29 673 29 673 30 677 c 256,65,66
 31 681 31 681 45 683 c 0,67,68
 53 683 53 683 79 675 c 0,69,70
 105 668 105 668 114 656 c 0,71,72
 123 645 123 645 125 639 c 0,73,74
 126 636 126 636 126 633 c 256,75,76
 126 630 126 630 125 626 c 0,77,78
 123 621 123 621 119 607 c 0,79,80
 115 591 115 591 111 568 c 256,81,82
 107 545 107 545 107 537 c 2,83,-1
 101 435 l 1,0,1
99 227 m 2,84,85
 99 191 99 191 101 175 c 0,86,87
 103 160 103 160 115 139 c 0,88,89
 127 117 127 117 141 105 c 256,90,91
 155 93 155 93 182 86 c 0,92,93
 199 82 199 82 213 82 c 0,94,95
 220 82 220 82 227 83 c 0,96,97
 249 88 249 88 267 109 c 0,98,99
 286 131 286 131 295 168 c 0,100,101
 301 198 301 198 301 233 c 2,102,-1
 301 251 l 2,103,104
 300 277 300 277 295 307 c 0,105,106
 291 337 291 337 278 372 c 256,107,108
 265 407 265 407 243 421 c 0,109,110
 220 435 220 435 193 435 c 2,111,-1
 190 435 l 2,112,113
 165 435 165 435 143 417 c 0,114,115
 122 401 122 401 113 378 c 0,116,117
 105 354 105 354 101 326 c 0,118,119
 99 306 99 306 99 280 c 2,120,-1
 99 227 l 2,84,85
EndSplineSet
EndChar
StartChar: d
Encoding: 100 100 71
Width: 387
Flags: W
LayerCount: 2
Back
Fore
SplineSet
282 426 m 1,0,1
 281 505 281 505 279 538 c 0,2,3
 276 571 276 571 273 599 c 0,4,5
 270 626 270 626 262 645 c 0,6,7
 256 659 256 659 256 667 c 2,8,-1
 256 670 l 2,9,10
 259 677 259 677 267 680 c 0,11,12
 269 681 269 681 271 681 c 0,13,14
 278 681 278 681 292 673 c 0,15,16
 308 663 308 663 326 649 c 0,17,18
 344 636 344 636 345 626 c 2,19,-1
 345 622 l 2,20,21
 345 613 345 613 340 597 c 0,22,23
 333 579 333 579 332 564 c 0,24,25
 331 555 331 555 331 540 c 2,26,-1
 331 523 l 2,27,28
 332 495 332 495 332 426 c 2,29,-1
 332 247 l 2,30,31
 332 213 332 213 336 182 c 0,32,33
 338 151 338 151 344 127 c 256,34,35
 350 103 350 103 350 95 c 0,36,37
 349 85 349 85 343 72 c 0,38,39
 338 59 338 59 328 44 c 256,40,41
 318 29 318 29 311 28 c 2,42,-1
 310 28 l 2,43,44
 302 28 302 28 292 45 c 0,45,46
 284 57 284 57 282 69 c 2,47,-1
 278 90 l 1,48,49
 257 70 257 70 243 61 c 0,50,51
 229 53 229 53 209 47 c 0,52,53
 195 43 195 43 178 43 c 0,54,55
 172 43 172 43 165 44 c 0,56,57
 126 47 126 47 102 62 c 256,58,59
 78 77 78 77 60 101 c 256,60,61
 42 125 42 125 36 159 c 0,62,63
 28 193 28 193 28 237 c 0,64,65
 28 259 28 259 30 292 c 256,66,67
 32 325 32 325 43 365 c 256,68,69
 54 405 54 405 76 433 c 256,70,71
 98 461 98 461 119 470 c 0,72,73
 139 479 139 479 158 483 c 0,74,75
 168 485 168 485 178 485 c 256,76,77
 188 485 188 485 199 483 c 0,78,79
 240 477 240 477 251 463 c 2,80,-1
 282 426 l 1,0,1
284 265 m 2,81,82
 284 295 284 295 281 324 c 256,83,84
 278 353 278 353 269 377 c 256,85,86
 260 401 260 401 236 419 c 256,87,88
 212 437 212 437 183 437 c 0,89,90
 156 437 156 437 135 423 c 256,91,92
 114 409 114 409 102 379 c 256,93,94
 90 349 90 349 86 311 c 0,95,96
 82 274 82 274 81 241 c 2,97,-1
 81 233 l 2,98,99
 81 204 81 204 88 177 c 0,100,101
 96 148 96 148 110 130 c 0,102,103
 124 113 124 113 145 101 c 0,104,105
 160 94 160 94 179 94 c 0,106,107
 186 94 186 94 194 95 c 0,108,109
 220 97 220 97 238 112 c 256,110,111
 256 127 256 127 267 146 c 256,112,113
 278 165 278 165 281 183 c 256,114,115
 284 201 284 201 284 231 c 2,116,-1
 284 265 l 2,81,82
EndSplineSet
EndChar
StartChar: e
Encoding: 101 101 72
Width: 380
Flags: W
LayerCount: 2
Back
Fore
SplineSet
86 257 m 1,0,1
 86 232 86 232 88 209 c 0,2,3
 90 187 90 187 100 163 c 0,4,5
 110 138 110 138 124 121 c 0,6,7
 139 105 139 105 164 99 c 0,8,9
 174 97 174 97 184 97 c 0,10,11
 197 97 197 97 212 101 c 0,12,13
 237 108 237 108 253 119 c 0,14,15
 270 130 270 130 280 146 c 0,16,17
 292 162 292 162 296 184 c 0,18,19
 300 205 300 205 305 215 c 0,20,21
 309 223 309 223 315 223 c 2,22,-1
 317 223 l 2,23,24
 324 222 324 222 328 211 c 0,25,26
 331 204 331 204 331 194 c 0,27,28
 331 189 331 189 330 184 c 0,29,30
 327 157 327 157 319 134 c 0,31,32
 311 110 311 110 293 91 c 0,33,34
 276 71 276 71 247 57 c 0,35,36
 225 46 225 46 193 46 c 0,37,38
 183 46 183 46 173 47 c 0,39,40
 130 49 130 49 100 69 c 256,41,42
 70 89 70 89 55 121 c 256,43,44
 40 153 40 153 35 196 c 0,45,46
 29 239 29 239 28 275 c 0,47,48
 28 310 28 310 37 353 c 0,49,50
 48 399 48 399 70 430 c 256,51,52
 92 461 92 461 125 476 c 0,53,54
 154 489 154 489 187 489 c 2,55,-1
 196 489 l 2,56,57
 234 487 234 487 263 469 c 0,58,59
 292 452 292 452 310 421 c 0,60,61
 328 391 328 391 334 355 c 0,62,63
 341 323 341 323 341 294 c 2,64,-1
 341 287 l 2,65,66
 340 269 340 269 335 263 c 256,67,68
 330 257 330 257 298 257 c 2,69,-1
 86 257 l 1,0,1
87 299 m 1,70,-1
 288 299 l 1,71,72
 286 321 286 321 284 339 c 0,73,74
 281 359 281 359 272 383 c 0,75,76
 262 407 262 407 247 421 c 0,77,78
 232 433 232 433 206 439 c 0,79,80
 196 441 196 441 186 441 c 0,81,82
 170 441 170 441 153 435 c 0,83,84
 126 425 126 425 114 405 c 256,85,86
 102 385 102 385 96 363 c 0,87,88
 90 340 90 340 90 327 c 2,89,-1
 87 299 l 1,70,-1
EndSplineSet
EndChar
StartChar: f
Encoding: 102 102 73
Width: 378
Flags: W
LayerCount: 2
Back
Fore
SplineSet
151 423 m 1,0,1
 119 415 119 415 101 409 c 0,2,3
 87 403 87 403 79 403 c 2,4,-1
 76 403 l 2,5,6
 67 404 67 404 51 417 c 0,7,8
 36 431 36 431 30 441 c 0,9,10
 25 450 25 450 25 454 c 2,11,-1
 25 456 l 2,12,13
 27 461 27 461 45 463 c 2,14,-1
 117 468 l 1,15,-1
 153 471 l 1,16,-1
 153 537 l 2,17,18
 153 567 153 567 158 593 c 256,19,20
 163 619 163 619 173 634 c 0,21,22
 183 648 183 648 194 655 c 0,23,24
 206 661 206 661 227 667 c 0,25,26
 235 669 235 669 245 669 c 0,27,28
 261 669 261 669 279 664 c 0,29,30
 302 657 302 657 318 643 c 0,31,32
 333 630 333 630 337 613 c 0,33,34
 338 607 338 607 338 603 c 0,35,36
 338 595 338 595 334 591 c 0,37,38
 332 590 332 590 330 590 c 0,39,40
 323 590 323 590 308 601 c 0,41,42
 285 617 285 617 275 622 c 0,43,44
 269 625 269 625 261 625 c 0,45,46
 255 625 255 625 247 623 c 0,47,48
 227 617 227 617 218 602 c 256,49,50
 209 587 209 587 207 570 c 0,51,52
 204 553 204 553 204 519 c 2,53,-1
 204 473 l 1,54,55
 229 475 229 475 241 477 c 256,56,57
 253 479 253 479 269 485 c 0,58,59
 285 489 285 489 291 489 c 0,60,61
 302 489 302 489 316 481 c 0,62,63
 329 473 329 473 338 461 c 0,64,65
 347 450 347 450 347 441 c 0,66,67
 345 431 345 431 314 431 c 2,68,-1
 303 431 l 2,69,70
 275 432 275 432 259 432 c 2,71,-1
 247 432 l 1,72,-1
 204 427 l 1,73,74
 205 347 205 347 205 286 c 2,75,-1
 205 187 l 1,76,-1
 203 95 l 2,77,78
 202 70 202 70 201 60 c 0,79,80
 199 50 199 50 196 41 c 0,81,82
 193 31 193 31 189 28 c 0,83,84
 188 27 188 27 185 27 c 0,85,86
 181 27 181 27 175 30 c 0,87,88
 163 35 163 35 152 56 c 256,89,90
 141 77 141 77 137 87 c 256,91,92
 133 97 133 97 133 106 c 256,93,94
 133 115 133 115 140 141 c 0,95,96
 144 156 144 156 147 182 c 0,97,98
 151 207 151 207 152 245 c 2,99,-1
 152 303 l 1,100,-1
 151 423 l 1,0,1
EndSplineSet
EndChar
StartChar: g
Encoding: 103 103 74
Width: 461
Flags: W
LayerCount: 2
Back
Fore
SplineSet
108 69 m 1,0,1
 81 93 81 93 68 113 c 0,2,3
 56 131 56 131 56 156 c 2,4,-1
 56 163 l 2,5,6
 58 195 58 195 76 211 c 2,7,-1
 98 235 l 1,8,9
 88 263 88 263 83 291 c 0,10,11
 81 300 81 300 81 311 c 0,12,13
 81 334 81 334 88 363 c 0,14,15
 97 401 97 401 116 427 c 256,16,17
 135 453 135 453 158 465 c 0,18,19
 182 477 182 477 214 477 c 2,20,-1
 221 477 l 2,21,22
 253 477 253 477 266 469 c 2,23,-1
 299 451 l 1,24,25
 303 482 303 482 311 505 c 0,26,27
 320 527 320 527 334 535 c 0,28,29
 348 542 348 542 364 542 c 0,30,31
 380 541 380 541 396 536 c 0,32,33
 410 531 410 531 421 517 c 0,34,35
 432 505 432 505 432 470 c 256,36,37
 432 435 432 435 424 434 c 2,38,-1
 423 434 l 2,39,40
 414 434 414 434 406 449 c 2,41,-1
 392 480 l 1,42,43
 382 488 382 488 372 488 c 0,44,45
 363 488 363 488 355 483 c 0,46,47
 343 475 343 475 343 448 c 2,48,-1
 343 415 l 1,49,50
 352 397 352 397 360 374 c 0,51,52
 367 354 367 354 367 323 c 2,53,-1
 367 315 l 2,54,55
 366 283 366 283 356 250 c 256,56,57
 346 217 346 217 334 203 c 256,58,59
 322 189 322 189 300 170 c 0,60,61
 278 152 278 152 228 152 c 2,62,-1
 223 152 l 2,63,64
 182 153 182 153 166 166 c 2,65,-1
 124 195 l 1,66,67
 113 185 113 185 106 174 c 0,68,69
 103 169 103 169 103 163 c 0,70,71
 103 154 103 154 108 142 c 0,72,73
 116 121 116 121 130 111 c 2,74,-1
 146 95 l 1,75,-1
 225 95 l 2,76,77
 256 94 256 94 284 89 c 256,78,79
 312 84 312 84 334 73 c 0,80,81
 356 63 356 63 373 47 c 0,82,83
 390 32 390 32 401 9 c 0,84,85
 412 -15 412 -15 416 -41 c 0,86,87
 417 -50 417 -50 417 -58 c 0,88,89
 417 -76 417 -76 413 -93 c 0,90,91
 404 -132 404 -132 386 -149 c 0,92,93
 367 -165 367 -165 346 -175 c 0,94,95
 324 -185 324 -185 293 -192 c 256,96,97
 262 -199 262 -199 226 -199 c 2,98,-1
 208 -199 l 2,99,100
 178 -199 178 -199 153 -194 c 0,101,102
 121 -187 121 -187 104 -175 c 0,103,104
 86 -163 86 -163 67 -144 c 256,105,106
 48 -125 48 -125 40 -96 c 0,107,108
 35 -79 35 -79 35 -61 c 0,109,110
 35 -46 35 -46 38 -31 c 0,111,112
 43 1 43 1 55 21 c 0,113,114
 68 39 68 39 72 43 c 2,115,-1
 108 69 l 1,0,1
186 48 m 0,116,117
 156 45 156 45 140 38 c 0,118,119
 125 31 125 31 108 12 c 0,120,121
 90 -7 90 -7 88 -37 c 0,122,123
 87 -44 87 -44 87 -51 c 0,124,125
 87 -71 87 -71 94 -88 c 0,126,127
 104 -115 104 -115 127 -131 c 256,128,129
 150 -147 150 -147 190 -150 c 0,130,131
 201 -151 201 -151 212 -151 c 0,132,133
 236 -151 236 -151 263 -147 c 0,134,135
 303 -141 303 -141 328 -125 c 0,136,137
 353 -108 353 -108 359 -73 c 0,138,139
 361 -64 361 -64 361 -55 c 0,140,141
 361 -29 361 -29 346 -5 c 0,142,143
 327 27 327 27 290 41 c 0,144,145
 265 50 265 50 227 50 c 0,146,147
 208 50 208 50 186 48 c 0,116,117
134 262 m 0,148,149
 141 243 141 243 157 226 c 0,150,151
 174 209 174 209 199 201 c 0,152,153
 214 196 214 196 229 196 c 0,154,155
 241 196 241 196 253 199 c 0,156,157
 278 206 278 206 296 226 c 0,158,159
 314 245 314 245 318 289 c 0,160,161
 319 299 319 299 319 308 c 0,162,163
 319 341 319 341 308 368 c 0,164,165
 296 395 296 395 278 410 c 256,166,167
 260 425 260 425 231 430 c 0,168,169
 223 431 223 431 216 431 c 0,170,171
 196 431 196 431 178 421 c 0,172,173
 157 409 157 409 141 378 c 0,174,175
 127 349 127 349 127 317 c 2,176,-1
 127 313 l 2,177,178
 128 279 128 279 134 262 c 0,148,149
EndSplineSet
EndChar
StartChar: h
Encoding: 104 104 75
Width: 376
Flags: W
LayerCount: 2
Back
Fore
SplineSet
98 187 m 2,0,1
 96 171 96 171 96 160 c 2,2,-1
 96 103 l 2,3,4
 96 85 96 85 93 70 c 0,5,6
 91 55 91 55 88 48 c 0,7,8
 86 40 86 40 83 37 c 0,9,10
 81 35 81 35 78 35 c 2,11,-1
 76 35 l 2,12,13
 74 35 74 35 70 36 c 0,14,15
 66 38 66 38 57 49 c 0,16,17
 48 61 48 61 45 66 c 256,18,19
 42 71 42 71 36 88 c 256,20,21
 30 105 30 105 29 111 c 2,22,-1
 29 113 l 2,23,24
 29 121 29 121 37 147 c 0,25,26
 42 163 42 163 46 202 c 256,27,28
 50 241 50 241 50 279 c 2,29,-1
 50 545 l 1,30,-1
 51 571 l 2,31,32
 50 605 50 605 45 624 c 0,33,34
 39 644 39 644 32 656 c 0,35,36
 26 667 26 667 26 672 c 0,37,38
 27 675 27 675 30 677 c 0,39,40
 34 680 34 680 42 680 c 0,41,42
 54 679 54 679 69 671 c 0,43,44
 84 661 84 661 99 650 c 0,45,46
 115 639 115 639 120 629 c 0,47,48
 124 621 124 621 124 612 c 2,49,-1
 124 609 l 2,50,51
 124 607 124 607 118 593 c 0,52,53
 114 579 114 579 110 549 c 256,54,55
 106 519 106 519 104 502 c 256,56,57
 102 485 102 485 102 422 c 2,58,-1
 100 361 l 1,59,60
 114 395 114 395 123 412 c 0,61,62
 132 430 132 430 146 447 c 0,63,64
 160 463 160 463 173 471 c 256,65,66
 186 479 186 479 207 483 c 0,67,68
 221 486 221 486 233 486 c 0,69,70
 254 486 254 486 272 478 c 0,71,72
 300 466 300 466 314 441 c 0,73,74
 327 415 327 415 330 382 c 0,75,76
 332 349 332 349 332 305 c 2,77,-1
 333 221 l 1,78,-1
 333 160 l 2,79,80
 332 129 332 129 330 102 c 0,81,82
 329 76 329 76 325 57 c 0,83,84
 321 39 321 39 313 37 c 2,85,-1
 311 37 l 2,86,87
 303 37 303 37 292 50 c 0,88,89
 289 53 289 53 278 70 c 256,90,91
 267 87 267 87 264 95 c 0,92,93
 263 100 263 100 263 105 c 2,94,-1
 263 111 l 2,95,96
 263 113 263 113 274 139 c 0,97,98
 284 165 284 165 284 180 c 0,99,100
 285 195 285 195 285 208 c 2,101,-1
 285 278 l 1,102,-1
 280 353 l 2,103,104
 278 389 278 389 270 407 c 0,105,106
 262 426 262 426 242 435 c 0,107,108
 232 440 232 440 222 440 c 0,109,110
 211 440 211 440 200 435 c 0,111,112
 180 427 180 427 160 400 c 256,113,114
 140 373 140 373 126 345 c 0,115,116
 114 317 114 317 107 289 c 0,117,118
 100 263 100 263 100 247 c 2,119,-1
 98 187 l 2,0,1
EndSplineSet
EndChar
StartChar: i
Encoding: 105 105 76
Width: 171
Flags: W
LayerCount: 2
Back
Fore
SplineSet
32 99 m 2,0,1
 32 103 32 103 35 123 c 2,2,-1
 46 166 l 2,3,4
 48 182 48 182 50 216 c 0,5,6
 52 251 52 251 54 284 c 256,7,8
 56 317 56 317 56 339 c 0,9,10
 55 345 55 345 53 377 c 0,11,12
 52 409 52 409 49 425 c 256,13,14
 46 441 46 441 40 455 c 2,15,-1
 28 479 l 1,16,-1
 29 497 l 1,17,-1
 50 496 l 1,18,-1
 85 483 l 1,19,-1
 114 463 l 1,20,-1
 127 445 l 1,21,-1
 127 444 l 2,22,23
 127 437 127 437 118 413 c 0,24,25
 113 399 113 399 111 382 c 0,26,27
 108 365 108 365 108 347 c 2,28,-1
 108 141 l 2,29,30
 108 130 108 130 106 98 c 0,31,32
 104 67 104 67 97 50 c 256,33,34
 90 33 90 33 82 32 c 2,35,-1
 81 32 l 2,36,37
 73 32 73 32 60 52 c 0,38,39
 54 61 54 61 44 80 c 2,40,-1
 32 99 l 2,0,1
84 665 m 1,41,-1
 105 659 l 1,42,-1
 120 644 l 1,43,-1
 126 623 l 1,44,-1
 120 601 l 1,45,-1
 105 586 l 1,46,-1
 84 581 l 1,47,-1
 64 586 l 1,48,-1
 44 623 l 1,49,-1
 64 659 l 1,50,-1
 84 665 l 1,41,-1
EndSplineSet
EndChar
StartChar: j
Encoding: 106 106 77
Width: 175
Flags: W
LayerCount: 2
Back
Fore
SplineSet
122 295 m 1,0,-1
 121 11 l 1,1,-1
 121 -49 l 2,2,3
 120 -101 120 -101 114 -125 c 256,4,5
 108 -149 108 -149 96 -163 c 0,6,7
 84 -178 84 -178 59 -190 c 0,8,9
 37 -200 37 -200 12 -200 c 2,10,-1
 8 -200 l 2,11,12
 -29 -199 -29 -199 -52 -179 c 256,13,14
 -75 -159 -75 -159 -85 -138 c 0,15,16
 -96 -117 -96 -117 -100 -99 c 0,17,18
 -101 -90 -101 -90 -101 -84 c 0,19,20
 -101 -77 -101 -77 -100 -74 c 0,21,22
 -97 -70 -97 -70 -91 -70 c 0,23,24
 -88 -70 -88 -70 -83 -71 c 0,25,26
 -75 -75 -75 -75 -69 -95 c 0,27,28
 -62 -115 -62 -115 -48 -131 c 0,29,30
 -35 -147 -35 -147 -13 -151 c 0,31,32
 -7 -153 -7 -153 0 -153 c 0,33,34
 10 -153 10 -153 20 -149 c 0,35,36
 37 -144 37 -144 48 -131 c 0,37,38
 59 -119 59 -119 63 -94 c 0,39,40
 66 -74 66 -74 66 -44 c 2,41,-1
 66 -29 l 2,42,43
 65 11 65 11 65 77 c 0,44,45
 66 143 66 143 66 182 c 2,46,-1
 66 239 l 1,47,-1
 67 300 l 1,48,-1
 65 376 l 2,49,50
 64 408 64 408 61 421 c 0,51,52
 57 435 57 435 51 447 c 2,53,-1
 36 479 l 1,54,-1
 39 493 l 1,55,-1
 63 493 l 1,56,-1
 89 485 l 1,57,-1
 125 469 l 1,58,59
 139 457 139 457 139 449 c 256,60,61
 139 441 139 441 136 431 c 0,62,63
 127 411 127 411 125 404 c 256,64,65
 123 397 123 397 123 385 c 0,66,67
 122 373 122 373 122 343 c 2,68,-1
 122 295 l 1,0,-1
93 663 m 1,69,-1
 113 657 l 1,70,-1
 129 641 l 1,71,-1
 133 621 l 1,72,-1
 129 599 l 1,73,-1
 113 583 l 1,74,-1
 93 578 l 1,75,-1
 72 583 l 1,76,-1
 57 599 l 1,77,-1
 51 621 l 1,78,-1
 57 641 l 1,79,-1
 72 657 l 1,80,-1
 93 663 l 1,69,-1
EndSplineSet
EndChar
StartChar: k
Encoding: 107 107 78
Width: 480
Flags: W
LayerCount: 2
Back
Fore
SplineSet
173 299 m 1,0,1
 139 276 139 276 132 269 c 2,2,-1
 109 249 l 1,3,4
 109 186 109 186 108 152 c 256,5,6
 107 118 107 118 106 95 c 0,7,8
 104 71 104 71 97 49 c 0,9,10
 91 27 91 27 81 26 c 2,11,-1
 80 26 l 2,12,13
 71 26 71 26 61 40 c 0,14,15
 52 50 52 50 45 71 c 0,16,17
 37 91 37 91 36 102 c 0,18,19
 35 109 35 109 35 118 c 2,20,-1
 35 127 l 1,21,-1
 47 183 l 2,22,23
 49 201 49 201 50 239 c 256,24,25
 51 277 51 277 53 329 c 256,26,27
 55 381 55 381 56 427 c 0,28,29
 56 473 56 473 54 524 c 0,30,31
 53 555 53 555 50 577 c 0,32,33
 48 598 48 598 45 606 c 0,34,35
 42 615 42 615 32 637 c 0,36,37
 26 651 26 651 26 659 c 0,38,39
 26 663 26 663 28 665 c 0,40,41
 34 671 34 671 41 671 c 0,42,43
 47 671 47 671 64 665 c 0,44,45
 80 658 80 658 86 655 c 0,46,47
 91 651 91 651 106 639 c 0,48,49
 121 628 121 628 123 622 c 0,50,51
 125 617 125 617 125 609 c 2,52,-1
 125 603 l 2,53,54
 124 595 124 595 119 574 c 0,55,56
 113 552 113 552 111 534 c 256,57,58
 109 516 109 516 109 487 c 2,59,-1
 109 294 l 1,60,61
 143 330 143 330 162 352 c 0,62,63
 181 373 181 373 200 397 c 0,64,65
 219 420 219 420 229 435 c 256,66,67
 239 450 239 450 241 461 c 2,68,-1
 242 481 l 2,69,70
 243 489 243 489 246 495 c 0,71,72
 250 500 250 500 255 501 c 0,73,74
 261 501 261 501 269 497 c 0,75,76
 277 490 277 490 289 474 c 256,77,78
 301 458 301 458 307 445 c 0,79,80
 313 433 313 433 315 424 c 0,81,82
 315 415 315 415 311 409 c 0,83,84
 309 406 309 406 303 403 c 2,85,-1
 276 393 l 2,86,87
 265 387 265 387 249 372 c 256,88,89
 233 357 233 357 218 341 c 2,90,-1
 197 319 l 1,91,92
 219 287 219 287 239 259 c 0,93,94
 259 230 259 230 269 217 c 0,95,96
 279 203 279 203 309 167 c 256,97,98
 339 131 339 131 355 117 c 0,99,100
 370 104 370 104 391 95 c 2,101,-1
 435 77 l 2,102,103
 449 68 449 68 449 63 c 0,104,105
 448 59 448 59 436 51 c 0,106,107
 425 44 425 44 388 41 c 0,108,109
 363 40 363 40 352 40 c 2,110,-1
 343 40 l 2,111,112
 316 41 316 41 307 51 c 0,113,114
 297 59 297 59 288 82 c 256,115,116
 279 105 279 105 263 134 c 2,117,-1
 228 198 l 1,118,-1
 197 254 l 1,119,-1
 173 299 l 1,0,1
EndSplineSet
EndChar
StartChar: l
Encoding: 108 108 79
Width: 173
Flags: W
LayerCount: 2
Back
Fore
SplineSet
36 131 m 2,0,-1
 48 168 l 2,1,2
 52 183 52 183 54 207 c 0,3,4
 56 230 56 230 57 262 c 0,5,6
 58 295 58 295 58 383 c 2,7,-1
 56 487 l 1,8,-1
 54 559 l 1,9,-1
 51 599 l 1,10,-1
 44 627 l 1,11,-1
 34 645 l 1,12,-1
 30 671 l 1,13,-1
 46 675 l 1,14,-1
 64 669 l 1,15,-1
 88 660 l 1,16,-1
 110 648 l 1,17,-1
 124 636 l 1,18,-1
 126 621 l 1,19,-1
 118 601 l 1,20,-1
 112 567 l 1,21,-1
 110 530 l 1,22,-1
 110 393 l 2,23,24
 111 309 111 309 111 256 c 2,25,-1
 111 211 l 2,26,27
 110 168 110 168 109 138 c 0,28,29
 108 109 108 109 107 88 c 256,30,31
 106 67 106 67 100 49 c 0,32,33
 93 31 93 31 85 29 c 2,34,-1
 84 29 l 2,35,36
 77 29 77 29 62 51 c 0,37,38
 53 65 53 65 46 81 c 0,39,40
 38 97 38 97 36 109 c 0,41,42
 35 115 35 115 35 120 c 0,43,44
 35 126 35 126 36 131 c 2,0,-1
EndSplineSet
EndChar
StartChar: m
Encoding: 109 109 80
Width: 579
Flags: W
LayerCount: 2
Back
Fore
SplineSet
297 401 m 1,0,1
 310 428 310 428 322 447 c 256,2,3
 334 466 334 466 353 478 c 0,4,5
 372 489 372 489 393 493 c 1,6,-1
 403 493 l 2,7,8
 424 493 424 493 443 487 c 0,9,10
 468 478 468 478 480 468 c 0,11,12
 493 457 493 457 507 437 c 0,13,14
 520 417 520 417 525 396 c 0,15,16
 530 374 530 374 531 327 c 0,17,18
 532 281 532 281 533 247 c 0,19,20
 534 230 534 230 534 210 c 256,21,22
 534 190 534 190 533 167 c 0,23,24
 532 114 532 114 529 91 c 0,25,26
 526 67 526 67 520 49 c 0,27,28
 514 29 514 29 508 28 c 2,29,-1
 507 28 l 2,30,31
 501 28 501 28 488 47 c 0,32,33
 472 69 472 69 466 84 c 0,34,35
 462 95 462 95 462 105 c 2,36,-1
 462 111 l 1,37,-1
 471 133 l 2,38,39
 480 154 480 154 481 184 c 0,40,41
 482 213 482 213 484 246 c 0,42,43
 485 268 485 268 485 290 c 2,44,-1
 485 313 l 2,45,46
 484 355 484 355 474 383 c 0,47,48
 466 411 466 411 445 430 c 0,49,50
 426 447 426 447 403 447 c 2,51,-1
 398 447 l 2,52,53
 378 444 378 444 362 427 c 0,54,55
 345 410 345 410 331 370 c 0,56,57
 316 329 316 329 316 310 c 2,58,-1
 316 279 l 1,59,-1
 315 164 l 2,60,61
 316 136 316 136 316 119 c 256,62,63
 316 102 316 102 315 97 c 0,64,65
 313 73 313 73 306 51 c 0,66,67
 300 29 300 29 292 27 c 2,68,-1
 291 27 l 2,69,70
 283 27 283 27 269 48 c 0,71,72
 262 57 262 57 255 77 c 256,73,74
 248 97 248 97 247 105 c 0,75,76
 247 111 247 111 257 140 c 0,77,78
 263 159 263 159 265 202 c 0,79,80
 268 245 268 245 268 259 c 2,81,-1
 267 282 l 1,82,-1
 267 321 l 2,83,84
 266 345 266 345 261 376 c 256,85,86
 256 407 256 407 240 429 c 256,87,88
 224 451 224 451 195 451 c 256,89,90
 166 451 166 451 144 434 c 0,91,92
 126 419 126 419 116 395 c 0,93,94
 105 371 105 371 104 342 c 0,95,96
 103 335 103 335 103 325 c 2,97,-1
 103 314 l 2,98,99
 104 297 104 297 104 243 c 2,100,-1
 104 130 l 2,101,102
 102 101 102 101 101 85 c 256,103,104
 100 69 100 69 93 49 c 256,105,106
 86 29 86 29 80 28 c 2,107,-1
 79 28 l 2,108,109
 73 28 73 28 62 46 c 0,110,111
 51 61 51 61 47 69 c 0,112,113
 43 78 43 78 39 89 c 0,114,115
 35 101 35 101 35 107 c 2,116,-1
 35 108 l 2,117,118
 35 116 35 116 48 152 c 0,119,120
 54 169 54 169 54 203 c 0,121,122
 54 236 54 236 56 281 c 0,123,124
 57 312 57 312 57 336 c 2,125,-1
 57 359 l 2,126,127
 54 396 54 396 48 420 c 0,128,129
 42 445 42 445 34 457 c 0,130,131
 27 471 27 471 27 480 c 0,132,133
 28 489 28 489 36 491 c 2,134,-1
 39 491 l 2,135,136
 46 491 46 491 56 485 c 0,137,138
 82 465 82 465 89 459 c 2,139,-1
 103 443 l 1,140,141
 119 461 119 461 138 475 c 0,142,143
 156 489 156 489 186 491 c 2,144,-1
 193 491 l 2,145,146
 220 491 220 491 247 478 c 0,147,148
 278 463 278 463 285 437 c 2,149,-1
 297 401 l 1,0,1
EndSplineSet
EndChar
StartChar: n
Encoding: 110 110 81
Width: 365
Flags: W
LayerCount: 2
Back
Fore
SplineSet
137 475 m 0,0,1
 159 489 159 489 194 490 c 2,2,-1
 198 490 l 2,3,4
 224 490 224 490 248 477 c 0,5,6
 274 464 274 464 291 441 c 0,7,8
 308 417 308 417 313 388 c 256,9,10
 318 359 318 359 318 320 c 2,11,-1
 318 178 l 2,12,13
 318 165 318 165 317 133 c 0,14,15
 317 102 317 102 315 88 c 0,16,17
 314 73 314 73 307 52 c 0,18,19
 301 31 301 31 296 31 c 2,20,-1
 295 31 l 2,21,22
 289 31 289 31 281 39 c 0,23,24
 267 52 267 52 261 66 c 0,25,26
 255 81 255 81 253 91 c 2,27,-1
 253 111 l 1,28,-1
 262 155 l 2,29,30
 265 168 265 168 267 205 c 2,31,-1
 269 243 l 1,32,-1
 271 305 l 1,33,-1
 271 320 l 2,34,35
 271 362 271 362 266 382 c 0,36,37
 260 405 260 405 241 427 c 0,38,39
 222 447 222 447 189 447 c 0,40,41
 170 447 170 447 151 435 c 0,42,43
 132 424 132 424 120 403 c 0,44,45
 107 381 107 381 105 350 c 0,46,47
 104 342 104 342 104 321 c 0,48,49
 105 299 105 299 105 277 c 2,50,-1
 106 181 l 2,51,52
 105 162 105 162 104 134 c 0,53,54
 104 107 104 107 102 90 c 0,55,56
 101 73 101 73 94 54 c 0,57,58
 88 35 88 35 82 34 c 2,59,-1
 81 34 l 2,60,61
 75 34 75 34 63 52 c 0,62,63
 53 66 53 66 48 76 c 256,64,65
 43 86 43 86 40 96 c 0,66,67
 38 104 38 104 38 112 c 2,68,-1
 38 117 l 1,69,-1
 50 160 l 2,70,71
 52 169 52 169 53 195 c 256,72,73
 54 221 54 221 54 233 c 2,74,-1
 54 293 l 2,75,76
 52 372 52 372 50 396 c 0,77,78
 48 419 48 419 37 440 c 256,79,80
 26 461 26 461 26 473 c 256,81,82
 26 485 26 485 32 487 c 0,83,84
 34 488 34 488 36 488 c 0,85,86
 42 488 42 488 50 483 c 0,87,88
 66 473 66 473 80 457 c 0,89,90
 92 442 92 442 94 442 c 0,91,92
 114 461 114 461 137 475 c 0,0,1
EndSplineSet
EndChar
StartChar: p
Encoding: 112 112 83
Width: 383
Flags: W
LayerCount: 2
Back
Fore
SplineSet
94 95 m 1,0,1
 93 47 93 47 93 14 c 0,2,3
 93 -20 93 -20 94 -39 c 0,4,5
 95 -77 95 -77 96 -97 c 0,6,7
 96 -117 96 -117 94 -145 c 0,8,9
 91 -168 91 -168 84 -183 c 0,10,11
 77 -197 77 -197 70 -199 c 2,12,-1
 69 -199 l 2,13,14
 63 -199 63 -199 52 -182 c 0,15,16
 41 -166 41 -166 34 -147 c 0,17,18
 26 -129 26 -129 26 -120 c 256,19,20
 26 -111 26 -111 30 -93 c 0,21,22
 36 -73 36 -73 38 -55 c 0,23,24
 42 -37 42 -37 42 3 c 2,25,-1
 42 345 l 2,26,27
 43 357 43 357 43 366 c 0,28,29
 43 374 43 374 42 379 c 0,30,31
 42 392 42 392 38 422 c 0,32,33
 34 451 34 451 30 464 c 256,34,35
 26 477 26 477 26 483 c 256,36,37
 26 489 26 489 29 493 c 0,38,39
 31 496 31 496 37 496 c 0,40,41
 41 496 41 496 45 495 c 0,42,43
 58 491 58 491 74 475 c 2,44,-1
 94 456 l 1,45,46
 124 471 124 471 143 479 c 0,47,48
 163 486 163 486 188 487 c 2,49,-1
 199 487 l 2,50,51
 217 487 217 487 234 482 c 0,52,53
 254 475 254 475 275 458 c 256,54,55
 296 441 296 441 310 411 c 0,56,57
 325 380 325 380 332 335 c 0,58,59
 338 290 338 290 338 247 c 0,60,61
 336 201 336 201 324 157 c 256,62,63
 312 113 312 113 290 87 c 256,64,65
 268 61 268 61 241 51 c 0,66,67
 219 43 219 43 198 43 c 2,68,-1
 190 43 l 2,69,70
 150 45 150 45 137 59 c 2,71,-1
 94 95 l 1,0,1
94 389 m 1,72,-1
 94 161 l 1,73,74
 109 135 109 135 124 119 c 0,75,76
 138 103 138 103 166 94 c 0,77,78
 179 90 179 90 191 90 c 0,79,80
 205 90 205 90 218 95 c 0,81,82
 248 106 248 106 262 137 c 0,83,84
 276 169 276 169 280 212 c 256,85,86
 284 255 284 255 284 279 c 0,87,88
 284 304 284 304 279 337 c 0,89,90
 274 369 274 369 260 394 c 0,91,92
 247 419 247 419 224 430 c 0,93,94
 204 441 204 441 182 441 c 2,95,-1
 178 441 l 2,96,97
 152 441 152 441 131 428 c 256,98,99
 110 415 110 415 103 403 c 2,100,-1
 94 389 l 1,72,-1
EndSplineSet
EndChar
StartChar: q
Encoding: 113 113 84
Width: 389
Flags: W
LayerCount: 2
Back
Fore
SplineSet
277 97 m 1,0,1
 252 69 252 69 232 57 c 0,2,3
 213 45 213 45 186 44 c 2,4,-1
 177 44 l 2,5,6
 155 44 155 44 133 52 c 0,7,8
 105 63 105 63 82 89 c 0,9,10
 58 115 58 115 46 157 c 0,11,12
 35 200 35 200 34 242 c 0,13,14
 33 256 33 256 33 269 c 0,15,16
 33 294 33 294 36 315 c 0,17,18
 38 335 38 335 44 363 c 0,19,20
 50 390 50 390 62 415 c 0,21,22
 75 441 75 441 97 458 c 256,23,24
 119 475 119 475 140 481 c 0,25,26
 157 486 157 486 177 486 c 2,27,-1
 188 486 l 2,28,29
 220 483 220 483 234 475 c 2,30,-1
 277 450 l 1,31,32
 278 459 278 459 278 467 c 256,33,34
 278 475 278 475 277 483 c 0,35,36
 277 499 277 499 283 503 c 0,37,38
 286 505 286 505 290 505 c 0,39,40
 297 505 297 505 306 501 c 0,41,42
 316 495 316 495 324 487 c 0,43,44
 332 477 332 477 344 459 c 0,45,46
 355 441 355 441 355 433 c 0,47,48
 354 429 354 429 345 411 c 256,49,50
 336 393 336 393 332 362 c 0,51,52
 330 332 330 332 329 304 c 2,53,-1
 329 255 l 1,54,-1
 328 1 l 1,55,-1
 328 -76 l 2,56,57
 329 -97 329 -97 329 -111 c 256,58,59
 329 -125 329 -125 328 -133 c 0,60,61
 328 -159 328 -159 320 -179 c 0,62,63
 313 -198 313 -198 305 -199 c 0,64,65
 297 -199 297 -199 286 -187 c 0,66,67
 274 -175 274 -175 267 -159 c 0,68,69
 260 -144 260 -144 258 -137 c 2,70,-1
 258 -134 l 2,71,72
 258 -126 258 -126 264 -105 c 0,73,74
 267 -91 267 -91 270 -60 c 0,75,76
 274 -29 274 -29 274 -13 c 2,77,-1
 277 97 l 1,0,1
277 395 m 1,78,79
 270 402 270 402 263 410 c 256,80,81
 256 418 256 418 237 428 c 0,82,83
 218 437 218 437 192 438 c 0,84,85
 168 438 168 438 146 427 c 0,86,87
 123 415 123 415 110 392 c 0,88,89
 96 369 96 369 91 338 c 256,90,91
 86 307 86 307 86 281 c 0,92,93
 86 254 86 254 89 221 c 0,94,95
 93 173 93 173 108 143 c 0,96,97
 122 114 122 114 152 101 c 0,98,99
 168 93 168 93 184 93 c 0,100,101
 199 93 199 93 214 99 c 0,102,103
 246 109 246 109 255 127 c 2,104,-1
 277 161 l 1,105,-1
 277 395 l 1,78,79
EndSplineSet
EndChar
StartChar: r
Encoding: 114 114 85
Width: 326
Flags: W
LayerCount: 2
Back
Fore
SplineSet
103 451 m 1,0,1
 123 465 123 465 141 474 c 256,2,3
 159 483 159 483 185 485 c 0,4,5
 209 485 209 485 237 473 c 0,6,7
 265 460 265 460 278 440 c 0,8,9
 290 419 290 419 291 395 c 0,10,11
 291 370 291 370 286 347 c 0,12,13
 281 327 281 327 271 319 c 0,14,15
 263 311 263 311 257 311 c 0,16,17
 256 311 256 311 254 312 c 0,18,19
 247 315 247 315 247 333 c 2,20,-1
 252 374 l 1,21,-1
 252 377 l 2,22,23
 252 400 252 400 236 419 c 0,24,25
 219 438 219 438 191 438 c 0,26,27
 175 437 175 437 154 427 c 256,28,29
 133 417 133 417 128 406 c 2,30,-1
 111 380 l 1,31,-1
 111 125 l 2,32,33
 110 103 110 103 108 86 c 0,34,35
 106 70 106 70 100 52 c 0,36,37
 93 34 93 34 87 33 c 2,38,-1
 86 33 l 2,39,40
 80 33 80 33 69 47 c 0,41,42
 63 55 63 55 55 70 c 256,43,44
 47 85 47 85 45 91 c 2,45,-1
 45 96 l 2,46,47
 45 102 45 102 46 109 c 2,48,-1
 55 150 l 2,49,50
 59 167 59 167 60 197 c 2,51,-1
 61 244 l 2,52,53
 63 311 63 311 64 332 c 0,54,55
 64 352 64 352 61 385 c 0,56,57
 58 422 58 422 51 447 c 2,58,-1
 36 490 l 2,59,60
 35 496 35 496 35 500 c 0,61,62
 35 505 35 505 37 508 c 0,63,64
 40 512 40 512 45 512 c 0,65,66
 47 512 47 512 49 511 c 0,67,68
 55 510 55 510 69 497 c 0,69,70
 83 483 83 483 89 474 c 2,71,-1
 103 451 l 1,0,1
EndSplineSet
EndChar
StartChar: s
Encoding: 115 115 86
Width: 331
Flags: W
LayerCount: 2
Back
Fore
SplineSet
230 459 m 1,0,1
 234 470 234 470 243 482 c 0,2,3
 252 493 252 493 261 493 c 0,4,5
 270 492 270 492 273 456 c 0,6,7
 274 443 274 443 274 429 c 256,8,9
 274 415 274 415 273 401 c 2,10,-1
 273 344 l 2,11,12
 273 331 273 331 268 327 c 0,13,14
 264 325 264 325 260 325 c 0,15,16
 257 325 257 325 253 327 c 0,17,18
 246 329 246 329 241 348 c 256,19,20
 236 367 236 367 229 386 c 0,21,22
 221 405 221 405 209 419 c 0,23,24
 198 433 198 433 172 442 c 0,25,26
 162 446 162 446 152 446 c 0,27,28
 137 446 137 446 122 437 c 0,29,30
 98 423 98 423 90 394 c 0,31,32
 86 380 86 380 86 368 c 256,33,34
 86 356 86 356 90 346 c 0,35,36
 97 327 97 327 116 317 c 0,37,38
 135 306 135 306 171 296 c 0,39,40
 208 286 208 286 231 275 c 0,41,42
 254 263 254 263 272 242 c 0,43,44
 291 221 291 221 294 181 c 0,45,46
 295 172 295 172 295 163 c 0,47,48
 295 134 295 134 285 112 c 0,49,50
 274 89 274 89 256 73 c 0,51,52
 237 57 237 57 214 50 c 0,53,54
 194 45 194 45 172 45 c 2,55,-1
 164 45 l 2,56,57
 129 47 129 47 104 58 c 0,58,59
 80 69 80 69 66 85 c 0,60,61
 52 99 52 99 46 117 c 0,62,63
 39 134 39 134 34 155 c 0,64,65
 31 168 31 168 31 177 c 0,66,67
 31 182 31 182 32 185 c 0,68,69
 34 195 34 195 40 197 c 0,70,71
 41 198 41 198 43 198 c 0,72,73
 48 198 48 198 56 190 c 0,74,75
 60 185 60 185 66 171 c 0,76,77
 71 156 71 156 83 137 c 0,78,79
 95 119 95 119 113 106 c 0,80,81
 132 93 132 93 166 93 c 2,82,-1
 170 93 l 2,83,84
 192 93 192 93 210 102 c 0,85,86
 230 111 230 111 239 132 c 0,87,88
 244 145 244 145 244 160 c 0,89,90
 244 170 244 170 242 181 c 0,91,92
 235 205 235 205 221 220 c 0,93,94
 206 235 206 235 184 245 c 2,95,-1
 114 268 l 2,96,97
 78 279 78 279 63 295 c 0,98,99
 47 311 47 311 40 341 c 0,100,101
 37 352 37 352 37 364 c 0,102,103
 37 385 37 385 46 410 c 0,104,105
 52 429 52 429 65 447 c 256,106,107
 78 465 78 465 99 476 c 256,108,109
 120 487 120 487 147 488 c 0,110,111
 178 488 178 488 203 472 c 0,112,113
 224 459 224 459 229 459 c 2,114,-1
 230 459 l 1,0,1
EndSplineSet
EndChar
StartChar: t
Encoding: 116 116 87
Width: 354
Flags: W
LayerCount: 2
Back
Fore
SplineSet
186 429 m 1,0,1
 184 409 184 409 184 399 c 2,2,-1
 184 345 l 1,3,-1
 181 253 l 1,4,-1
 181 187 l 2,5,6
 180 175 180 175 180 164 c 0,7,8
 180 141 180 141 185 128 c 0,9,10
 191 109 191 109 208 103 c 0,11,12
 216 100 216 100 223 100 c 0,13,14
 233 100 233 100 242 105 c 0,15,16
 254 112 254 112 262 132 c 0,17,18
 271 151 271 151 274 171 c 0,19,20
 278 189 278 189 280 222 c 0,21,22
 284 254 284 254 290 255 c 2,23,-1
 291 255 l 2,24,25
 297 255 297 255 304 241 c 0,26,27
 311 229 311 229 311 205 c 2,28,-1
 311 149 l 2,29,30
 310 124 310 124 304 103 c 0,31,32
 298 81 298 81 283 65 c 256,33,34
 268 49 268 49 234 47 c 0,35,36
 228 46 228 46 223 46 c 0,37,38
 214 46 214 46 204 48 c 0,39,40
 187 51 187 51 169 63 c 0,41,42
 150 75 150 75 142 91 c 256,43,44
 134 107 134 107 132 135 c 0,45,46
 128 164 128 164 128 195 c 0,47,48
 128 225 128 225 130 275 c 0,49,50
 132 311 132 311 132 325 c 2,51,-1
 132 422 l 1,52,53
 110 415 110 415 93 411 c 0,54,55
 83 409 83 409 75 409 c 0,56,57
 69 409 69 409 63 410 c 0,58,59
 52 413 52 413 38 424 c 0,60,61
 26 435 26 435 26 442 c 256,62,63
 26 449 26 449 27 452 c 0,64,65
 30 456 30 456 44 456 c 2,66,-1
 58 456 l 2,67,68
 74 456 74 456 87 459 c 2,69,-1
 130 468 l 1,70,-1
 129 517 l 2,71,72
 128 557 128 557 124 571 c 2,73,-1
 114 591 l 2,74,75
 109 602 109 602 109 608 c 0,76,77
 109 611 109 611 110 613 c 0,78,79
 114 617 114 617 122 617 c 0,80,81
 126 617 126 617 130 616 c 256,82,83
 134 615 134 615 164 602 c 0,84,85
 194 590 194 590 197 581 c 0,86,87
 200 573 200 573 200 564 c 0,88,89
 198 555 198 555 195 543 c 0,90,91
 191 530 191 530 190 525 c 2,92,-1
 190 508 l 1,93,-1
 188 475 l 1,94,95
 225 481 225 481 241 487 c 0,96,97
 256 494 256 494 261 495 c 0,98,99
 271 495 271 495 285 489 c 0,100,101
 298 481 298 481 310 473 c 0,102,103
 319 464 319 464 319 457 c 2,104,-1
 319 456 l 2,105,106
 318 449 318 449 302 444 c 0,107,108
 288 439 288 439 260 439 c 256,109,110
 232 439 232 439 224 437 c 2,111,-1
 186 429 l 1,0,1
EndSplineSet
EndChar
StartChar: u
Encoding: 117 117 88
Width: 385
Flags: W
LayerCount: 2
Back
Fore
SplineSet
278 77 m 2,0,1
 259 63 259 63 246 57 c 0,2,3
 232 51 232 51 208 46 c 0,4,5
 192 43 192 43 178 43 c 0,6,7
 169 43 169 43 160 44 c 0,8,9
 128 47 128 47 106 61 c 0,10,11
 85 75 85 75 74 93 c 0,12,13
 62 111 62 111 57 139 c 0,14,15
 52 166 52 166 52 205 c 2,16,-1
 52 273 l 1,17,-1
 50 351 l 1,18,-1
 50 398 l 2,19,20
 50 423 50 423 48 435 c 0,21,22
 46 449 46 449 42 459 c 2,23,-1
 32 475 l 2,24,25
 27 486 27 486 27 491 c 0,26,27
 27 494 27 494 28 495 c 0,28,29
 32 501 32 501 40 501 c 2,30,-1
 43 501 l 2,31,32
 49 501 49 501 58 497 c 0,33,34
 70 491 70 491 84 486 c 0,35,36
 97 481 97 481 103 474 c 0,37,38
 108 467 108 467 109 459 c 0,39,40
 109 452 109 452 106 439 c 0,41,42
 102 425 102 425 101 409 c 256,43,44
 100 393 100 393 99 375 c 2,45,-1
 99 271 l 2,46,47
 99 240 99 240 98 217 c 0,48,49
 98 181 98 181 100 165 c 0,50,51
 104 137 104 137 118 117 c 0,52,53
 133 97 133 97 163 90 c 0,54,55
 174 87 174 87 185 87 c 0,56,57
 200 87 200 87 215 92 c 0,58,59
 242 101 242 101 257 117 c 256,60,61
 272 133 272 133 277 153 c 256,62,63
 282 173 282 173 285 225 c 0,64,65
 287 277 287 277 287 292 c 2,66,-1
 286 327 l 1,67,-1
 286 389 l 2,68,69
 286 393 286 393 284 417 c 256,70,71
 282 441 282 441 279 447 c 0,72,73
 277 453 277 453 268 471 c 0,74,75
 263 483 263 483 263 489 c 0,76,77
 263 492 263 492 264 493 c 0,78,79
 269 497 269 497 276 498 c 0,80,81
 283 498 283 498 297 492 c 0,82,83
 312 486 312 486 317 483 c 0,84,85
 323 479 323 479 334 472 c 0,86,87
 346 465 346 465 348 459 c 0,88,89
 350 454 350 454 350 445 c 0,90,91
 348 439 348 439 344 423 c 256,92,93
 340 407 340 407 338 393 c 256,94,95
 336 379 336 379 335 369 c 0,96,97
 335 357 335 357 336 327 c 2,98,-1
 336 182 l 2,99,100
 336 166 336 166 335 136 c 0,101,102
 335 107 335 107 333 91 c 256,103,104
 331 75 331 75 325 55 c 0,105,106
 319 37 319 37 313 35 c 0,107,108
 307 32 307 32 302 32 c 0,109,110
 288 32 288 32 286 53 c 0,111,112
 284 78 284 78 279 78 c 2,113,-1
 278 77 l 2,0,1
EndSplineSet
EndChar
StartChar: v
Encoding: 118 118 89
Width: 442
Flags: W
LayerCount: 2
Back
Fore
SplineSet
401 432 m 0,0,1
 401 427 401 427 397 417 c 2,2,-1
 375 388 l 2,3,4
 370 381 370 381 367 370 c 256,5,6
 364 359 364 359 346 303 c 256,7,8
 328 247 328 247 328 246 c 2,9,-1
 308 192 l 2,10,11
 288 137 288 137 284 125 c 0,12,13
 278 113 278 113 268 91 c 0,14,15
 258 70 258 70 252 58 c 0,16,17
 246 47 246 47 238 41 c 0,18,19
 230 37 230 37 223 37 c 0,20,21
 213 37 213 37 204 45 c 0,22,23
 195 54 195 54 186 75 c 0,24,25
 178 95 178 95 168 117 c 0,26,27
 160 138 160 138 150 162 c 0,28,29
 141 186 141 186 131 215 c 0,30,31
 120 243 120 243 114 263 c 0,32,33
 108 282 108 282 100 307 c 0,34,35
 92 331 92 331 84 360 c 0,36,37
 75 388 75 388 71 403 c 0,38,39
 66 417 66 417 62 428 c 0,40,41
 57 439 57 439 48 451 c 2,42,-1
 32 471 l 2,43,44
 26 477 26 477 26 484 c 256,45,46
 26 491 26 491 33 494 c 0,47,48
 36 496 36 496 41 496 c 0,49,50
 48 496 48 496 58 493 c 2,51,-1
 86 486 l 2,52,53
 96 483 96 483 109 478 c 256,54,55
 122 473 122 473 130 464 c 256,56,57
 138 455 138 455 138 450 c 256,58,59
 138 445 138 445 135 432 c 0,60,61
 133 424 133 424 133 415 c 0,62,63
 133 409 133 409 134 403 c 0,64,65
 136 388 136 388 139 375 c 0,66,67
 142 361 142 361 153 325 c 0,68,69
 164 290 164 290 172 261 c 2,70,-1
 186 203 l 1,71,-1
 206 133 l 2,72,73
 218 81 218 81 223 81 c 0,74,75
 226 82 226 82 237 119 c 2,76,-1
 256 182 l 2,77,78
 262 199 262 199 273 244 c 256,79,80
 284 289 284 289 294 324 c 0,81,82
 303 360 303 360 307 376 c 0,83,84
 310 393 310 393 314 414 c 0,85,86
 317 435 317 435 317 443 c 2,87,-1
 312 479 l 2,88,89
 312 495 312 495 320 499 c 0,90,91
 323 501 323 501 326 501 c 0,92,93
 334 501 334 501 348 493 c 0,94,95
 361 486 361 486 372 478 c 0,96,97
 382 469 382 469 391 456 c 256,98,99
 400 443 400 443 401 432 c 0,0,1
EndSplineSet
EndChar
StartChar: w
Encoding: 119 119 90
Width: 575
Flags: W
LayerCount: 2
Back
Fore
SplineSet
274 257 m 0,0,1
 265 227 265 227 248 177 c 0,2,3
 232 127 232 127 220 99 c 0,4,5
 209 72 209 72 201 57 c 0,6,7
 193 43 193 43 185 37 c 0,8,9
 178 32 178 32 173 32 c 2,10,-1
 171 32 l 2,11,12
 164 33 164 33 158 43 c 256,13,14
 152 53 152 53 147 65 c 256,15,16
 142 77 142 77 132 112 c 0,17,18
 122 146 122 146 116 166 c 0,19,20
 111 185 111 185 103 220 c 0,21,22
 94 255 94 255 88 279 c 0,23,24
 82 304 82 304 80 311 c 256,25,26
 78 318 78 318 72 350 c 0,27,28
 66 381 66 381 62 403 c 256,29,30
 58 425 58 425 53 439 c 0,31,32
 49 452 49 452 45 459 c 2,33,-1
 32 475 l 2,34,35
 29 480 29 480 29 484 c 0,36,37
 29 486 29 486 30 488 c 0,38,39
 32 494 32 494 39 498 c 0,40,41
 41 499 41 499 45 499 c 0,42,43
 53 499 53 499 67 495 c 0,44,45
 94 485 94 485 104 480 c 0,46,47
 114 476 114 476 123 467 c 256,48,49
 132 458 132 458 132 448 c 2,50,-1
 123 419 l 2,51,52
 122 415 122 415 122 409 c 0,53,54
 122 402 122 402 124 391 c 2,55,-1
 134 324 l 2,56,57
 136 304 136 304 142 267 c 0,58,59
 148 229 148 229 152 205 c 256,60,61
 156 181 156 181 165 137 c 0,62,63
 173 97 173 97 178 97 c 2,64,-1
 179 97 l 2,65,66
 182 98 182 98 188 121 c 2,67,-1
 209 183 l 2,68,69
 214 200 214 200 227 256 c 0,70,71
 240 311 240 311 244 326 c 0,72,73
 247 340 247 340 253 369 c 0,74,75
 260 399 260 399 263 418 c 256,76,77
 266 437 266 437 273 446 c 256,78,79
 280 455 280 455 295 458 c 2,80,-1
 298 458 l 2,81,82
 312 458 312 458 324 437 c 0,83,84
 327 430 327 430 331 413 c 2,85,-1
 340 375 l 2,86,87
 340 373 340 373 344 341 c 0,88,89
 349 311 349 311 357 271 c 0,90,91
 364 233 364 233 375 195 c 0,92,93
 385 157 385 157 391 123 c 0,94,95
 395 92 395 92 399 92 c 0,96,97
 400 92 400 92 400 93 c 0,98,99
 402 95 402 95 406 115 c 2,100,-1
 416 164 l 2,101,102
 418 178 418 178 429 224 c 0,103,104
 439 271 439 271 446 305 c 0,105,106
 452 339 452 339 457 369 c 0,107,108
 462 400 462 400 464 421 c 0,109,110
 465 428 465 428 465 434 c 0,111,112
 465 450 465 450 461 462 c 256,113,114
 457 474 457 474 457 482 c 0,115,116
 457 485 457 485 458 487 c 0,117,118
 459 494 459 494 464 496 c 0,119,120
 467 497 467 497 470 497 c 0,121,122
 474 497 474 497 480 495 c 0,123,124
 496 487 496 487 509 481 c 0,125,126
 521 473 521 473 530 460 c 0,127,128
 538 449 538 449 538 439 c 2,129,-1
 538 435 l 2,130,131
 538 431 538 431 527 414 c 256,132,133
 516 397 516 397 510 366 c 2,134,-1
 496 302 l 1,135,-1
 484 247 l 1,136,-1
 464 175 l 1,137,-1
 450 123 l 2,138,139
 446 105 446 105 436 82 c 0,140,141
 426 58 426 58 417 43 c 0,142,143
 408 29 408 29 400 29 c 256,144,145
 392 29 392 29 383 39 c 256,146,147
 374 49 374 49 366 75 c 2,148,-1
 339 149 l 2,149,150
 332 167 332 167 321 211 c 0,151,152
 310 254 310 254 300 286 c 0,153,154
 292 314 292 314 292 318 c 1,155,156
 282 287 282 287 274 257 c 0,0,1
EndSplineSet
EndChar
StartChar: x
Encoding: 120 120 91
Width: 471
Flags: W
LayerCount: 2
Back
Fore
SplineSet
235 247 m 1,0,1
 220 229 220 229 210 217 c 0,2,3
 200 204 200 204 192 193 c 2,4,-1
 156 143 l 1,5,-1
 112 91 l 2,6,7
 88 59 88 59 67 45 c 0,8,9
 53 36 53 36 45 36 c 0,10,11
 41 36 41 36 39 38 c 0,12,13
 34 43 34 43 34 57 c 2,14,-1
 34 65 l 2,15,16
 35 84 35 84 40 99 c 0,17,18
 44 115 44 115 52 120 c 2,19,-1
 71 127 l 2,20,21
 80 130 80 130 92 141 c 0,22,23
 104 153 104 153 133 189 c 0,24,25
 162 227 162 227 166 231 c 2,26,-1
 208 281 l 1,27,28
 201 289 201 289 195 297 c 0,29,30
 190 305 190 305 185 311 c 0,31,32
 181 316 181 316 142 363 c 2,33,-1
 124 386 l 2,34,35
 102 412 102 412 87 425 c 0,36,37
 72 439 72 439 53 451 c 256,38,39
 34 463 34 463 32 470 c 0,40,41
 31 474 31 474 31 477 c 256,42,43
 31 480 31 480 32 482 c 0,44,45
 34 487 34 487 48 488 c 2,46,-1
 55 488 l 2,47,48
 66 488 66 488 78 486 c 2,49,-1
 115 479 l 2,50,51
 137 477 137 477 142 472 c 0,52,53
 148 467 148 467 150 461 c 2,54,-1
 154 432 l 2,55,56
 156 421 156 421 168 405 c 2,57,-1
 194 371 l 1,58,-1
 218 337 l 1,59,-1
 235 313 l 1,60,61
 260 343 260 343 274 359 c 2,62,-1
 329 427 l 2,63,64
 356 459 356 459 368 475 c 0,65,66
 378 491 378 491 386 499 c 256,67,68
 394 507 394 507 400 507 c 0,69,70
 406 505 406 505 410 487 c 0,71,72
 414 468 414 468 416 455 c 0,73,74
 417 448 417 448 417 442 c 256,75,76
 417 436 417 436 416 431 c 0,77,78
 414 419 414 419 407 413 c 2,79,-1
 382 405 l 2,80,81
 372 401 372 401 357 386 c 256,82,83
 342 371 342 371 329 357 c 2,84,-1
 302 327 l 1,85,-1
 272 294 l 1,86,-1
 261 281 l 1,87,88
 290 248 290 248 304 231 c 2,89,-1
 350 169 l 2,90,91
 368 147 368 147 382 130 c 0,92,93
 396 114 396 114 411 97 c 0,94,95
 426 79 426 79 433 63 c 0,96,97
 437 52 437 52 437 47 c 0,98,99
 437 44 437 44 436 42 c 0,100,101
 434 39 434 39 427 39 c 256,102,103
 420 39 420 39 408 42 c 0,104,105
 383 48 383 48 367 55 c 0,106,107
 351 63 351 63 344 72 c 0,108,109
 336 82 336 82 332 97 c 0,110,111
 328 111 328 111 325 117 c 0,112,113
 322 124 322 124 300 158 c 0,114,115
 278 191 278 191 269 203 c 0,116,117
 261 214 261 214 252 227 c 2,118,-1
 235 247 l 1,0,1
EndSplineSet
EndChar
StartChar: y
Encoding: 121 121 92
Width: 502
Flags: W
LayerCount: 2
Back
Fore
SplineSet
251 32 m 1,0,1
 223 81 223 81 211 106 c 0,2,3
 199 130 199 130 169 196 c 0,4,5
 141 262 141 262 131 284 c 0,6,7
 122 305 122 305 112 332 c 0,8,9
 101 358 101 358 93 383 c 0,10,11
 84 408 84 408 77 423 c 0,12,13
 71 438 71 438 61 445 c 2,14,-1
 36 461 l 2,15,16
 27 470 27 470 27 475 c 0,17,18
 27 477 27 477 28 478 c 0,19,20
 31 485 31 485 40 487 c 0,21,22
 49 490 49 490 63 490 c 0,23,24
 81 489 81 489 98 485 c 256,25,26
 115 481 115 481 131 473 c 256,27,28
 147 465 147 465 149 457 c 2,29,-1
 149 454 l 2,30,31
 149 449 149 449 147 436 c 0,32,33
 146 430 146 430 146 424 c 0,34,35
 146 412 146 412 149 398 c 0,36,37
 153 379 153 379 160 357 c 0,38,39
 167 334 167 334 184 292 c 2,40,-1
 211 225 l 2,41,42
 223 193 223 193 232 169 c 256,43,44
 241 145 241 145 249 128 c 0,45,46
 259 112 259 112 266 112 c 256,47,48
 273 112 273 112 285 140 c 0,49,50
 294 165 294 165 299 179 c 0,51,52
 305 193 305 193 320 239 c 0,53,54
 335 286 335 286 339 297 c 2,55,-1
 358 351 l 1,56,-1
 373 395 l 2,57,58
 383 425 383 425 384 435 c 2,59,-1
 384 441 l 2,60,61
 384 453 384 453 381 467 c 0,62,63
 378 478 378 478 378 484 c 0,64,65
 378 487 378 487 379 488 c 0,66,67
 381 491 381 491 389 495 c 0,68,69
 391 496 391 496 393 496 c 0,70,71
 401 496 401 496 416 488 c 0,72,73
 436 477 436 477 453 459 c 0,74,75
 469 442 469 442 469 430 c 2,76,-1
 469 429 l 2,77,78
 468 422 468 422 463 416 c 2,79,-1
 451 406 l 2,80,81
 443 399 443 399 434 383 c 0,82,83
 426 368 426 368 414 342 c 0,84,85
 403 317 403 317 388 281 c 256,86,87
 373 245 373 245 347 168 c 256,88,89
 321 91 321 91 299 15 c 0,90,91
 279 -61 279 -61 267 -88 c 256,92,93
 255 -115 255 -115 238 -141 c 0,94,95
 221 -166 221 -166 201 -183 c 0,96,97
 181 -199 181 -199 139 -200 c 2,98,-1
 135 -200 l 2,99,100
 110 -200 110 -200 88 -189 c 0,101,102
 63 -177 63 -177 53 -159 c 256,103,104
 43 -141 43 -141 37 -118 c 0,105,106
 33 -105 33 -105 33 -95 c 0,107,108
 33 -88 33 -88 35 -82 c 0,109,110
 41 -68 41 -68 47 -68 c 2,111,-1
 48 -68 l 2,112,113
 54 -68 54 -68 61 -80 c 2,114,-1
 77 -117 l 2,115,116
 87 -138 87 -138 101 -147 c 0,117,118
 112 -155 112 -155 127 -155 c 0,119,120
 132 -155 132 -155 137 -154 c 0,121,122
 158 -152 158 -152 174 -140 c 0,123,124
 189 -127 189 -127 206 -96 c 256,125,126
 223 -65 223 -65 229 -41 c 2,127,-1
 251 32 l 1,0,1
EndSplineSet
EndChar
StartChar: z
Encoding: 122 122 93
Width: 378
Flags: W
LayerCount: 2
Back
Fore
SplineSet
104 92 m 1,0,1
 134 95 134 95 162 97 c 0,2,3
 190 100 190 100 202 101 c 2,4,-1
 238 107 l 2,5,6
 258 109 258 109 272 114 c 0,7,8
 287 119 287 119 291 119 c 0,9,10
 299 118 299 118 306 112 c 0,11,12
 314 105 314 105 324 92 c 0,13,14
 336 79 336 79 339 71 c 0,15,16
 342 66 342 66 342 62 c 2,17,-1
 342 60 l 2,18,19
 340 55 340 55 324 55 c 0,20,21
 316 55 316 55 299 57 c 0,22,23
 281 59 281 59 262 59 c 0,24,25
 250 59 250 59 215 58 c 0,26,27
 181 57 181 57 173 55 c 0,28,29
 165 55 165 55 137 49 c 0,30,31
 110 45 110 45 96 39 c 256,32,33
 82 33 82 33 79 33 c 0,34,35
 68 33 68 33 60 41 c 256,36,37
 52 49 52 49 44 68 c 0,38,39
 38 83 38 83 38 89 c 2,40,-1
 38 92 l 2,41,42
 38 94 38 94 50 103 c 0,43,44
 62 111 62 111 70 127 c 0,45,46
 78 142 78 142 98 179 c 2,47,-1
 140 257 l 2,48,49
 162 298 162 298 184 338 c 0,50,51
 206 377 206 377 219 397 c 0,52,53
 229 412 229 412 229 419 c 0,54,55
 229 422 229 422 228 423 c 0,56,57
 224 429 224 429 214 432 c 0,58,59
 211 433 211 433 208 433 c 0,60,61
 198 433 198 433 182 429 c 2,62,-1
 136 422 l 2,63,64
 118 419 118 419 103 412 c 256,65,66
 88 405 88 405 83 405 c 0,67,68
 74 405 74 405 58 418 c 256,69,70
 42 431 42 431 34 438 c 0,71,72
 28 445 28 445 28 449 c 0,73,74
 28 456 28 456 43 459 c 0,75,76
 58 463 58 463 75 463 c 0,77,78
 91 465 91 465 118 467 c 0,79,80
 144 469 144 469 170 473 c 2,81,-1
 223 480 l 2,82,83
 240 482 240 482 254 486 c 0,84,85
 264 489 264 489 269 489 c 2,86,-1
 271 489 l 2,87,88
 277 488 277 488 288 475 c 0,89,90
 300 463 300 463 304 451 c 0,91,92
 306 446 306 446 306 442 c 0,93,94
 306 435 306 435 302 429 c 0,95,96
 300 425 300 425 289 417 c 0,97,98
 279 409 279 409 271 397 c 0,99,100
 264 386 264 386 251 363 c 0,101,102
 238 339 238 339 222 311 c 0,103,104
 206 284 206 284 173 225 c 0,105,106
 140 165 140 165 122 129 c 2,107,-1
 104 92 l 1,0,1
EndSplineSet
EndChar
StartChar: braceleft
Encoding: 123 123 94
Width: 293
Flags: W
LayerCount: 2
Back
Fore
SplineSet
70 310 m 1,0,1
 78 305 78 305 84 301 c 256,2,3
 90 297 90 297 105 287 c 256,4,5
 120 277 120 277 135 261 c 256,6,7
 150 245 150 245 159 224 c 0,8,9
 168 204 168 204 173 178 c 256,10,11
 178 152 178 152 179 129 c 0,12,13
 179 106 179 106 171 62 c 0,14,15
 163 19 163 19 160 -9 c 0,16,17
 159 -15 159 -15 159 -22 c 0,18,19
 159 -43 159 -43 166 -67 c 0,20,21
 174 -95 174 -95 189 -113 c 0,22,23
 204 -129 204 -129 221 -140 c 256,24,25
 238 -151 238 -151 244 -157 c 0,26,27
 248 -162 248 -162 248 -166 c 2,28,-1
 248 -167 l 2,29,30
 246 -171 246 -171 236 -171 c 2,31,-1
 231 -171 l 2,32,33
 218 -171 218 -171 201 -163 c 0,34,35
 181 -153 181 -153 165 -141 c 256,36,37
 149 -129 149 -129 136 -108 c 0,38,39
 124 -88 124 -88 117 -68 c 0,40,41
 110 -47 110 -47 108 -23 c 0,42,43
 107 -11 107 -11 107 0 c 256,44,45
 107 11 107 11 108 21 c 0,46,47
 108 31 108 31 116 63 c 0,48,49
 122 96 122 96 127 129 c 0,50,51
 131 153 131 153 131 172 c 0,52,53
 131 180 131 180 130 187 c 0,54,55
 128 221 128 221 116 240 c 0,56,57
 105 259 105 259 87 272 c 0,58,59
 68 285 68 285 57 289 c 2,60,-1
 34 297 l 1,61,-1
 34 324 l 1,62,63
 50 329 50 329 63 334 c 256,64,65
 76 339 76 339 91 350 c 256,66,67
 106 361 106 361 118 381 c 256,68,69
 130 401 130 401 132 429 c 0,70,71
 133 436 133 436 133 444 c 0,72,73
 133 467 133 467 128 495 c 0,74,75
 124 523 124 523 117 556 c 256,76,77
 110 589 110 589 109 605 c 0,78,79
 108 611 108 611 108 619 c 0,80,81
 108 631 108 631 110 645 c 0,82,83
 112 668 112 668 120 691 c 256,84,85
 128 714 128 714 142 731 c 0,86,87
 156 749 156 749 168 759 c 0,88,89
 182 769 182 769 202 781 c 256,90,91
 222 793 222 793 236 793 c 0,92,93
 248 792 248 792 250 788 c 2,94,-1
 250 787 l 2,95,96
 250 784 250 784 244 777 c 0,97,98
 241 773 241 773 224 763 c 0,99,100
 208 753 208 753 191 734 c 0,101,102
 175 715 175 715 167 686 c 0,103,104
 162 669 162 669 162 647 c 0,105,106
 162 632 162 632 164 615 c 0,107,108
 164 603 164 603 172 559 c 256,109,110
 180 515 180 515 180 489 c 0,111,112
 180 467 180 467 175 443 c 0,113,114
 170 418 170 418 160 397 c 0,115,116
 150 377 150 377 136 361 c 256,117,118
 122 345 122 345 105 332 c 0,119,120
 88 320 88 320 83 317 c 2,121,-1
 70 310 l 1,0,1
EndSplineSet
EndChar
StartChar: braceright
Encoding: 125 125 96
Width: 293
Flags: W
LayerCount: 2
Back
Fore
SplineSet
212 310 m 1,0,1
 203 315 203 315 198 318 c 0,2,3
 192 321 192 321 176 333 c 0,4,5
 159 345 159 345 145 361 c 256,6,7
 131 377 131 377 121 397 c 0,8,9
 111 418 111 418 106 443 c 0,10,11
 102 467 102 467 101 491 c 0,12,13
 101 515 101 515 109 559 c 256,14,15
 117 603 117 603 120 631 c 0,16,17
 121 638 121 638 121 644 c 0,18,19
 121 665 121 665 114 688 c 0,20,21
 106 714 106 714 90 734 c 0,22,23
 74 753 74 753 57 763 c 256,24,25
 40 773 40 773 36 779 c 256,26,27
 32 785 32 785 32 788 c 0,28,29
 34 792 34 792 44 793 c 0,30,31
 59 793 59 793 80 781 c 0,32,33
 100 769 100 769 113 759 c 256,34,35
 126 749 126 749 140 731 c 0,36,37
 154 714 154 714 162 691 c 256,38,39
 170 668 170 668 172 645 c 0,40,41
 173 633 173 633 173 622 c 256,42,43
 173 611 173 611 172 600 c 256,44,45
 171 589 171 589 164 556 c 0,46,47
 158 523 158 523 153 490 c 0,48,49
 149 466 149 466 149 447 c 0,50,51
 149 440 149 440 150 433 c 0,52,53
 152 401 152 401 164 381 c 256,54,55
 176 361 176 361 192 349 c 0,56,57
 210 337 210 337 224 333 c 2,58,-1
 248 324 l 1,59,-1
 248 297 l 1,60,61
 232 292 232 292 221 287 c 0,62,63
 209 283 209 283 193 271 c 0,64,65
 176 259 176 259 165 240 c 256,66,67
 154 221 154 221 152 192 c 0,68,69
 151 184 151 184 151 175 c 0,70,71
 151 153 151 153 155 127 c 0,72,73
 159 96 159 96 166 63 c 0,74,75
 173 31 173 31 175 16 c 2,76,-1
 175 5 l 2,77,78
 175 -7 175 -7 174 -23 c 0,79,80
 171 -47 171 -47 164 -68 c 0,81,82
 158 -88 158 -88 145 -108 c 0,83,84
 132 -129 132 -129 116 -141 c 256,85,86
 100 -153 100 -153 80 -163 c 0,87,88
 62 -172 62 -172 50 -172 c 2,89,-1
 48 -172 l 2,90,91
 35 -171 35 -171 34 -167 c 2,92,-1
 34 -165 l 2,93,94
 34 -161 34 -161 39 -156 c 256,95,96
 44 -151 44 -151 60 -140 c 0,97,98
 78 -129 78 -129 92 -113 c 0,99,100
 108 -95 108 -95 116 -65 c 0,101,102
 121 -45 121 -45 121 -20 c 0,103,104
 121 -7 121 -7 120 7 c 0,105,106
 118 19 118 19 110 62 c 0,107,108
 103 101 103 101 103 125 c 2,109,-1
 103 131 l 2,110,111
 103 152 103 152 108 178 c 0,112,113
 114 204 114 204 123 224 c 0,114,115
 132 245 132 245 147 261 c 256,116,117
 162 277 162 277 177 288 c 0,118,119
 193 299 193 299 201 303 c 2,120,-1
 212 310 l 1,0,1
EndSplineSet
EndChar
StartChar: asciitilde
Encoding: 126 126 97
Width: 412
Flags: W
LayerCount: 2
Back
Fore
SplineSet
55 609 m 0,0,1
 60 616 60 616 70 630 c 256,2,3
 80 644 80 644 91 656 c 0,4,5
 102 667 102 667 110 675 c 0,6,7
 118 682 118 682 128 687 c 256,8,9
 138 692 138 692 148 692 c 0,10,11
 157 691 157 691 170 685 c 0,12,13
 182 679 182 679 210 661 c 256,14,15
 238 643 238 643 256 635 c 0,16,17
 272 629 272 629 286 629 c 2,18,-1
 290 629 l 2,19,20
 310 630 310 630 326 643 c 0,21,22
 342 655 342 655 356 669 c 0,23,24
 368 683 368 683 374 688 c 0,25,26
 378 693 378 693 382 693 c 0,27,28
 384 693 384 693 388 691 c 0,29,30
 390 690 390 690 390 686 c 256,31,32
 390 682 390 682 388 675 c 0,33,34
 386 669 386 669 379 657 c 256,35,36
 372 645 372 645 366 636 c 256,37,38
 360 627 360 627 345 609 c 0,39,40
 330 592 330 592 314 577 c 0,41,42
 298 561 298 561 280 560 c 2,43,-1
 275 560 l 2,44,45
 268 560 268 560 260 562 c 0,46,47
 249 565 249 565 234 575 c 2,48,-1
 178 610 l 2,49,50
 155 622 155 622 141 623 c 0,51,52
 129 623 129 623 116 617 c 0,53,54
 104 611 104 611 96 606 c 0,55,56
 89 601 89 601 76 589 c 0,57,58
 64 577 64 577 58 568 c 0,59,60
 52 560 52 560 48 559 c 2,61,-1
 47 559 l 2,62,63
 42 559 42 559 38 564 c 0,64,65
 37 566 37 566 37 570 c 0,66,67
 37 576 37 576 42 587 c 0,68,69
 51 603 51 603 55 609 c 0,0,1
EndSplineSet
EndChar
StartChar: uni5168
Encoding: 20840 20840 98
Width: 1024
Flags: W
LayerCount: 2
Back
Fore
SplineSet
455 631 m 1,0,1
 446 637 446 637 440 642 c 0,2,3
 433 646 433 646 422 650 c 0,4,5
 412 654 412 654 397 656 c 0,6,7
 383 657 383 657 374 657 c 0,8,9
 366 657 366 657 360 660 c 256,10,11
 354 663 354 663 354 669 c 2,12,-1
 354 671 l 2,13,14
 355 677 355 677 365 680 c 256,15,16
 375 683 375 683 382 685 c 0,17,18
 391 685 391 685 408 683 c 0,19,20
 426 681 426 681 436 679 c 0,21,22
 447 676 447 676 458 671 c 0,23,24
 468 667 468 667 479 661 c 0,25,26
 490 654 490 654 504 640 c 0,27,28
 520 626 520 626 555 589 c 0,29,30
 591 551 591 551 615 528 c 256,31,32
 639 505 639 505 666 483 c 0,33,34
 693 459 693 459 714 444 c 0,35,36
 734 429 734 429 767 411 c 256,37,38
 800 393 800 393 835 377 c 256,39,40
 870 361 870 361 888 355 c 256,41,42
 906 349 906 349 944 339 c 2,43,-1
 968 332 l 2,44,45
 982 328 982 328 982 322 c 2,46,-1
 982 321 l 2,47,48
 981 314 981 314 969 311 c 2,49,-1
 948 304 l 2,50,51
 941 302 941 302 931 300 c 0,52,53
 922 298 922 298 882 293 c 0,54,55
 852 289 852 289 833 289 c 2,56,-1
 822 289 l 2,57,58
 798 289 798 289 782 296 c 0,59,60
 767 303 767 303 739 327 c 0,61,62
 712 351 712 351 696 368 c 0,63,64
 681 385 681 385 624 450 c 2,65,-1
 560 522 l 1,66,-1
 500 589 l 1,67,68
 481 559 481 559 464 535 c 0,69,70
 447 510 447 510 414 471 c 0,71,72
 382 432 382 432 337 391 c 0,73,74
 292 349 292 349 253 326 c 0,75,76
 215 303 215 303 175 283 c 0,77,78
 136 263 136 263 121 257 c 2,79,-1
 94 245 l 2,80,81
 91 244 91 244 89 244 c 0,82,83
 85 244 85 244 84 247 c 0,84,85
 83 248 83 248 83 250 c 0,86,87
 83 255 83 255 93 262 c 2,88,-1
 120 280 l 2,89,90
 142 295 142 295 165 311 c 256,91,92
 188 327 188 327 226 357 c 0,93,94
 264 388 264 388 302 427 c 0,95,96
 339 466 339 466 383 522 c 0,97,98
 427 579 427 579 436 595 c 2,99,-1
 455 631 l 1,0,1
445 117 m 1,100,101
 413 113 413 113 394 111 c 0,102,103
 384 110 384 110 376 110 c 0,104,105
 369 110 369 110 363 111 c 0,106,107
 344 111 344 111 329 115 c 0,108,109
 314 120 314 120 307 125 c 0,110,111
 300 131 300 131 300 135 c 0,112,113
 301 140 301 140 306 142 c 0,114,115
 310 145 310 145 334 148 c 2,116,-1
 444 163 l 1,117,118
 444 186 444 186 443 204 c 0,119,120
 442 221 442 221 440 239 c 256,121,122
 438 257 438 257 432 268 c 2,123,-1
 426 283 l 1,124,-1
 356 277 l 2,125,126
 346 277 346 277 326 281 c 0,127,128
 306 286 306 286 298 294 c 0,129,130
 292 300 292 300 292 303 c 2,131,-1
 292 305 l 2,132,133
 293 309 293 309 310 309 c 2,134,-1
 328 311 l 1,135,-1
 526 332 l 2,136,137
 555 335 555 335 574 339 c 0,138,139
 592 343 592 343 598 344 c 0,140,141
 605 344 605 344 616 343 c 0,142,143
 626 341 626 341 635 337 c 256,144,145
 644 333 644 333 652 327 c 0,146,147
 659 322 659 322 659 315 c 2,148,-1
 659 313 l 2,149,150
 659 306 659 306 640 304 c 2,151,-1
 498 287 l 1,152,153
 507 283 507 283 512 278 c 0,154,155
 518 273 518 273 519 267 c 2,156,-1
 519 264 l 2,157,158
 519 258 519 258 517 247 c 0,159,160
 513 233 513 233 512 212 c 2,161,-1
 509 170 l 1,162,-1
 554 179 l 2,163,164
 568 181 568 181 578 181 c 256,165,166
 588 181 588 181 607 177 c 256,167,168
 626 173 626 173 642 166 c 0,169,170
 656 159 656 159 656 154 c 2,171,-1
 656 153 l 2,172,173
 656 147 656 147 649 142 c 0,174,175
 643 137 643 137 606 134 c 2,176,-1
 508 124 l 1,177,-1
 502 -14 l 1,178,-1
 660 1 l 2,179,180
 698 4 698 4 710 6 c 0,181,182
 722 9 722 9 724 9 c 0,183,184
 732 9 732 9 749 5 c 0,185,186
 765 1 765 1 784 -7 c 0,187,188
 802 -15 802 -15 810 -24 c 0,189,190
 816 -33 816 -33 816 -38 c 256,191,192
 816 -43 816 -43 806 -47 c 0,193,194
 797 -51 797 -51 738 -52 c 2,195,-1
 532 -55 l 2,196,197
 508 -55 508 -55 470 -59 c 0,198,199
 431 -63 431 -63 380 -68 c 0,200,201
 330 -73 330 -73 300 -81 c 0,202,203
 271 -89 271 -89 262 -89 c 0,204,205
 248 -89 248 -89 242 -87 c 0,206,207
 235 -85 235 -85 211 -73 c 256,208,209
 187 -61 187 -61 182 -55 c 0,210,211
 179 -50 179 -50 179 -46 c 0,212,213
 179 -45 179 -45 180 -43 c 0,214,215
 182 -41 182 -41 194 -39 c 2,216,-1
 217 -37 l 1,217,-1
 448 -19 l 1,218,-1
 445 117 l 1,100,101
EndSplineSet
EndChar
StartChar: uni5B57
Encoding: 23383 23383 99
Width: 1024
Flags: W
LayerCount: 2
Back
Fore
SplineSet
500 233 m 1,0,1
 498 249 498 249 496 256 c 256,2,3
 494 263 494 263 489 274 c 256,4,5
 484 285 484 285 476 294 c 0,6,7
 468 304 468 304 466 309 c 0,8,9
 465 311 465 311 465 313 c 0,10,11
 465 317 465 317 468 320 c 0,12,13
 470 323 470 323 474 323 c 0,14,15
 476 323 476 323 480 321 c 2,16,-1
 510 311 l 1,17,-1
 546 353 l 2,18,19
 551 360 551 360 565 378 c 0,20,21
 578 395 578 395 587 408 c 0,22,23
 593 417 593 417 593 423 c 0,24,25
 593 425 593 425 592 427 c 0,26,27
 589 432 589 432 582 432 c 0,28,29
 576 431 576 431 555 427 c 2,30,-1
 475 410 l 2,31,32
 435 401 435 401 410 395 c 0,33,34
 386 388 386 388 381 387 c 0,35,36
 378 386 378 386 374 386 c 2,37,-1
 370 386 l 2,38,39
 361 386 361 386 353 389 c 0,40,41
 344 393 344 393 333 400 c 256,42,43
 322 407 322 407 319 413 c 256,44,45
 316 419 316 419 316 422 c 0,46,47
 318 425 318 425 329 427 c 2,48,-1
 348 427 l 2,49,50
 356 428 356 428 388 431 c 0,51,52
 420 435 420 435 442 439 c 2,53,-1
 494 450 l 1,54,-1
 540 462 l 2,55,56
 574 471 574 471 588 476 c 256,57,58
 602 481 602 481 606 482 c 2,59,-1
 610 482 l 2,60,61
 619 482 619 482 630 479 c 0,62,63
 646 475 646 475 668 460 c 0,64,65
 691 445 691 445 700 434 c 0,66,67
 708 424 708 424 708 417 c 2,68,-1
 708 415 l 2,69,70
 706 409 706 409 695 401 c 2,71,-1
 660 386 l 2,72,73
 647 379 647 379 626 365 c 2,74,-1
 536 299 l 1,75,76
 544 291 544 291 548 284 c 0,77,78
 553 277 553 277 554 263 c 2,79,-1
 556 237 l 1,80,-1
 639 245 l 1,81,-1
 706 250 l 2,82,83
 708 250 708 250 746 255 c 0,84,85
 782 259 782 259 808 262 c 0,86,87
 832 265 832 265 842 265 c 0,88,89
 854 264 854 264 873 257 c 0,90,91
 892 251 892 251 907 242 c 256,92,93
 922 233 922 233 930 226 c 0,94,95
 936 219 936 219 936 215 c 0,96,97
 935 210 935 210 924 206 c 0,98,99
 912 203 912 203 898 202 c 2,100,-1
 854 200 l 1,101,-1
 786 202 l 2,102,103
 776 202 776 202 719 200 c 2,104,-1
 644 199 l 1,105,-1
 556 195 l 1,106,-1
 560 98 l 2,107,108
 560 72 560 72 559 36 c 0,109,110
 558 1 558 1 555 -27 c 256,111,112
 552 -55 552 -55 546 -75 c 0,113,114
 540 -97 540 -97 530 -115 c 0,115,116
 519 -133 519 -133 506 -143 c 0,117,118
 496 -151 496 -151 490 -151 c 2,119,-1
 487 -151 l 2,120,121
 481 -151 481 -151 468 -133 c 256,122,123
 455 -115 455 -115 448 -107 c 0,124,125
 442 -99 442 -99 426 -83 c 0,126,127
 411 -66 411 -66 400 -55 c 2,128,-1
 382 -39 l 2,129,130
 374 -32 374 -32 374 -27 c 2,131,-1
 374 -25 l 2,132,133
 375 -23 375 -23 380 -23 c 0,134,135
 383 -23 383 -23 388 -24 c 2,136,-1
 406 -29 l 1,137,-1
 435 -39 l 1,138,-1
 458 -46 l 2,139,140
 467 -49 467 -49 472 -49 c 0,141,142
 476 -49 476 -49 478 -48 c 0,143,144
 482 -45 482 -45 488 -30 c 0,145,146
 494 -14 494 -14 496 4 c 256,147,148
 498 22 498 22 500 48 c 256,149,150
 502 74 502 74 502 97 c 2,151,-1
 503 190 l 1,152,153
 470 187 470 187 438 184 c 256,154,155
 406 181 406 181 357 174 c 2,156,-1
 280 163 l 2,157,158
 244 158 244 158 225 153 c 0,159,160
 206 147 206 147 199 147 c 0,161,162
 190 147 190 147 163 155 c 0,163,164
 136 164 136 164 124 176 c 0,165,166
 114 187 114 187 114 192 c 2,167,-1
 114 194 l 2,168,169
 117 199 117 199 127 200 c 2,170,-1
 166 202 l 2,171,172
 172 202 172 202 212 206 c 2,173,-1
 288 211 l 2,174,175
 310 213 310 213 398 223 c 2,176,-1
 500 233 l 1,0,1
516 592 m 1,177,178
 505 603 505 603 497 613 c 256,179,180
 489 623 489 623 480 639 c 0,181,182
 472 656 472 656 462 679 c 0,183,184
 453 701 453 701 450 712 c 0,185,186
 449 718 449 718 449 721 c 0,187,188
 449 725 449 725 450 726 c 0,189,190
 452 729 452 729 460 729 c 2,191,-1
 462 729 l 2,192,193
 474 729 474 729 490 721 c 0,194,195
 508 712 508 712 524 701 c 0,196,197
 540 691 540 691 550 675 c 256,198,199
 560 659 560 659 563 647 c 0,200,201
 564 641 564 641 564 635 c 0,202,203
 564 624 564 624 560 614 c 2,204,-1
 553 598 l 1,205,-1
 688 615 l 1,206,-1
 728 621 l 2,207,208
 762 626 762 626 776 631 c 0,209,210
 789 635 789 635 793 636 c 2,211,-1
 795 636 l 2,212,213
 806 636 806 636 819 628 c 0,214,215
 834 620 834 620 855 602 c 256,216,217
 876 584 876 584 888 571 c 256,218,219
 900 558 900 558 904 546 c 0,220,221
 906 540 906 540 906 536 c 256,222,223
 906 532 906 532 904 529 c 0,224,225
 901 524 901 524 882 522 c 256,226,227
 863 520 863 520 853 519 c 0,228,229
 844 517 844 517 816 511 c 0,230,231
 788 504 788 504 768 497 c 2,232,-1
 730 483 l 2,233,234
 725 481 725 481 722 481 c 256,235,236
 719 481 719 481 717 483 c 2,237,-1
 717 484 l 2,238,239
 717 488 717 488 724 498 c 2,240,-1
 736 515 l 2,241,242
 740 521 740 521 749 534 c 256,243,244
 758 547 758 547 766 557 c 256,245,246
 774 567 774 567 774 573 c 2,247,-1
 774 575 l 2,248,249
 772 582 772 582 765 585 c 0,250,251
 757 589 757 589 748 589 c 0,252,253
 732 588 732 588 696 583 c 0,254,255
 661 579 661 579 590 570 c 0,256,257
 520 561 520 561 484 557 c 0,258,259
 450 552 450 552 405 545 c 0,260,261
 361 538 361 538 336 534 c 0,262,263
 311 529 311 529 300 529 c 2,264,-1
 280 529 l 1,265,-1
 264 530 l 1,266,267
 260 517 260 517 256 506 c 256,268,269
 252 495 252 495 240 473 c 0,270,271
 229 450 229 450 220 441 c 0,272,273
 210 431 210 431 200 431 c 0,274,275
 188 431 188 431 181 442 c 256,276,277
 174 453 174 453 173 466 c 2,278,-1
 173 471 l 2,279,280
 173 481 173 481 176 491 c 0,281,282
 178 499 178 499 191 518 c 256,283,284
 204 537 204 537 210 552 c 0,285,286
 217 567 217 567 222 584 c 0,287,288
 226 601 226 601 230 609 c 256,289,290
 234 617 234 617 239 618 c 2,291,-1
 240 618 l 2,292,293
 245 618 245 618 251 609 c 0,294,295
 257 601 257 601 258 590 c 2,296,-1
 261 572 l 1,297,-1
 306 573 l 1,298,-1
 400 581 l 1,299,-1
 516 592 l 1,177,178
EndSplineSet
EndChar
StartChar: uni5EAB
Encoding: 24235 24235 100
Width: 1024
Flags: W
LayerCount: 2
Back
Fore
SplineSet
522 595 m 1,0,1
 504 593 504 593 489 591 c 0,2,3
 474 590 474 590 461 589 c 0,4,5
 448 587 448 587 382 578 c 2,6,-1
 344 573 l 1,7,8
 349 567 349 567 350 565 c 0,9,10
 350 562 350 562 348 557 c 0,11,12
 344 547 344 547 342 541 c 256,13,14
 340 535 340 535 338 523 c 2,15,-1
 320 410 l 2,16,17
 316 383 316 383 308 349 c 256,18,19
 300 315 300 315 296 297 c 0,20,21
 292 281 292 281 279 237 c 256,22,23
 266 193 266 193 254 167 c 0,24,25
 244 142 244 142 222 102 c 0,26,27
 200 61 200 61 182 36 c 0,28,29
 163 11 163 11 142 -9 c 0,30,31
 122 -29 122 -29 100 -43 c 2,32,-1
 74 -61 l 2,33,34
 67 -66 67 -66 64 -66 c 256,35,36
 61 -66 61 -66 60 -64 c 0,37,38
 59 -63 59 -63 59 -61 c 0,39,40
 59 -56 59 -56 66 -49 c 2,41,-1
 84 -30 l 2,42,43
 101 -12 101 -12 120 15 c 0,44,45
 139 41 139 41 157 76 c 0,46,47
 174 110 174 110 197 161 c 0,48,49
 219 213 219 213 238 273 c 0,50,51
 258 333 258 333 264 380 c 256,52,53
 270 427 270 427 274 471 c 0,54,55
 277 515 277 515 277 521 c 2,56,-1
 277 525 l 2,57,58
 277 531 277 531 275 543 c 0,59,60
 272 558 272 558 270 562 c 2,61,-1
 263 575 l 1,62,63
 252 581 252 581 245 585 c 0,64,65
 238 587 238 587 236 591 c 0,66,67
 234 593 234 593 234 595 c 2,68,-1
 234 597 l 2,69,70
 234 600 234 600 238 602 c 0,71,72
 242 603 242 603 263 606 c 2,73,-1
 360 617 l 1,74,-1
 543 642 l 1,75,76
 522 670 522 670 514 682 c 0,77,78
 505 695 505 695 493 714 c 2,79,-1
 481 733 l 2,80,81
 477 738 477 738 477 741 c 0,82,83
 477 745 477 745 480 747 c 0,84,85
 482 749 482 749 487 749 c 0,86,87
 491 749 491 749 498 747 c 2,88,-1
 527 739 l 2,89,90
 560 729 560 729 574 720 c 256,91,92
 588 711 588 711 592 702 c 256,93,94
 596 693 596 693 596 683 c 0,95,96
 596 667 596 667 592 660 c 2,97,-1
 583 645 l 1,98,-1
 692 659 l 1,99,-1
 742 667 l 2,100,101
 754 667 754 667 761 663 c 0,102,103
 768 661 768 661 786 649 c 256,104,105
 804 637 804 637 808 631 c 0,106,107
 811 626 811 626 811 623 c 2,108,-1
 811 622 l 2,109,110
 811 619 811 619 808 617 c 0,111,112
 806 615 806 615 798 613 c 0,113,114
 790 612 790 612 780 612 c 2,115,-1
 745 612 l 1,116,-1
 621 604 l 2,117,118
 629 604 629 604 629 603 c 256,119,120
 629 602 629 602 583 601 c 2,121,-1
 542 598 l 2,122,123
 554 595 554 595 563 594 c 0,124,125
 572 592 572 592 586 588 c 0,126,127
 600 583 600 583 605 577 c 256,128,129
 610 571 610 571 610 567 c 256,130,131
 610 563 610 563 606 555 c 0,132,133
 603 545 603 545 602 531 c 2,134,-1
 598 505 l 1,135,-1
 644 515 l 1,136,-1
 688 523 l 2,137,138
 697 523 697 523 715 516 c 256,139,140
 733 509 733 509 737 504 c 0,141,142
 740 498 740 498 740 495 c 0,143,144
 740 493 740 493 737 489 c 0,145,146
 734 486 734 486 719 483 c 2,147,-1
 695 477 l 1,148,-1
 597 462 l 1,149,-1
 595 401 l 1,150,-1
 688 417 l 1,151,-1
 738 427 l 2,152,153
 750 427 750 427 768 417 c 2,154,-1
 787 407 l 2,155,156
 806 395 806 395 808 388 c 0,157,158
 809 385 809 385 809 383 c 0,159,160
 809 377 809 377 806 372 c 2,161,-1
 794 357 l 2,162,163
 790 351 790 351 783 330 c 2,164,-1
 745 226 l 2,165,166
 728 181 728 181 720 171 c 0,167,168
 713 163 713 163 708 159 c 0,169,170
 702 157 702 157 698 156 c 2,171,-1
 690 156 l 2,172,173
 681 157 681 157 681 161 c 2,174,-1
 674 178 l 1,175,-1
 592 169 l 1,176,-1
 591 101 l 1,177,-1
 695 109 l 2,178,179
 706 110 706 110 746 115 c 0,180,181
 786 119 786 119 810 123 c 0,182,183
 835 127 835 127 846 127 c 0,184,185
 868 125 868 125 892 111 c 256,186,187
 916 97 916 97 920 89 c 0,188,189
 925 82 925 82 925 78 c 0,190,191
 924 76 924 76 924 74 c 0,192,193
 922 72 922 72 918 68 c 0,194,195
 914 65 914 65 904 65 c 2,196,-1
 860 67 l 2,197,198
 814 68 814 68 750 68 c 0,199,200
 687 67 687 67 649 65 c 2,201,-1
 591 61 l 1,202,203
 588 13 588 13 587 -7 c 256,204,205
 586 -27 586 -27 583 -60 c 256,206,207
 580 -93 580 -93 577 -114 c 256,208,209
 574 -135 574 -135 567 -154 c 0,210,211
 561 -173 561 -173 558 -175 c 0,212,213
 554 -177 554 -177 552 -177 c 2,214,-1
 549 -177 l 2,215,216
 547 -177 547 -177 545 -176 c 0,217,218
 542 -175 542 -175 539 -168 c 256,219,220
 536 -161 536 -161 535 -149 c 2,221,-1
 533 -123 l 2,222,223
 533 -111 533 -111 534 -87 c 2,224,-1
 534 59 l 1,225,226
 495 55 495 55 470 53 c 0,227,228
 444 50 444 50 408 45 c 256,229,230
 372 40 372 40 350 34 c 0,231,232
 328 29 328 29 320 29 c 2,233,-1
 313 29 l 2,234,235
 300 29 300 29 288 34 c 0,236,237
 271 40 271 40 256 50 c 0,238,239
 242 59 242 59 241 66 c 0,240,241
 241 72 241 72 245 75 c 0,242,243
 250 77 250 77 259 78 c 2,244,-1
 308 79 l 2,245,246
 360 79 360 79 408 85 c 2,247,-1
 534 98 l 1,248,-1
 535 164 l 1,249,-1
 444 157 l 1,250,251
 442 147 442 147 438 144 c 256,252,253
 434 141 434 141 428 141 c 256,254,255
 422 141 422 141 416 155 c 0,256,257
 413 161 413 161 411 173 c 2,258,-1
 384 320 l 2,259,260
 381 335 381 335 378 342 c 0,261,262
 374 349 374 349 363 357 c 0,263,264
 352 366 352 366 350 372 c 0,265,266
 350 379 350 379 353 381 c 0,267,268
 356 384 356 384 361 384 c 0,269,270
 366 383 366 383 372 383 c 2,271,-1
 404 378 l 1,272,-1
 536 393 l 1,273,-1
 536 455 l 1,274,-1
 454 446 l 2,275,276
 440 445 440 445 432 445 c 256,277,278
 424 445 424 445 416 448 c 256,279,280
 408 451 408 451 399 455 c 0,281,282
 390 460 390 460 387 466 c 0,283,284
 386 469 386 469 386 471 c 256,285,286
 386 473 386 473 387 474 c 0,287,288
 389 477 389 477 398 477 c 2,289,-1
 413 479 l 1,290,-1
 533 495 l 1,291,-1
 535 494 l 1,292,-1
 530 533 l 2,293,294
 528 545 528 545 522 559 c 256,295,296
 516 573 516 573 515 579 c 0,297,298
 514 582 514 582 514 585 c 256,299,300
 514 588 514 588 516 589 c 2,301,-1
 522 595 l 1,0,1
537 368 m 1,302,-1
 424 353 l 1,303,-1
 434 285 l 1,304,-1
 537 297 l 1,305,-1
 537 368 l 1,302,-1
536 263 m 1,306,-1
 439 261 l 1,307,-1
 447 191 l 1,308,-1
 535 197 l 1,309,-1
 536 263 l 1,306,-1
682 209 m 1,310,-1
 705 285 l 1,311,312
 672 280 672 280 669 280 c 2,313,-1
 595 271 l 1,314,-1
 593 206 l 1,315,316
 620 209 620 209 637 212 c 0,317,318
 650 214 650 214 655 214 c 2,319,-1
 658 214 l 1,320,-1
 682 209 l 1,310,-1
594 307 m 1,321,322
 622 313 622 313 636 315 c 0,323,324
 651 318 651 318 660 318 c 0,325,326
 672 317 672 317 678 315 c 2,327,-1
 711 304 l 1,328,329
 714 322 714 322 715 331 c 2,330,-1
 719 353 l 2,331,332
 720 360 720 360 720 364 c 0,333,334
 720 369 720 369 719 372 c 0,335,336
 717 377 717 377 714 379 c 0,337,338
 710 381 710 381 704 383 c 2,339,-1
 690 383 l 1,340,-1
 596 373 l 1,341,-1
 594 307 l 1,321,322
EndSplineSet
EndChar
StartChar: uni6977
Encoding: 26999 26999 101
Width: 1024
Flags: W
LayerCount: 2
Back
Fore
SplineSet
300 172 m 1,0,-1
 298 -18 l 2,1,2
 297 -61 297 -61 296 -68 c 0,3,4
 294 -75 294 -75 292 -83 c 0,5,6
 289 -91 289 -91 284 -101 c 0,7,8
 278 -113 278 -113 272 -119 c 256,9,10
 266 -125 266 -125 262 -126 c 0,11,12
 258 -126 258 -126 252 -119 c 0,13,14
 247 -115 247 -115 244 -107 c 256,15,16
 241 -99 241 -99 236 -85 c 0,17,18
 230 -71 230 -71 228 -61 c 256,19,20
 226 -51 226 -51 226 -39 c 0,21,22
 226 -31 226 -31 232 -9 c 0,23,24
 237 13 237 13 240 35 c 0,25,26
 244 57 244 57 246 84 c 256,27,28
 248 111 248 111 250 130 c 2,29,-1
 260 295 l 1,30,31
 245 269 245 269 231 246 c 0,32,33
 218 223 218 223 193 189 c 0,34,35
 168 154 168 154 144 131 c 0,36,37
 120 107 120 107 98 90 c 0,38,39
 75 73 75 73 67 68 c 2,40,-1
 50 59 l 2,41,42
 46 57 46 57 43 57 c 0,43,44
 41 57 41 57 40 58 c 0,45,46
 38 59 38 59 38 61 c 0,47,48
 38 64 38 64 42 68 c 2,49,-1
 51 78 l 2,50,51
 60 87 60 87 78 107 c 0,52,53
 97 128 97 128 115 151 c 0,54,55
 132 175 132 175 158 216 c 256,56,57
 184 257 184 257 202 292 c 0,58,59
 221 327 221 327 236 365 c 2,60,-1
 248 394 l 1,61,-1
 206 387 l 2,62,63
 187 383 187 383 165 381 c 0,64,65
 142 379 142 379 126 379 c 0,66,67
 105 380 105 380 95 385 c 0,68,69
 84 389 84 389 79 395 c 0,70,71
 74 400 74 400 74 404 c 2,72,-1
 74 405 l 2,73,74
 76 409 76 409 86 411 c 2,75,-1
 118 415 l 2,76,77
 144 417 144 417 169 423 c 2,78,-1
 262 441 l 1,79,-1
 262 515 l 1,80,-1
 260 569 l 2,81,82
 260 591 260 591 259 601 c 256,83,84
 258 611 258 611 254 632 c 0,85,86
 251 652 251 652 246 663 c 0,87,88
 241 673 241 673 241 678 c 2,89,-1
 241 679 l 2,90,91
 242 684 242 684 246 688 c 0,92,93
 249 690 249 690 255 690 c 0,94,95
 259 690 259 690 265 689 c 0,96,97
 271 687 271 687 280 684 c 0,98,99
 288 681 288 681 300 673 c 0,100,101
 312 667 312 667 323 657 c 0,102,103
 333 648 333 648 334 642 c 2,104,-1
 334 640 l 2,105,106
 334 634 334 634 330 622 c 0,107,108
 327 613 327 613 324 597 c 0,109,110
 320 581 320 581 318 569 c 0,111,112
 316 556 316 556 314 516 c 2,113,-1
 310 452 l 1,114,-1
 328 457 l 2,115,116
 353 463 353 463 364 467 c 256,117,118
 375 471 375 471 378 472 c 2,119,-1
 384 472 l 2,120,121
 391 472 391 472 400 471 c 0,122,123
 413 468 413 468 428 461 c 0,124,125
 440 454 440 454 440 449 c 2,126,-1
 440 447 l 2,127,128
 439 441 439 441 431 435 c 256,129,130
 423 429 423 429 402 425 c 2,131,-1
 306 403 l 1,132,-1
 302 327 l 1,133,-1
 334 315 l 2,134,135
 349 309 349 309 364 301 c 0,136,137
 380 293 380 293 390 282 c 0,138,139
 401 271 401 271 404 261 c 0,140,141
 408 251 408 251 408 238 c 2,142,-1
 408 235 l 2,143,144
 408 224 408 224 402 216 c 0,145,146
 394 207 394 207 383 207 c 256,147,148
 372 207 372 207 358 227 c 2,149,-1
 303 311 l 1,150,-1
 300 172 l 1,0,-1
722 543 m 1,151,-1
 785 561 l 2,152,153
 822 572 822 572 833 576 c 0,154,155
 844 581 844 581 848 581 c 2,156,-1
 853 581 l 2,157,158
 862 581 862 581 876 576 c 0,159,160
 894 569 894 569 900 563 c 0,161,162
 904 555 904 555 904 551 c 0,163,164
 904 543 904 543 891 538 c 0,165,166
 879 532 879 532 855 528 c 2,167,-1
 804 517 l 2,168,169
 789 515 789 515 768 511 c 0,170,171
 747 509 747 509 740 509 c 2,172,-1
 721 511 l 1,173,-1
 718 477 l 2,174,175
 717 466 717 466 717 456 c 0,176,177
 717 445 717 445 718 435 c 0,178,179
 720 417 720 417 726 406 c 0,180,181
 733 395 733 395 750 386 c 256,182,183
 767 377 767 377 800 375 c 0,184,185
 811 374 811 374 822 374 c 0,186,187
 843 374 843 374 862 379 c 0,188,189
 890 385 890 385 902 399 c 0,190,191
 913 413 913 413 918 434 c 0,192,193
 924 455 924 455 927 473 c 2,194,-1
 930 493 l 2,195,196
 930 498 930 498 934 498 c 2,197,-1
 936 498 l 2,198,199
 940 497 940 497 942 489 c 2,200,-1
 944 473 l 1,201,-1
 948 441 l 2,202,203
 950 430 950 430 956 417 c 0,204,205
 961 405 961 405 967 396 c 0,206,207
 972 388 972 388 974 382 c 2,208,-1
 974 380 l 2,209,210
 974 375 974 375 966 363 c 0,211,212
 956 349 956 349 934 339 c 0,213,214
 914 328 914 328 884 321 c 0,215,216
 854 313 854 313 824 313 c 256,217,218
 794 313 794 313 766 321 c 0,219,220
 738 327 738 327 718 339 c 256,221,222
 698 351 698 351 687 370 c 0,223,224
 677 388 677 388 674 406 c 0,225,226
 672 420 672 420 672 441 c 2,227,-1
 672 455 l 1,228,-1
 675 577 l 1,229,-1
 675 600 l 1,230,-1
 676 599 l 1,231,232
 675 617 675 617 674 622 c 0,233,234
 674 628 674 628 671 655 c 0,235,236
 668 681 668 681 664 692 c 0,237,238
 660 702 660 702 660 707 c 256,239,240
 660 712 660 712 663 715 c 0,241,242
 666 717 666 717 675 717 c 0,243,244
 685 715 685 715 698 709 c 0,245,246
 712 703 712 703 719 697 c 0,247,248
 727 693 727 693 735 683 c 0,249,250
 743 675 743 675 743 668 c 0,251,252
 742 667 742 667 736 655 c 256,253,254
 730 643 730 643 728 628 c 2,255,-1
 726 610 l 2,256,257
 724 592 724 592 724 581 c 2,258,-1
 722 543 l 1,151,-1
505 469 m 1,259,-1
 502 399 l 1,260,-1
 502 377 l 2,261,262
 502 370 502 370 506 367 c 0,263,264
 507 366 507 366 510 366 c 0,265,266
 515 366 515 366 529 373 c 2,267,-1
 556 385 l 1,268,-1
 603 409 l 1,269,-1
 618 416 l 2,270,271
 621 417 621 417 624 417 c 256,272,273
 627 417 627 417 630 415 c 0,274,275
 633 414 633 414 633 412 c 256,276,277
 633 410 633 410 630 407 c 2,278,-1
 619 397 l 1,279,-1
 544 335 l 2,280,281
 522 316 522 316 508 303 c 2,282,-1
 488 283 l 2,283,284
 478 273 478 273 472 273 c 256,285,286
 466 273 466 273 459 283 c 0,287,288
 451 293 451 293 448 300 c 0,289,290
 444 307 444 307 441 316 c 0,291,292
 439 321 439 321 439 325 c 0,293,294
 439 327 439 327 440 329 c 2,295,-1
 445 336 l 2,296,297
 450 343 450 343 452 355 c 256,298,299
 454 367 454 367 455 380 c 256,300,301
 456 393 456 393 458 466 c 256,302,303
 460 539 460 539 460 555 c 0,304,305
 459 568 459 568 457 581 c 0,306,307
 454 594 454 594 449 603 c 2,308,-1
 442 614 l 2,309,310
 438 619 438 619 438 623 c 0,311,312
 438 626 438 626 440 628 c 0,313,314
 442 633 442 633 456 633 c 0,315,316
 464 633 464 633 473 631 c 256,317,318
 482 629 482 629 494 624 c 256,319,320
 506 619 506 619 512 613 c 0,321,322
 520 607 520 607 520 602 c 0,323,324
 520 596 520 596 516 586 c 0,325,326
 513 579 513 579 512 573 c 0,327,328
 511 569 511 569 508 550 c 0,329,330
 506 531 506 531 506 526 c 2,331,-1
 507 508 l 1,332,-1
 548 521 l 2,333,334
 576 529 576 529 584 533 c 256,335,336
 592 537 592 537 596 537 c 256,337,338
 600 537 600 537 616 532 c 0,339,340
 631 527 631 527 639 521 c 0,341,342
 646 517 646 517 646 512 c 2,343,-1
 646 511 l 2,344,345
 645 507 645 507 640 503 c 0,346,347
 634 499 634 499 618 497 c 2,348,-1
 586 489 l 1,349,-1
 530 483 l 1,350,-1
 506 480 l 1,351,-1
 506 469 l 1,352,-1
 505 469 l 1,259,-1
579 199 m 1,353,-1
 672 215 l 2,354,355
 684 217 684 217 711 222 c 0,356,357
 738 228 738 228 751 232 c 0,358,359
 765 237 765 237 770 237 c 0,360,361
 776 237 776 237 783 235 c 256,362,363
 790 233 790 233 812 221 c 256,364,365
 834 209 834 209 842 201 c 0,366,367
 852 193 852 193 852 188 c 256,368,369
 852 183 852 183 846 173 c 0,370,371
 839 159 839 159 836 144 c 0,372,373
 834 129 834 129 834 99 c 2,374,-1
 833 -25 l 1,375,-1
 836 -71 l 2,376,377
 836 -85 836 -85 832 -95 c 0,378,379
 828 -104 828 -104 821 -115 c 0,380,381
 814 -127 814 -127 807 -134 c 0,382,383
 800 -140 800 -140 795 -140 c 2,384,-1
 793 -140 l 2,385,386
 786 -139 786 -139 781 -131 c 0,387,388
 776 -122 776 -122 773 -107 c 0,389,390
 770 -93 770 -93 770 -88 c 2,391,-1
 768 -65 l 1,392,-1
 536 -81 l 1,393,-1
 532 -99 l 2,394,395
 530 -109 530 -109 526 -113 c 0,396,397
 522 -116 522 -116 518 -117 c 0,398,399
 514 -117 514 -117 507 -107 c 0,400,401
 498 -95 498 -95 491 -77 c 256,402,403
 484 -59 484 -59 484 -48 c 0,404,405
 484 -43 484 -43 487 -32 c 256,406,407
 490 -21 490 -21 492 -8 c 0,408,409
 495 5 495 5 496 25 c 2,410,-1
 497 123 l 2,411,412
 497 141 497 141 495 156 c 0,413,414
 494 171 494 171 488 183 c 0,415,416
 483 193 483 193 483 198 c 2,417,-1
 483 200 l 2,418,419
 484 204 484 204 488 207 c 0,420,421
 490 209 490 209 494 209 c 0,422,423
 500 209 500 209 512 205 c 2,424,-1
 540 194 l 1,425,426
 554 213 554 213 563 227 c 0,427,428
 572 240 572 240 581 259 c 0,429,430
 591 278 591 278 595 293 c 0,431,432
 599 304 599 304 599 313 c 0,433,434
 599 317 599 317 598 320 c 0,435,436
 597 326 597 326 597 329 c 0,437,438
 597 333 597 333 598 335 c 0,439,440
 600 339 600 339 607 341 c 0,441,442
 609 342 609 342 611 342 c 0,443,444
 617 342 617 342 627 337 c 0,445,446
 642 331 642 331 650 325 c 0,447,448
 659 319 659 319 668 310 c 0,449,450
 674 303 674 303 674 297 c 2,451,-1
 674 294 l 2,452,453
 672 291 672 291 668 287 c 2,454,-1
 652 274 l 2,455,456
 644 267 644 267 628 250 c 2,457,-1
 598 219 l 1,458,-1
 579 199 l 1,353,-1
538 -41 m 1,459,-1
 682 -24 l 1,460,-1
 720 -19 l 2,461,462
 733 -20 733 -20 744 -25 c 2,463,-1
 773 -39 l 1,464,-1
 773 71 l 1,465,-1
 638 51 l 1,466,-1
 614 47 l 2,467,468
 601 44 601 44 590 43 c 2,469,-1
 566 43 l 1,470,-1
 542 47 l 1,471,-1
 538 -41 l 1,459,-1
542 72 m 1,472,-1
 639 87 l 2,473,474
 672 91 672 91 694 97 c 256,475,476
 716 103 716 103 726 103 c 0,477,478
 730 103 730 103 750 97 c 2,479,-1
 773 91 l 1,480,-1
 771 152 l 2,481,482
 770 167 770 167 766 175 c 0,483,484
 763 183 763 183 759 189 c 0,485,486
 754 193 754 193 732 193 c 0,487,488
 698 191 698 191 667 187 c 0,489,490
 636 182 636 182 604 175 c 0,491,492
 572 167 572 167 566 167 c 2,493,-1
 544 166 l 1,494,-1
 542 72 l 1,472,-1
EndSplineSet
EndChar
StartChar: uni6B63
Encoding: 27491 27491 102
Width: 1024
Flags: W
LayerCount: 2
Back
Fore
SplineSet
343 52 m 1,0,-1
 488 65 l 1,1,-1
 484 465 l 2,2,3
 484 491 484 491 480 513 c 256,4,5
 476 535 476 535 468 547 c 2,6,-1
 460 559 l 1,7,-1
 366 550 l 2,8,9
 350 548 350 548 336 548 c 2,10,-1
 327 548 l 2,11,12
 310 548 310 548 292 553 c 0,13,14
 274 559 274 559 269 566 c 0,15,16
 266 570 266 570 266 574 c 0,17,18
 266 577 266 577 267 579 c 0,19,20
 270 584 270 584 284 586 c 2,21,-1
 306 589 l 1,22,-1
 346 593 l 2,23,24
 364 595 364 595 447 608 c 256,25,26
 530 621 530 621 554 627 c 0,27,28
 578 631 578 631 612 640 c 0,29,30
 645 649 645 649 660 654 c 0,31,32
 676 659 676 659 682 659 c 0,33,34
 691 659 691 659 715 651 c 0,35,36
 738 643 738 643 745 636 c 0,37,38
 751 629 751 629 752 625 c 2,39,-1
 752 620 l 2,40,41
 752 619 752 619 744 613 c 0,42,43
 738 607 738 607 720 604 c 2,44,-1
 680 595 l 2,45,46
 648 589 648 589 578 577 c 2,47,-1
 524 569 l 1,48,49
 546 561 546 561 556 552 c 0,50,51
 566 544 566 544 566 539 c 0,52,53
 566 533 566 533 563 521 c 0,54,55
 560 511 560 511 556 487 c 0,56,57
 553 463 553 463 553 449 c 2,58,-1
 550 329 l 1,59,-1
 621 347 l 1,60,-1
 662 358 l 2,61,62
 699 367 699 367 713 373 c 0,63,64
 726 378 726 378 732 379 c 0,65,66
 741 379 741 379 762 372 c 0,67,68
 784 365 784 365 794 358 c 0,69,70
 804 350 804 350 804 344 c 0,71,72
 803 335 803 335 795 332 c 0,73,74
 786 329 786 329 778 327 c 2,75,-1
 755 321 l 2,76,77
 748 319 748 319 694 311 c 2,78,-1
 648 302 l 2,79,80
 619 297 619 297 599 297 c 2,81,-1
 593 297 l 2,82,83
 578 298 578 298 570 301 c 2,84,-1
 550 305 l 1,85,-1
 547 69 l 1,86,-1
 671 79 l 2,87,88
 688 81 688 81 708 83 c 2,89,-1
 784 93 l 2,90,91
 816 97 816 97 839 102 c 256,92,93
 862 107 862 107 870 107 c 0,94,95
 882 107 882 107 906 99 c 256,96,97
 930 91 930 91 949 82 c 0,98,99
 967 73 967 73 975 65 c 0,100,101
 982 56 982 56 982 50 c 2,102,-1
 982 49 l 2,103,104
 981 43 981 43 973 39 c 0,105,106
 970 38 970 38 962 38 c 2,107,-1
 954 38 l 1,108,-1
 914 36 l 1,109,-1
 824 35 l 1,110,-1
 696 33 l 2,111,112
 626 33 626 33 594 31 c 0,113,114
 564 29 564 29 500 24 c 0,115,116
 438 19 438 19 381 13 c 256,117,118
 324 7 324 7 284 1 c 2,119,-1
 238 -8 l 2,120,121
 195 -16 195 -16 174 -22 c 0,122,123
 157 -28 157 -28 147 -28 c 2,124,-1
 145 -28 l 2,125,126
 136 -28 136 -28 120 -24 c 0,127,128
 105 -19 105 -19 86 -10 c 0,129,130
 66 0 66 0 61 6 c 0,131,132
 56 11 56 11 56 15 c 0,133,134
 57 19 57 19 60 22 c 0,135,136
 64 25 64 25 82 27 c 2,137,-1
 119 29 l 1,138,-1
 212 35 l 1,139,-1
 288 43 l 1,140,-1
 284 259 l 2,141,142
 284 269 284 269 282 296 c 0,143,144
 279 323 279 323 277 333 c 256,145,146
 275 343 275 343 269 354 c 0,147,148
 264 365 264 365 263 369 c 0,149,150
 263 373 263 373 266 378 c 0,151,152
 269 382 269 382 278 382 c 0,153,154
 282 382 282 382 287 381 c 0,155,156
 300 380 300 380 316 377 c 0,157,158
 332 373 332 373 344 366 c 0,159,160
 357 359 357 359 358 353 c 0,161,162
 358 348 358 348 352 331 c 0,163,164
 350 326 350 326 348 308 c 2,165,-1
 347 297 l 2,166,167
 346 287 346 287 346 253 c 2,168,-1
 343 52 l 1,0,-1
EndSplineSet
EndChar
StartChar: uF0000
Encoding: 983040 983040 104
Width: 1024
Flags: W
LayerCount: 2
Back
Fore
SplineSet
239 174 m 0,0,1
 351 196 351 196 448 223 c 2,2,-1
 477 231 l 2,3,4
 488 234 488 234 495 234 c 0,5,6
 504 234 504 234 504 226 c 0,7,8
 504 219 504 219 484 211 c 2,9,-1
 457 200 l 2,10,11
 394 174 394 174 291 136 c 0,12,13
 236 116 236 116 213 98 c 0,14,15
 202 90 202 90 196 90 c 0,16,17
 187 90 187 90 156 121 c 0,18,19
 128 150 128 150 128 159 c 0,20,21
 128 163 128 163 134 168 c 0,22,23
 139 172 139 172 141 172 c 2,24,-1
 221 167 l 2,25,26
 224 167 224 167 239 174 c 0,0,1
692 679 m 0,27,28
 673 702 673 702 653 732 c 0,29,30
 648 741 648 741 648 744 c 0,31,32
 648 751 648 751 667 751 c 0,33,34
 705 751 705 751 736 729 c 0,35,36
 763 711 763 711 763 676 c 0,37,38
 763 661 763 661 753 651 c 0,39,40
 746 644 746 644 738 644 c 0,41,42
 721 644 721 644 692 679 c 0,27,28
543 582 m 1,43,44
 577 589 577 589 594 594 c 0,45,46
 620 602 620 602 636 602 c 0,47,48
 654 602 654 602 665 589 c 0,49,50
 671 581 671 581 671 574 c 0,51,52
 671 560 671 560 644 549 c 0,53,54
 618 539 618 539 556 523 c 1,55,56
 593 366 593 366 664 246 c 1,57,58
 712 366 712 366 712 405 c 0,59,60
 712 417 712 417 706 431 c 256,61,62
 700 445 700 445 700 452 c 0,63,64
 700 462 700 462 713 462 c 0,65,66
 741 462 741 462 781 429 c 0,67,68
 794 419 794 419 794 411 c 256,69,70
 794 403 794 403 775 374 c 0,71,72
 764 358 764 358 746 310 c 0,73,74
 728 261 728 261 699 190 c 1,75,76
 754 108 754 108 812 59 c 0,77,78
 837 37 837 37 862 23 c 0,79,80
 883 11 883 11 889 11 c 0,81,82
 897 11 897 11 903 20 c 0,83,84
 907 26 907 26 916 58 c 2,85,-1
 925 95 l 2,86,87
 933 123 933 123 937 123 c 0,88,89
 944 123 944 123 944 96 c 2,90,-1
 944 40 l 2,91,92
 944 -27 944 -27 962 -64 c 0,93,94
 973 -87 973 -87 973 -97 c 0,95,96
 973 -118 973 -118 956 -118 c 0,97,98
 915 -118 915 -118 823 -42 c 0,99,100
 757 14 757 14 664 137 c 1,101,102
 589 46 589 46 494 -1 c 2,103,-1
 469 -13 l 2,104,105
 457 -19 457 -19 451 -19 c 256,106,107
 445 -19 445 -19 445 -13 c 0,108,109
 445 -9 445 -9 448 -6 c 0,110,111
 451 -4 451 -4 458 0 c 0,112,113
 460 1 460 1 467 7 c 2,114,-1
 484 20 l 2,115,116
 575 87 575 87 632 184 c 1,117,118
 555 347 555 347 505 512 c 1,119,120
 451 502 451 502 253 455 c 0,121,122
 238 452 238 452 223 452 c 0,123,124
 195 452 195 452 177 470 c 0,125,126
 170 477 170 477 170 483 c 0,127,128
 170 491 170 491 188 494 c 2,129,-1
 222 500 l 1,130,-1
 399 543 l 2,131,132
 453 556 453 556 490 565 c 1,133,134
 476 628 476 628 468 656 c 0,135,136
 460 681 460 681 438 714 c 0,137,138
 428 728 428 728 428 738 c 0,139,140
 428 750 428 750 450 750 c 0,141,142
 490 750 490 750 528 733 c 0,143,144
 543 726 543 726 543 716 c 0,145,146
 543 713 543 713 540 701 c 0,147,148
 532 673 532 673 532 654 c 0,149,150
 532 627 532 627 543 582 c 1,43,44
EndSplineSet
EndChar
